<?xml version="1.0" encoding="UTF-8"?>
<!DOCTYPE svg PUBLIC "-//W3C//DTD SVG 1.1//EN" "http://www.w3.org/Graphics/SVG/1.1/DTD/svg11.dtd">
<svg xmlns="http://www.w3.org/2000/svg">
	<defs>
		<clipPath id="clip0airplane">
			<path fill="#fff" d="M0 0h48v48H0z" transform="translate(0 .5)"/>
		</clipPath>

		<clipPath id="clip0close">
			<path fill="#fff" d="M0 0h24v24H0z"/>
		</clipPath>
	</defs>
<symbol id="icon-airplane" viewBox="0 0 48 49">
	<g clip-path="url(#clip0airplane)">
		<path fill="#4C29D3" d="M41.45 8.555a1.04 1.04 0 00-1.115-1.114 7.063 7.063 0 00-4.46 2.048l-6.48 6.48L7.36 13.323 4.42 16.262l17.041 7.64-4.407 4.407c-.41.41-.712.915-.881 1.47l-7.345-1.47-2.35 2.35 8.226 3.526 3.526 8.227 2.35-2.35-1.469-7.346a3.533 3.533 0 001.47-.881l4.406-4.407 7.64 17.04 2.938-2.937-2.645-22.036 6.48-6.48a7.064 7.064 0 002.048-4.46z"/>
		<path fill="#68BAFF" d="M32.614 44.468l-7.639-17.041 7.933-7.933 2.645 22.036-2.938 2.938z"/>
		<path fill="#FF641A" d="M4.402 16.273l17.051 7.618 7.923-7.943-22.04-2.617-2.934 2.942z"/>
	</g>

</symbol>
<symbol id="icon-arrow-down" viewBox="0 0 48 61">
	<path fill="#FF6E3D" d="M22.161 12.824a2.425 2.425 0 011.717-.706c1.331 0 2.423 1.092 2.436 2.436v35.67c0 1.332-1.091 2.423-2.436 2.436-1.33 0-2.422-1.091-2.436-2.435v-35.67c0-.666.28-1.292.72-1.731z"/>
	<path fill="#44BAFF" d="M21.842 48.707L41.94 28.61a2.438 2.438 0 013.447-.013 2.454 2.454 0 010 3.46L25.276 52.168a2.442 2.442 0 01-3.461 0 2.466 2.466 0 01.027-3.46z"/>
	<path fill="#6324FF" d="M1.73 28.596a2.442 2.442 0 013.46 0L25.29 48.694a2.442 2.442 0 010 3.46 2.442 2.442 0 01-3.46 0L1.716 32.045c-.932-.959-.932-2.503.013-3.448z"/>
</symbol>
<symbol id="icon-arrow-lang" viewBox="0 0 12 9">
	<path fill="#000" d="M4.881 7.547a1.412 1.412 0 002.238 0l4.06-5.274C11.893 1.345 11.23 0 10.058 0H1.94C.77 0 .107 1.345.822 2.273l4.06 5.274z"/>
</symbol>
<symbol id="icon-arrow-right" viewBox="0 0 48 49">
	<path fill="#FF6E3D" d="M6.81 25.472a2.33 2.33 0 01-.678-1.647c0-1.277 1.045-2.323 2.335-2.335l34.217.024c1.277.001 2.324 1.049 2.338 2.338 0 1.277-1.045 2.323-2.335 2.335L8.47 26.163a2.371 2.371 0 01-1.66-.69z"/>
	<path fill="#44BAFF" d="M41.231 25.803L21.938 6.511c-.92-.92-.92-2.401-.015-3.307a2.354 2.354 0 013.32.002l19.305 19.306c.92.92.921 2.4.003 3.32a2.366 2.366 0 01-3.32-.029z"/>
	<path fill="#6324FF" d="M21.953 45.081c-.92-.92-.92-2.4-.002-3.32l19.265-19.265a2.343 2.343 0 013.32.003c.92.92.92 2.4.002 3.32L25.26 45.095c-.918.893-2.4.892-3.307-.015z"/>
</symbol>
<symbol id="icon-check-white" viewBox="0 0 19 14">
	<path fill="#fff" fill-rule="evenodd" d="M18.51.49a1.67 1.67 0 010 2.361l-9.742 9.743a1.666 1.666 0 01-1.303.485 1.666 1.666 0 01-1.303-.485L.49 6.921A1.67 1.67 0 112.851 4.56l4.614 4.614L16.149.49a1.67 1.67 0 012.362 0z" clip-rule="evenodd"/>
</symbol>
<symbol id="icon-chililab" viewBox="0 0 85 17">
	<path fill="#D92819" d="M.807 10.514l1.179-.466.248.59.59-.217.217.59 2.98-1.18.217.59 12.476-4.873.248.59.59-.248.217.62.59-.248.248.59.59-.217.216.59.621-.25.466 1.18-.62.249.247.59 1.18-.466.713 1.769-1.21.465.248.62-2.39.932.466 1.18-5.927 2.327-.466-1.18-3.569 1.397-.465-1.21-2.359.93-.466-1.179-1.179.466-.465-1.18-1.21.466-.466-1.18-1.18.466-.682-1.8-.621.249-.217-.59-.59.217-.465-1.18z"/>
	<path fill="#fff" d="M12.879 9.893l.248.59.59-.248.217.59 1.21-.466.249.59 2.358-.9-.217-.621 1.148-.466-.217-.59.59-.217-.248-.59-5.928 2.328z"/>
	<path fill="#8AC200" d="M22.034 6.976l2.948-1.148-.217-.59.59-.248-.248-.59.59-.248-.218-.59.59-.217-.218-.59.59-.248-.714-1.769 1.8-.714.683 1.8-.59.217.217.59-.59.248.25.59-.59.248.217.59-.59.217.248.59-.62.248.248.59-.59.217.218.59-.59.248.248.59-1.21.465.248.59-.59.248.218.59-.59.217-.434-1.18-1.21.466-.25-.59.622-.248-.466-1.18z"/>
	<path fill="#D92819" d="M32.648 7.131v5.338h1.8v1.769h3.537v-1.769h1.77V10.7h-1.77v1.769h-3.538V7.131h3.538v1.8h1.77v-1.8h-1.77V5.362h-3.538v1.769h-1.8zM41.523 1.824h1.77v5.307h3.568v1.8h1.77v5.307h-1.77V8.931h-3.569v5.307h-1.769V1.824z"/>
	<path fill="#D92819" d="M38.854 7.131h-.869v1.8h1.77v-1.8h-.9z"/>
	<path fill="#32A712" d="M61.944 12.469h-.9V14.238H62.813V12.469h-.87z"/>
	<path fill="#D92819" d="M50.4 1.824v1.8h1.768v-1.8H50.4zm0 12.414h1.768V5.362H50.4v8.876zM55.706 1.824h-1.77v12.414h1.77V1.824zM58.375 1.824h-.9v1.8h1.8v-1.8h-.9zm-.87 12.414h1.77V5.362h-1.77v8.876z"/>
	<path fill="#000" d="M66.351 1.824h-1.769v12.414h1.769V1.824zM69.92 5.362v1.769h3.538V5.362H69.92zm3.538 1.769v3.538H69.92V7.193h-1.769v7.014h1.77v-1.77h3.537v1.77h1.77V7.1h-1.77v.031zM78.795 7.131h3.538V5.362h-3.538V1.824h-1.769v12.414h5.307v-1.769h-3.538V7.131zm3.538 0v5.307h1.77V7.131h-1.77z"/>
</symbol>
<symbol id="icon-close" viewBox="0 0 24 24">
	<g clip-path="url(#clip0close)">
		<path fill="#858585" fill-rule="evenodd" d="M5.071 5.071a1 1 0 000 1.414l5.657 5.657L5.07 17.8a1 1 0 001.414 1.414l5.657-5.657 5.657 5.657a1 1 0 001.414-1.414l-5.657-5.657 5.657-5.657A1 1 0 0017.8 5.071l-5.657 5.657L6.485 5.07a1 1 0 00-1.414 0z" clip-rule="evenodd"/>
	</g>

</symbol>
<symbol id="icon-education" viewBox="0 0 48 49">
	<path fill="#4C29D3" d="M24.083 25.625l-.812-.285-12.452-4.366.959 10.86c0 2.16 5.472 3.91 12.222 3.91 6.75 0 12.222-1.75 12.222-3.91L37.178 21l-12.284 4.338-.811.287z"/>
	<path fill="#68BAFF" d="M44.032 36.722a2.68 2.68 0 00-.834-1.71 2.68 2.68 0 00.846-1.956 2.688 2.688 0 00-1.466-2.393V16.5l.78-.275c.886-.313.89-1.565.006-1.884l-18.946-6.83a1 1 0 00-.676-.001L4.658 14.34c-.887.318-.883 1.574.006 1.885l19.084 6.692a1 1 0 00.664 0l15.721-5.554v13.3a2.687 2.687 0 00-1.466 2.393c0 .771.326 1.465.846 1.955a2.68 2.68 0 00-.834 1.711h-.012l-.49 4.89h6.356l-.489-4.89h-.012z"/>
	<path fill="#FF641A" d="M43.198 35.011c.464.438.774 1.038.834 1.711h.012l.49 4.89h-6.356l.489-4.89h.012a2.68 2.68 0 01.834-1.71 2.68 2.68 0 01-.846-1.956c0-1.044.597-1.948 1.466-2.393v-13.3l2.445-.863v14.163a2.688 2.688 0 011.466 2.393 2.68 2.68 0 01-.846 1.955z"/>
</symbol>
<symbol id="icon-fb" viewBox="0 0 32 32">
	<path fill="#4C29D3" d="M16 0C7.163 0 0 7.163 0 16s7.163 16 16 16 16-7.163 16-16S24.837 0 16 0zm6.104 8.148l-2.213.001c-1.735 0-2.07.825-2.07 2.035v2.668h4.137l-.002 4.178H17.82v10.724h-4.316V17.03H9.896v-4.178h3.608V9.77c0-3.577 2.185-5.524 5.376-5.524l3.224.005v3.897z"/>
</symbol>
<symbol id="icon-heart" viewBox="0 0 48 49">
	<path fill="#6324FF" d="M24.112 41.263c-.846 0-1.673-.46-2.096-1.269a2.39 2.39 0 01.974-3.218c.037-.018 3.531-1.912 7.283-4.818 4.726-3.678 7.705-7.319 8.606-10.519.662-2.354.46-4.744-.57-6.546a2.357 2.357 0 01.882-3.237 2.357 2.357 0 013.237.883c1.655 2.905 2.023 6.638 1.011 10.206-1.213 4.248-4.67 8.643-10.316 13.02-4.046 3.163-7.742 5.13-7.908 5.222-.35.184-.735.276-1.103.276z"/>
	<path fill="#FF6E3D" d="M24.095 25.062h-.055a2.413 2.413 0 01-2.262-1.82c-.018-.037-.736-2.998-2.225-5.867-2.115-4.1-4.083-4.947-5.333-4.947-1.582 0-5.26.534-5.443 5.425a2.396 2.396 0 01-2.465 2.3 2.407 2.407 0 01-2.298-2.465c.092-2.722 1.048-5.204 2.685-6.97 1.838-1.986 4.45-3.053 7.502-3.053 2.17 0 4.212.883 6.05 2.63 1.306 1.232 2.483 2.906 3.55 4.965.129.24.257.497.368.736.128-.276.276-.57.423-.846 2.684-5.075 5.774-7.65 9.194-7.65 3.66 0 6.786 1.82 8.625 5.02a2.357 2.357 0 01-.883 3.237 2.357 2.357 0 01-3.236-.883c-.68-1.195-2.005-2.611-4.469-2.611-.68 0-2.538.496-4.947 5.057-1.563 2.942-2.464 5.977-2.482 6.014a2.394 2.394 0 01-2.299 1.728z"/>
	<path fill="#68BAFF" d="M24.093 41.263a2.41 2.41 0 01-1.158-.294c-.147-.092-3.715-2.096-7.724-5.26-5.517-4.376-9.03-8.698-10.427-12.835-.57-1.71-.846-3.457-.772-5.15a2.407 2.407 0 012.464-2.298 2.407 2.407 0 012.299 2.464c-.037 1.122.147 2.317.533 3.476 1.066 3.2 4.138 6.86 8.827 10.592 3.696 2.943 7.098 4.855 7.135 4.873a2.38 2.38 0 01.901 3.237 2.422 2.422 0 01-2.078 1.195z"/>
</symbol>
<symbol id="icon-live" viewBox="0 0 48 49">
	<path fill="#FF641A" d="M10.891 39.653c-.964 0-1.901-.365-2.57-1.096C4.25 34.145 2 28.298 2 22.137v-1.696c0-1.88 1.553-3.393 3.482-3.393 1.928 0 3.481 1.514 3.481 3.393v1.697c0 4.516 1.607 8.744 4.553 11.903 1.285 1.383 1.151 3.524-.268 4.777-.723.548-1.526.835-2.357.835z"/>
	<path fill="#FF641A" d="M13.623 42.107a3.496 3.496 0 01-2.09-.679 23.821 23.821 0 01-3.24-2.871c-1.285-1.384-1.151-3.524.268-4.777 1.42-1.253 3.616-1.148 4.901.261.696.757 1.446 1.41 2.25 2.01 1.526 1.122 1.848 3.237.696 4.725a3.599 3.599 0 01-2.785 1.331z"/>
	<path fill="#68BAFF" d="M23.988 45.5c-4.473 0-8.784-1.41-12.427-4.098-1.526-1.123-1.848-3.237-.696-4.725a3.523 3.523 0 014.847-.679c2.464 1.802 5.33 2.741 8.276 2.741 3.963 0 7.686-1.697 10.525-4.75 1.285-1.384 3.481-1.488 4.9-.262a3.324 3.324 0 01.242 4.777c-4.151 4.542-9.722 6.996-15.667 6.996z"/>
	<path fill="#6324FF" d="M37.082 39.653c-.83 0-1.66-.287-2.33-.861a3.348 3.348 0 01-.267-4.777c2.946-3.159 4.552-7.387 4.552-11.903v-1.697c0-1.88 1.554-3.393 3.482-3.393 1.928 0 3.482 1.514 3.482 3.393v1.697c0 6.186-2.25 12.033-6.32 16.419a3.625 3.625 0 01-2.599 1.122z"/>
	<path fill="#FF641A" d="M31.78 13.315c2.785 0 5.035-2.193 5.035-4.908 0-2.714-2.25-4.907-5.035-4.907s-5.035 2.193-5.035 4.907c0 2.741 2.25 4.908 5.035 4.908z"/>
	<path fill="#6324FF" d="M16.22 13.315c2.758 0 5.034-2.193 5.034-4.908 0-2.714-2.25-4.907-5.035-4.907s-5.034 2.193-5.034 4.907c0 2.741 2.25 4.908 5.034 4.908z"/>
</symbol>
<symbol id="icon-logo-edc" viewBox="0 0 69 34">
	<path fill="#17118B" d="M0 20.37c0-3.332 2.587-5.642 6.086-5.642 1.027 0 2.016.227 2.815.606v2.764c-.799-.492-1.56-.795-2.777-.795-1.826 0-3.233 1.287-3.233 3.067 0 1.817 1.407 3.066 3.31 3.066 1.064 0 2.015-.227 2.89-.87v2.802c-.837.454-1.902.681-3.005.681-3.461 0-6.086-2.31-6.086-5.68zM15.976 19.385c.76 0 1.255-.378 1.255-1.022 0-.643-.495-1.06-1.256-1.06h-2.168v2.082h2.168zm-4.983-4.43h5.135c2.434 0 3.918 1.402 3.918 3.37 0 1.401-.8 2.537-2.13 3.067l3.309 4.468H17.99l-3.08-4.165h-1.142v4.165h-2.814V14.956h.038zM36.401 14.956h2.435l4.755 5.982v-5.982h2.738v10.866h-2.32l-4.83-6.02v6.02H36.4V14.956zM48.27 20.37c0-3.332 2.586-5.642 6.085-5.642 1.028 0 2.017.227 2.815.606v2.764c-.799-.492-1.56-.795-2.776-.795-1.826 0-3.234 1.287-3.234 3.067 0 1.817 1.408 3.066 3.31 3.066 1.065 0 2.016-.227 2.89-.87v2.802c-.836.454-1.901.681-3.005.681-3.46 0-6.085-2.31-6.085-5.68zM59.263 14.956h2.776v3.861h4.147v-3.861H69v10.866h-2.814v-4.506h-4.147v4.506h-2.776V14.956zM27.158 23.474c-1.065 0-1.978-.567-1.978-2.044v-6.474h-2.814v6.323c0 3.142 2.13 4.77 4.792 4.77v-2.575zM29.707 23.474c1.065 0 1.978-.567 1.978-2.044v-6.474H34.5v6.323c0 3.142-2.13 4.77-4.793 4.77v-2.575zM15.025 8.443c2.13 0 3.347-1.098 3.347-2.99 0-1.894-1.217-2.992-3.347-2.992h-1.331v5.982h1.33zM10.84 0h4.374c3.576 0 6.048 2.234 6.048 5.452s-2.472 5.452-6.048 5.452h-4.374V0zM3.5 8.443v-1.78h5.477v-2.46H3.499V2.46h5.478V0H.685v10.866h8.292V8.443H3.499z"/>
	<path fill="#00A6D7" d="M27.159 29.91H.685v4.014h26.474v-4.013z"/>
</symbol>
<symbol id="icon-logo-footer" viewBox="0 0 265 61">
	<path fill="#000" d="M72.049 1.264h7.941c2.194-.05 4.37.404 6.359 1.326a9.678 9.678 0 014.192 3.82 11.124 11.124 0 011.47 5.791c0 3.665-1.075 6.438-3.226 8.319-2.15 1.881-5.136 2.82-8.954 2.816h-7.782V1.264zm8.255 17.363c1.92 0 3.392-.578 4.415-1.736 1.022-1.158 1.534-2.722 1.536-4.693 0-1.808-.512-3.296-1.536-4.464-1.025-1.168-2.432-1.752-4.224-1.752h-2.847V18.64l2.656-.013zM95.081 5.338a2.947 2.947 0 010-4.152 3.076 3.076 0 014.224 0 2.9 2.9 0 010 4.136 3.108 3.108 0 01-4.224.016zm-.664 2.84h5.568V23.33h-5.568V8.18zM108.224 30.306a12.43 12.43 0 01-2.64-.757v-3.851a14.288 14.288 0 005.694 1.073c1.538 0 2.651-.313 3.339-.939.687-.626 1.03-1.552 1.028-2.778v-.917a6.662 6.662 0 01-2.263 1.233 9.114 9.114 0 01-2.847.435 8.654 8.654 0 01-4.239-1.01 7.205 7.205 0 01-2.863-2.841 8.44 8.44 0 01-1.05-4.199 8.566 8.566 0 011.013-4.23 6.97 6.97 0 012.846-2.815 8.683 8.683 0 014.208-.992c2.172 0 3.964.662 5.377 1.987V8.19h5.38V22.3c0 2.632-.807 4.674-2.42 6.126-1.614 1.451-4.122 2.181-7.525 2.19a16.643 16.643 0 01-3.038-.31zm5.998-11.457a3.571 3.571 0 001.423-1.77v-2.65a3.646 3.646 0 00-1.458-1.752 4.128 4.128 0 00-2.276-.648 3.83 3.83 0 00-2.753.995 3.557 3.557 0 00-1.044 2.7 3.685 3.685 0 001.044 2.76 3.77 3.77 0 002.753 1.025 4.135 4.135 0 002.311-.66zM124.913 5.338a2.956 2.956 0 010-4.152 3.077 3.077 0 014.223 0 2.898 2.898 0 01.872 2.068 2.882 2.882 0 01-.872 2.068 3.107 3.107 0 01-4.223.016zm-.665 2.84h5.569V23.33h-5.569V8.18zM135.178 22.24c-.959-1.042-1.439-2.468-1.439-4.276v-5.922h-2.151V8.178h2.148V3.632h5.568v4.546h3.481v3.864h-3.481v5.178c0 .82.154 1.41.461 1.767.307.357.847.535 1.627.535a4.337 4.337 0 002.089-.566v4.136a7.53 7.53 0 01-1.756.55c-.757.128-1.524.186-2.292.176-1.875-.009-3.293-.534-4.255-1.577zM145.716 22.432c-1.173-.918-1.759-2.197-1.759-3.836 0-1.706.564-3.016 1.693-3.93 1.129-.913 2.748-1.37 4.857-1.373.829 0 1.657.09 2.467.266a9.18 9.18 0 012.12.71v-.313c0-1.616-1.329-2.425-3.985-2.427a11.934 11.934 0 00-5.095 1.073V8.779c.85-.369 1.743-.63 2.659-.776 1.128-.2 2.271-.3 3.417-.297 2.824 0 4.959.562 6.405 1.686 1.447 1.124 2.169 2.698 2.167 4.72v9.217h-5.22v-1.276a6.023 6.023 0 01-2.151 1.292 8.633 8.633 0 01-2.972.476c-1.9-.01-3.435-.474-4.603-1.39zM153.802 20c.516-.22.963-.575 1.295-1.026v-1.327a5.426 5.426 0 00-3.101-.917 2.694 2.694 0 00-1.706.476 1.67 1.67 0 00-.602 1.389 1.606 1.606 0 00.587 1.326 2.625 2.625 0 001.69.473 4.334 4.334 0 001.837-.394zM163.352 0h5.568v23.33h-5.568V0zM184.895 21.136c-1.687-1.777-2.53-4.128-2.53-7.055V1.254h5.612v12.88c0 1.473.396 2.589 1.188 3.348.792.76 1.883 1.138 3.273 1.136 1.393 0 2.478-.379 3.258-1.136.78-.757 1.171-1.873 1.173-3.348V1.264h5.599V14.09c0 2.947-.836 5.304-2.508 7.07-1.672 1.767-4.18 2.651-7.525 2.653-3.34-.006-5.853-.899-7.54-2.678zM206.757 23.442a10.285 10.285 0 01-3.163-1.026v-4.067a12.73 12.73 0 003.116 1.251c1.087.308 2.21.472 3.339.488a6.005 6.005 0 001.612-.156.626.626 0 00.508-.626.735.735 0 00-.333-.626 4.658 4.658 0 00-1.204-.503 77.017 77.017 0 00-2.009-.585 16.234 16.234 0 01-3.035-1.167 4.107 4.107 0 01-1.646-1.518 4.496 4.496 0 01-.537-2.302c0-1.642.648-2.868 1.944-3.68 1.296-.81 3.073-1.215 5.33-1.213 1.164.006 2.324.123 3.465.347a8.316 8.316 0 012.737.914v4.007a8.335 8.335 0 00-2.508-1.041c-.954-.262-1.937-.4-2.925-.41a5.388 5.388 0 00-1.678.203.75.75 0 00-.602.71c0 .313.201.557.602.726.702.257 1.421.466 2.151.626.674.169.959.24.853.222a12.44 12.44 0 013.135 1.198 3.966 3.966 0 011.568 1.564c.329.717.486 1.5.457 2.287.014.69-.152 1.371-.482 1.977a3.985 3.985 0 01-1.399 1.48c-1.254.856-3.073 1.282-5.458 1.28a21.481 21.481 0 01-3.838-.36zM221.991 22.24c-.959-1.042-1.439-2.468-1.439-4.276v-5.922h-2.163V8.178h2.154V3.632h5.568v4.546h3.48v3.864h-3.48v5.178c0 .82.15 1.41.458 1.767.307.357.849.535 1.627.535a4.336 4.336 0 002.091-.566v4.136a7.529 7.529 0 01-1.759.55c-.757.128-1.524.186-2.292.176-1.87-.009-3.285-.534-4.245-1.577zM232.526 22.432c-1.173-.918-1.758-2.197-1.756-3.836 0-1.706.564-3.016 1.693-3.93 1.129-.913 2.747-1.37 4.854-1.373.83 0 1.658.09 2.47.266.733.15 1.444.389 2.12.71v-.313c0-1.616-1.33-2.425-3.989-2.427a11.912 11.912 0 00-5.091 1.073V8.779c.849-.37 1.741-.63 2.655-.776 1.128-.2 2.272-.3 3.418-.297 2.824 0 4.959.562 6.405 1.686 1.447 1.124 2.17 2.698 2.17 4.72v9.217h-5.22v-1.276a6.071 6.071 0 01-2.154 1.292 8.624 8.624 0 01-2.973.476c-1.9-.01-3.434-.474-4.602-1.39zM240.609 20c.517-.22.965-.575 1.298-1.026v-1.327a5.435 5.435 0 00-3.101-.917 2.703 2.703 0 00-1.709.476 1.66 1.66 0 00-.602 1.389 1.605 1.605 0 00.586 1.326 2.63 2.63 0 001.693.473 4.337 4.337 0 001.835-.394zM249.529 20.3l7.211-8.271h-7.023V8.178h14.363v3.031l-7.149 8.269h7.403v3.851h-14.805v-3.028z"/>
	<path fill="#000" d="M80.273 32.69h5.493l8.826 22.069h-5.713l-1.771-4.549h-8.152l-1.772 4.546h-5.769l8.858-22.066zm5.443 13.228l-2.69-7.418-2.722 7.418h5.412zM96.82 31.42h5.563v23.33h-5.562V31.42zM105.236 39.595h5.155v1.642a6.783 6.783 0 012.194-1.564 6.38 6.38 0 012.625-.55 6.284 6.284 0 012.737.503 4.038 4.038 0 011.662 1.518 6.73 6.73 0 012.307-1.486 7.48 7.48 0 012.753-.535c2.004 0 3.429.51 4.273 1.53.845 1.02 1.263 2.488 1.254 4.404v9.699h-5.33v-8.91c0-.834-.157-1.445-.473-1.83-.316-.386-.843-.576-1.583-.57a2.936 2.936 0 00-2.311 1.01c.022.36.034.905.034 1.643v8.65h-5.295v-9.125c0-.776-.135-1.336-.411-1.671-.276-.335-.759-.507-1.455-.507-1.074 0-2.002.6-2.784 1.8v9.503h-5.33l-.022-15.154zM133.535 53.848c-1.173-.916-1.758-2.194-1.756-3.836 0-1.706.564-3.016 1.69-3.93 1.127-.913 2.746-1.37 4.857-1.373.831 0 1.659.09 2.47.27a8.978 8.978 0 012.12.71v-.313c0-1.621-1.33-2.431-3.988-2.431a11.916 11.916 0 00-5.092 1.073v-3.82a11.033 11.033 0 012.656-.773 18.992 18.992 0 013.417-.313c2.824 0 4.959.563 6.406 1.69 1.446 1.126 2.165 2.697 2.157 4.714v9.22h-5.208v-1.295a6.07 6.07 0 01-2.154 1.295 8.622 8.622 0 01-2.985.479c-1.881 0-3.411-.456-4.59-1.367zm8.083-2.431a3.17 3.17 0 001.298-1.026v-1.327a5.43 5.43 0 00-3.101-.913 2.701 2.701 0 00-1.709.472 1.67 1.67 0 00-.602 1.39 1.605 1.605 0 00.587 1.326 2.628 2.628 0 001.693.472 4.33 4.33 0 001.834-.394zM152.704 53.651c-.959-1.042-1.439-2.468-1.439-4.276V43.43h-2.151v-3.836h2.151V35.05h5.568v4.546h3.481v3.851h-3.481v5.178c0 .82.154 1.411.461 1.768.308.356.847.538 1.627.538a4.342 4.342 0 002.089-.57v4.136c-.56.256-1.15.441-1.756.55-.757.128-1.524.187-2.292.176-1.877-.004-3.296-.528-4.258-1.57zM163.888 60.846a5.776 5.776 0 01-1.643-.394v-4.126a5.411 5.411 0 002.088.378 2.584 2.584 0 001.627-.457c.444-.38.77-.878.941-1.436l.379-1.01-6.584-14.207h5.569l3.956 9.849 3.731-9.849h5.559l-6.27 15.85c-.736 1.891-1.677 3.29-2.822 4.198-1.146.907-2.616 1.36-4.412 1.358a16.865 16.865 0 01-2.119-.154z" opacity=".5"/>
	<path fill="#FF641A" d="M20.517 41.41a11.752 11.752 0 01-1.693-1.565 14.282 14.282 0 01-3.549-9.633v-1.767c0-2.021-.805-3.96-2.237-5.39a7.646 7.646 0 00-10.801 0A7.613 7.613 0 000 28.446v1.767c0 7.456 2.656 14.501 7.478 19.838l.018.016a27.01 27.01 0 003.863 3.523 7.651 7.651 0 0010.693-1.532 7.61 7.61 0 00-1.535-10.67v.022z"/>
	<path fill="#68BAFF" d="M26.462 58.685a25.064 25.064 0 01-15.106-5.081 7.628 7.628 0 01-2.981-5.019 7.61 7.61 0 011.448-5.652 7.642 7.642 0 018.006-2.815 7.647 7.647 0 012.688 1.285 9.887 9.887 0 005.958 2.036c2.837 0 5.549-1.273 7.637-3.585a7.648 7.648 0 0110.787-.558 7.611 7.611 0 01.56 10.764c-5.035 5.565-11.78 8.625-18.997 8.625z"/>
	<path fill="#6324FF" d="M39.771 52.584a7.653 7.653 0 01-4.158-1.233 7.61 7.61 0 01-1.514-11.49 14.282 14.282 0 003.55-9.633V28.46c0-2.021.804-3.96 2.236-5.389a7.646 7.646 0 0110.802 0 7.613 7.613 0 012.237 5.389v1.768a29.477 29.477 0 01-7.478 19.837 7.628 7.628 0 01-5.675 2.519z"/>
	<path fill="#FF641A" d="M45.349 15.271c4.067 0 7.365-3.29 7.365-7.348 0-4.06-3.298-7.35-7.365-7.35-4.068 0-7.365 3.29-7.365 7.35 0 4.058 3.297 7.348 7.365 7.348z"/>
	<path fill="#6324FF" d="M7.71 15.271c4.067 0 7.364-3.29 7.364-7.348 0-4.06-3.297-7.35-7.364-7.35-4.068 0-7.365 3.29-7.365 7.35 0 4.058 3.297 7.348 7.365 7.348z"/>
</symbol>
<symbol id="icon-logo" viewBox="0 0 172 40">
	<path fill="#000" d="M46.882.822h5.167a9.335 9.335 0 014.138.864 6.297 6.297 0 012.727 2.485 7.238 7.238 0 01.957 3.768c0 2.385-.7 4.19-2.099 5.413-1.4 1.224-3.342 1.835-5.827 1.832h-5.063V.822zm5.372 11.299c1.25 0 2.207-.377 2.872-1.13.665-.753.998-1.771 1-3.054 0-1.176-.334-2.145-1-2.905-.666-.76-1.582-1.14-2.748-1.14h-1.852v8.237l1.727-.008zM61.868 3.473a1.918 1.918 0 010-2.7 2.002 2.002 0 012.748 0 1.888 1.888 0 01.419 2.074c-.097.231-.24.44-.419.616a2.022 2.022 0 01-2.748.01zm-.432 1.849h3.623v9.859h-3.623V5.32zM70.42 19.72a8.092 8.092 0 01-1.718-.493v-2.506a9.299 9.299 0 003.705.699c1.001 0 1.725-.204 2.173-.611.448-.407.67-1.01.67-1.808v-.596c-.435.36-.935.633-1.474.802a5.928 5.928 0 01-1.852.283c-.96.02-1.91-.207-2.758-.658a4.688 4.688 0 01-1.863-1.848 5.487 5.487 0 01-.683-2.732 5.572 5.572 0 01.658-2.752 4.539 4.539 0 011.853-1.833 5.649 5.649 0 012.738-.645c1.413 0 2.58.431 3.499 1.293V5.33h3.5v9.18c0 1.713-.525 3.042-1.575 3.987-1.05.944-2.682 1.42-4.896 1.425a10.844 10.844 0 01-1.977-.202zm3.903-7.455c.426-.273.751-.678.926-1.152V9.389a2.371 2.371 0 00-.948-1.14 2.687 2.687 0 00-1.482-.422 2.492 2.492 0 00-1.79.648 2.312 2.312 0 00-.68 1.757 2.398 2.398 0 00.68 1.795 2.449 2.449 0 001.79.668 2.69 2.69 0 001.504-.43zM81.28 3.473a1.922 1.922 0 010-2.7 2.002 2.002 0 012.748 0 1.882 1.882 0 010 2.69 2.022 2.022 0 01-2.748.01zm-.432 1.849h3.623v9.859h-3.623V5.32zM87.96 14.472c-.625-.679-.937-1.606-.937-2.783V7.836h-1.4V5.32h1.398V2.364h3.623V5.32h2.265v2.515h-2.265v3.369c0 .533.1.918.3 1.15.2.232.551.348 1.059.348a2.82 2.82 0 001.359-.369v2.692a4.883 4.883 0 01-1.143.358 8.296 8.296 0 01-1.491.114c-1.22-.005-2.143-.348-2.768-1.026zM94.816 14.596c-.763-.597-1.144-1.429-1.144-2.496 0-1.11.367-1.962 1.102-2.557.734-.594 1.787-.892 3.16-.893.54 0 1.078.058 1.605.173.477.097.94.252 1.379.462V9.08c0-1.051-.864-1.578-2.593-1.58a7.766 7.766 0 00-3.315.699V5.712a7.225 7.225 0 011.73-.505c.734-.13 1.478-.195 2.224-.193 1.837 0 3.227.366 4.168 1.097.941.732 1.411 1.756 1.41 3.072v5.997h-3.397v-.83a3.917 3.917 0 01-1.4.84 5.62 5.62 0 01-1.934.31c-1.236-.007-2.234-.308-2.995-.904zm5.262-1.582c.336-.143.626-.374.842-.667v-.864a3.53 3.53 0 00-2.017-.596 1.751 1.751 0 00-1.11.31 1.083 1.083 0 00-.392.903 1.046 1.046 0 00.382.863c.32.226.708.334 1.1.308.412.003.82-.085 1.195-.257zM106.292 0h3.623v15.18h-3.623V0zM120.31 13.753c-1.098-1.156-1.646-2.686-1.646-4.59V.816h3.651v8.381c0 .959.258 1.685.774 2.179.515.494 1.225.74 2.129.739.906 0 1.613-.247 2.12-.74.507-.492.762-1.218.763-2.178V.823h3.644v8.346c0 1.918-.544 3.451-1.632 4.6-1.088 1.15-2.72 1.726-4.897 1.727-2.173-.004-3.808-.585-4.906-1.743zM134.535 15.254a6.697 6.697 0 01-2.058-.668V11.94a8.3 8.3 0 002.028.814c.707.2 1.438.306 2.173.317.352.014.705-.02 1.048-.101a.411.411 0 00.331-.408.478.478 0 00-.217-.407 3.03 3.03 0 00-.783-.327 49.09 49.09 0 00-1.308-.381 10.563 10.563 0 01-1.974-.76 2.677 2.677 0 01-1.072-.987 2.919 2.919 0 01-.348-1.498c0-1.068.421-1.866 1.264-2.394.844-.528 2-.791 3.469-.79.757.004 1.511.08 2.254.226a5.409 5.409 0 011.781.594v2.608a5.427 5.427 0 00-1.632-.678 7.48 7.48 0 00-1.904-.266 3.505 3.505 0 00-1.091.132.486.486 0 00-.392.462c0 .204.131.362.392.472.457.168.924.304 1.4.407.438.11.624.157.554.145a8.092 8.092 0 012.041.78c.429.236.783.589 1.02 1.018.214.466.316.975.297 1.488a2.579 2.579 0 01-1.224 2.25c-.816.555-2 .833-3.551.832a13.984 13.984 0 01-2.498-.234zM144.448 14.472c-.624-.679-.936-1.606-.936-2.783V7.836h-1.408V5.32h1.402V2.364h3.623V5.32h2.264v2.515h-2.264v3.369c0 .533.098.918.298 1.15.2.232.553.348 1.058.348a2.823 2.823 0 001.361-.369v2.692a4.888 4.888 0 01-1.144.358 8.303 8.303 0 01-1.492.114c-1.217-.005-2.138-.348-2.762-1.026zM151.303 14.596c-.763-.597-1.144-1.429-1.142-2.496 0-1.11.367-1.962 1.101-2.557.735-.594 1.787-.892 3.158-.893.541 0 1.08.058 1.608.173.477.098.94.253 1.379.462V9.08c0-1.051-.865-1.578-2.595-1.58a7.753 7.753 0 00-3.313.699V5.712a7.173 7.173 0 011.728-.505c.734-.13 1.478-.195 2.224-.193 1.837 0 3.226.366 4.168 1.097.941.732 1.411 1.756 1.411 3.072v5.997h-3.396v-.83a3.954 3.954 0 01-1.402.84 5.608 5.608 0 01-1.934.31c-1.236-.007-2.235-.308-2.995-.904zm5.26-1.582c.336-.143.628-.373.844-.667v-.864a3.534 3.534 0 00-2.018-.596 1.755 1.755 0 00-1.111.31 1.074 1.074 0 00-.392.903 1.042 1.042 0 00.381.863c.321.226.71.335 1.102.308.412.002.819-.085 1.194-.257zM162.367 13.21l4.692-5.383h-4.57V5.321h9.346v1.973l-4.652 5.38H172v2.506h-9.633v-1.97z"/>
	<path fill="#000" d="M52.233 21.271h3.574l5.743 14.36h-3.717l-1.152-2.96h-5.305l-1.152 2.958H46.47l5.763-14.358zm3.542 8.607l-1.75-4.827-1.772 4.827h3.522zM63 20.445h3.62v15.18H63v-15.18zM68.477 25.764h3.353v1.069a4.418 4.418 0 011.429-1.018 4.15 4.15 0 011.707-.358 4.09 4.09 0 011.781.327c.447.22.822.563 1.081.988.43-.422.94-.751 1.502-.967a4.865 4.865 0 011.791-.348c1.305 0 2.231.331 2.78.995.55.664.822 1.62.817 2.866v6.311H81.25v-5.798c0-.543-.103-.94-.308-1.19-.206-.252-.55-.375-1.03-.371a1.91 1.91 0 00-1.504.657c.014.235.022.589.022 1.07v5.628h-3.446v-5.938c0-.505-.087-.87-.267-1.087-.18-.218-.493-.33-.946-.33-.7 0-1.303.39-1.812 1.17v6.185h-3.468l-.014-9.861zM86.89 35.039c-.763-.596-1.143-1.428-1.142-2.496 0-1.11.367-1.963 1.1-2.557.733-.594 1.786-.892 3.16-.894.54 0 1.08.059 1.607.175.478.096.94.252 1.38.463v-.204c0-1.055-.866-1.582-2.596-1.582a7.753 7.753 0 00-3.313.698v-2.485a7.189 7.189 0 011.728-.503 12.369 12.369 0 012.224-.204c1.838 0 3.227.367 4.168 1.1.941.733 1.41 1.755 1.404 3.067v6H93.22v-.843a3.95 3.95 0 01-1.402.843 5.61 5.61 0 01-1.942.311c-1.224 0-2.22-.296-2.986-.89zm5.26-1.582c.336-.144.627-.374.844-.668v-.863a3.532 3.532 0 00-2.017-.594 1.758 1.758 0 00-1.112.307 1.083 1.083 0 00-.392.904 1.045 1.045 0 00.382.863c.32.226.71.334 1.102.307.411.003.819-.084 1.193-.256zM99.364 34.91c-.624-.678-.937-1.606-.937-2.782V28.26h-1.4v-2.496h1.4v-2.958h3.624v2.958h2.264v2.506h-2.264v3.37c0 .532.1.917.299 1.15.2.231.551.35 1.059.35a2.825 2.825 0 001.359-.371v2.691a4.79 4.79 0 01-1.142.358c-.493.083-.992.121-1.492.114-1.221-.002-2.145-.343-2.77-1.022zM106.641 39.593a3.763 3.763 0 01-1.069-.257v-2.685c.432.17.894.255 1.359.246.376.022.749-.082 1.058-.297.289-.247.501-.571.612-.934l.247-.658-4.284-9.244h3.623l2.575 6.408 2.428-6.408h3.617l-4.081 10.313c-.478 1.23-1.09 2.141-1.836 2.732-.745.59-1.702.885-2.87.883a10.971 10.971 0 01-1.379-.1z" opacity=".5"/>
	<path fill="#FF641A" d="M13.35 26.945a7.649 7.649 0 01-1.101-1.018 9.293 9.293 0 01-2.31-6.268v-1.15a4.954 4.954 0 00-1.455-3.507 4.975 4.975 0 00-7.028 0A4.954 4.954 0 000 18.51v1.15c0 4.851 1.728 9.436 4.866 12.908l.012.01A17.583 17.583 0 007.39 34.87a4.978 4.978 0 006.958-.997 4.951 4.951 0 00-.998-6.942v.014z"/>
	<path fill="#68BAFF" d="M17.218 38.186A16.31 16.31 0 017.39 34.88a4.964 4.964 0 01-1.94-3.266 4.952 4.952 0 01.943-3.678 4.973 4.973 0 015.21-1.831 4.975 4.975 0 011.748.835 6.434 6.434 0 003.877 1.326c1.846 0 3.61-.829 4.97-2.333a4.975 4.975 0 017.018-.363 4.955 4.955 0 01.365 7.003c-3.277 3.622-7.665 5.613-12.361 5.613z"/>
	<path fill="#6324FF" d="M25.879 34.216a4.98 4.98 0 01-2.706-.802 4.964 4.964 0 01-2.2-4.935c.151-.947.573-1.83 1.215-2.542a9.293 9.293 0 002.31-6.268v-1.15c0-1.315.523-2.577 1.455-3.507a4.975 4.975 0 017.029 0 4.954 4.954 0 011.455 3.507v1.15a19.181 19.181 0 01-4.865 12.908 4.965 4.965 0 01-3.693 1.64z"/>
	<path fill="#FF641A" d="M29.508 9.937A4.787 4.787 0 0034.3 5.155 4.787 4.787 0 0029.508.373a4.787 4.787 0 00-4.792 4.782 4.787 4.787 0 004.792 4.782z"/>
	<path fill="#6324FF" d="M5.017 9.937a4.787 4.787 0 004.792-4.782A4.787 4.787 0 005.017.373 4.787 4.787 0 00.225 5.155a4.787 4.787 0 004.792 4.782z"/>
</symbol>
<symbol id="icon-microphone" viewBox="0 0 48 49">
	<path fill="#FF641A" d="M36.358 28.897a1.351 1.351 0 00-.207-1.506 1.363 1.363 0 00-1.481-.372 1.367 1.367 0 00-.775.709 10.875 10.875 0 01-4.026 4.58 10.946 10.946 0 01-11.738 0 10.875 10.875 0 01-4.025-4.58 1.36 1.36 0 00-1.306-.789 1.37 1.37 0 00-.95.451 1.357 1.357 0 00-.207 1.507 13.626 13.626 0 004.423 5.291 13.71 13.71 0 006.457 2.46v5.912h-5.156a1.48 1.48 0 00-1.045.43 1.466 1.466 0 000 2.08c.277.275.653.43 1.045.43h13.267a1.48 1.48 0 001.044-.43 1.466 1.466 0 000-2.08 1.48 1.48 0 00-1.044-.43h-5.157v-5.911a13.711 13.711 0 006.458-2.46 13.626 13.626 0 004.423-5.292z"/>
	<path fill="#68BAFF" d="M22.523 42.56v-5.911h2.954v5.911h5.157c.391 0 .767.155 1.044.43a1.467 1.467 0 010 2.08 1.48 1.48 0 01-1.044.43H17.366a1.48 1.48 0 01-1.044-.43 1.466 1.466 0 010-2.08 1.48 1.48 0 011.044-.43h5.157z"/>
	<path fill="#4C29D3" d="M28.418 12.033h3.766v-.386c0-2.161-.862-4.233-2.397-5.76A8.203 8.203 0 0024 3.5c-2.17 0-4.252.858-5.787 2.386a8.128 8.128 0 00-2.397 5.76v.387h3.767a1.164 1.164 0 01.829 1.992c-.22.218-.518.341-.83.341h-3.766v1.867h3.767c.31 0 .609.123.829.341a1.164 1.164 0 01-.83 1.992h-3.766v1.867h3.767c.31 0 .609.123.829.341a1.164 1.164 0 01-.83 1.992h-3.766v.386c0 2.16.863 4.233 2.397 5.76A8.203 8.203 0 0024 31.3c2.17 0 4.253-.859 5.787-2.386a8.128 8.128 0 002.397-5.76v-.387h-3.766c-.311 0-.61-.123-.829-.342a1.164 1.164 0 01.829-1.991h3.766v-1.867h-3.766c-.311 0-.61-.123-.829-.342a1.164 1.164 0 01.829-1.991h3.766v-1.867h-3.766c-.311 0-.61-.123-.829-.342a1.164 1.164 0 01.829-1.991z"/>
</symbol>
<symbol id="icon-next-active" viewBox="0 0 20 30">
	<rect width="6.32" height="21.067" x="4.469" y="30" fill="#44BAFF" rx="3.16" transform="rotate(-135 4.469 30)"/>
	<rect width="6.32" height="21.067" y="4.469" fill="#FFF" rx="3.16" transform="rotate(-45 0 4.47)"/>
</symbol>
<symbol id="icon-next" viewBox="0 0 20 30">
	<rect width="6.32" height="21.067" x="4.469" y="30" fill="#4F52FF" rx="3.16" transform="rotate(-135 4.469 30)"/>
	<rect width="6.32" height="21.067" y="4.469" fill="#FF641A" rx="3.16" transform="rotate(-45 0 4.47)"/>
</symbol>
<symbol id="icon-ok" viewBox="0 0 32 32">
	<path fill="#FF641A" d="M16.015 13.26a2.739 2.739 0 002.739-2.764 2.744 2.744 0 00-2.753-2.751 2.75 2.75 0 00-2.76 2.785 2.745 2.745 0 002.774 2.73z"/>
	<path fill="#FF641A" d="M16 0C7.163 0 0 7.164 0 16s7.163 16 16 16 16-7.164 16-16S24.837 0 16 0zm.023 4.866c3.116.008 5.618 2.557 5.602 5.708-.016 3.079-2.558 5.573-5.67 5.563-3.08-.01-5.605-2.564-5.586-5.648.017-3.118 2.544-5.632 5.654-5.623zm6.312 13.485c-.689.708-1.518 1.22-2.44 1.577-.87.337-1.825.507-2.77.62.143.156.21.232.3.32 1.282 1.29 2.57 2.572 3.848 3.865.435.44.526.986.286 1.498-.262.56-.849.928-1.424.888-.365-.025-.65-.206-.902-.46-.968-.974-1.954-1.93-2.901-2.922-.277-.29-.409-.234-.653.017a193.478 193.478 0 01-2.957 2.97c-.447.44-.979.52-1.497.268-.551-.267-.902-.83-.875-1.395.02-.382.207-.675.47-.936 1.269-1.267 2.534-2.537 3.8-3.806.084-.085.162-.174.284-.305-1.726-.18-3.283-.605-4.615-1.647-.166-.13-.337-.255-.487-.4-.584-.56-.643-1.202-.181-1.863.395-.566 1.057-.717 1.746-.392.134.063.261.142.383.226 2.483 1.706 5.895 1.753 8.388.076.247-.189.511-.344.817-.422.595-.153 1.15.066 1.469.586.365.595.36 1.175-.089 1.637z"/>
</symbol>
<symbol id="icon-online" viewBox="0 0 48 49">
	<path fill="#44BAFF" d="M18.818 34.59c-.6 0-1.201-.226-1.67-.676a2.43 2.43 0 01-.094-3.436 9.667 9.667 0 017.039-3.022 9.598 9.598 0 016.832 2.835c.94.938.94 2.478 0 3.435-.938.938-2.477.938-3.435 0a4.802 4.802 0 00-3.397-1.408c-1.333 0-2.59.544-3.492 1.502a2.45 2.45 0 01-1.783.77z"/>
	<path fill="#FF641A" d="M12.962 27.062c-.601 0-1.202-.225-1.671-.676a2.431 2.431 0 01-.094-3.435 17.583 17.583 0 015.782-4.073 17.732 17.732 0 017.17-1.502c4.75 0 9.236 1.858 12.596 5.218.938.939.938 2.478 0 3.435-.939.94-2.478.94-3.435 0a12.894 12.894 0 00-9.16-3.791c-3.605 0-6.946 1.426-9.405 4.054a2.462 2.462 0 01-1.783.77z"/>
	<path fill="#6324FF" d="M6.43 19.704c-.601 0-1.202-.226-1.671-.676a2.431 2.431 0 01-.094-3.435c2.496-2.628 5.425-4.712 8.729-6.157a26.901 26.901 0 0110.85-2.271c7.207 0 13.965 2.796 19.052 7.884.939.938.939 2.477 0 3.435-.938.938-2.478.938-3.435 0-4.167-4.168-9.705-6.477-15.618-6.477-3.097 0-6.082.62-8.878 1.859-2.704 1.201-5.125 2.89-7.152 5.05-.507.525-1.145.788-1.784.788zM24.093 41.835a2.435 2.435 0 002.44-2.44 2.435 2.435 0 00-2.44-2.44 2.435 2.435 0 00-2.44 2.44 2.435 2.435 0 002.44 2.44z"/>
</symbol>
<symbol id="icon-prev-active" viewBox="0 0 20 30">
	<rect width="6.32" height="21.067" fill="#44BAFF" rx="3.16" transform="scale(1 -1) rotate(45 43.662 2.983)"/>
	<rect width="6.32" height="21.067" fill="#FFF" rx="3.16" transform="scale(-1 1) rotate(-45 -4.288 25.612)"/>
</symbol>
<symbol id="icon-prev" viewBox="0 0 20 30">
	<rect width="6.32" height="21.067" fill="#4F52FF" rx="3.16" transform="scale(1 -1) rotate(45 43.662 2.983)"/>
	<rect width="6.32" height="21.067" fill="#FF641A" rx="3.16" transform="scale(-1 1) rotate(-45 -4.288 25.612)"/>
</symbol>
<symbol id="icon-progress" viewBox="0 0 48 49">
	<path fill="#68BAFF" d="M16.603 29.727h-4.58a2 2 0 00-2 2V43.5a2 2 0 002 2h4.58a2 2 0 002-2V31.727a2 2 0 00-2-2z"/>
	<path fill="#FF641A" d="M27.283 25.082h-4.579a2 2 0 00-2 2V43.5a2 2 0 002 2h4.58a2 2 0 002-2V27.082a2 2 0 00-2-2z"/>
	<path fill="#4C29D3" d="M37.962 16.829h-4.58a2 2 0 00-2 2V43.5a2 2 0 002 2h4.58a2 2 0 002-2V18.83a2 2 0 00-2-2z"/>
	<path fill="#fff" d="M24.36 15.191a.5.5 0 00.85-.128L27.307 9.9a.5.5 0 00-.534-.683l-5.65.814a.5.5 0 00-.316.81l1.18 1.447-14.24 10.989a.92.92 0 001.124 1.456l14.28-11.018 1.208 1.477z"/>
	<path fill="#4C29D3" d="M39.709 6.586h-.889V5.383c0-1.038-.868-1.883-1.936-1.883h-2.421c-1.069 0-1.94.845-1.94 1.883v1.203h-.885c-.713 0-1.291.561-1.291 1.256v5.565c0 .691.578 1.253 1.29 1.253h8.072c.713 0 1.29-.562 1.29-1.253V7.842c0-.696-.577-1.256-1.29-1.256zm-2.181 0h-3.712V5.383a.64.64 0 01.647-.628h2.42c.356 0 .645.282.645.628v1.203z"/>
</symbol>
<symbol id="icon-snowflake" viewBox="0 0 48 49">
	<path fill="#FF6E3D" d="M24.01 18.526a2.472 2.472 0 01-2.478-2.478v-9.07A2.472 2.472 0 0124.01 4.5a2.472 2.472 0 012.477 2.477v9.071a2.472 2.472 0 01-2.477 2.478z"/>
	<path fill="#6324FF" d="M24.01 44.5a2.472 2.472 0 01-2.478-2.477V32.95a2.472 2.472 0 012.478-2.477 2.472 2.472 0 012.477 2.478v9.07A2.472 2.472 0 0124.01 44.5zM41.522 26.968h-9.071a2.472 2.472 0 01-2.477-2.477 2.472 2.472 0 012.477-2.478h9.071a2.472 2.472 0 012.477 2.478 2.472 2.472 0 01-2.477 2.477z"/>
	<path fill="#FF6E3D" d="M15.548 26.968h-9.07A2.472 2.472 0 014 24.49a2.472 2.472 0 012.477-2.478h9.071a2.472 2.472 0 012.478 2.478 2.472 2.472 0 01-2.478 2.477z"/>
	<path fill="#68BAFF" d="M29.994 20.984a2.455 2.455 0 01-1.735-.724 2.455 2.455 0 01-.724-1.734c0-.63.248-1.258.724-1.735l6.422-6.422c.953-.952 2.516-.952 3.488 0 .495.496.724 1.106.724 1.735 0 .628-.248 1.257-.724 1.734l-6.422 6.422a2.533 2.533 0 01-1.753.724zM11.622 39.355a2.455 2.455 0 01-1.734-.725 2.455 2.455 0 01-.724-1.734c0-.629.248-1.258.724-1.734l6.422-6.422c.953-.953 2.516-.953 3.488 0 .476.495.724 1.105.724 1.734s-.248 1.258-.724 1.734l-3.202 3.202-3.201 3.201a2.468 2.468 0 01-1.773.744z"/>
	<path fill="#6324FF" d="M18.044 20.984a2.455 2.455 0 01-1.734-.724l-6.422-6.422a2.455 2.455 0 01-.724-1.734c0-.63.248-1.258.724-1.735a2.485 2.485 0 013.488 0l6.422 6.422c.476.496.724 1.106.724 1.735 0 .628-.248 1.257-.724 1.734-.515.476-1.144.724-1.753.724z"/>
	<path fill="#FF6E3D" d="M36.397 39.355a2.455 2.455 0 01-1.735-.725l-3.201-3.201-3.202-3.202a2.455 2.455 0 01-.724-1.734c0-.629.248-1.258.724-1.734a2.485 2.485 0 013.488 0l3.201 3.202 3.202 3.201c.476.477.724 1.105.724 1.734 0 .63-.248 1.258-.724 1.734-.477.496-1.106.725-1.753.725z"/>
</symbol>
<symbol id="icon-snowflake2" viewBox="0 0 48 49">
	<path fill="#FF6E3D" d="M24.01 18.526a2.472 2.472 0 01-2.478-2.478v-9.07A2.472 2.472 0 0124.01 4.5a2.472 2.472 0 012.477 2.477v9.071a2.472 2.472 0 01-2.477 2.478z"/>
	<path fill="#6324FF" d="M24.01 44.5a2.472 2.472 0 01-2.478-2.477V32.95a2.472 2.472 0 012.478-2.477 2.472 2.472 0 012.477 2.478v9.07A2.472 2.472 0 0124.01 44.5zM41.522 26.968h-9.071a2.472 2.472 0 01-2.477-2.477 2.472 2.472 0 012.477-2.478h9.071a2.472 2.472 0 012.477 2.478 2.472 2.472 0 01-2.477 2.477z"/>
	<path fill="#FF6E3D" d="M15.548 26.968h-9.07A2.472 2.472 0 014 24.49a2.472 2.472 0 012.477-2.478h9.071a2.472 2.472 0 012.478 2.478 2.472 2.472 0 01-2.478 2.477z"/>
	<path fill="#fff" d="M29.994 20.984a2.455 2.455 0 01-1.735-.724 2.455 2.455 0 01-.724-1.734c0-.63.248-1.258.724-1.735l6.422-6.422c.953-.952 2.516-.952 3.488 0 .495.496.724 1.106.724 1.735 0 .628-.248 1.257-.724 1.734l-6.422 6.422a2.533 2.533 0 01-1.753.724zM11.622 39.355a2.455 2.455 0 01-1.734-.725 2.455 2.455 0 01-.724-1.734c0-.629.248-1.258.724-1.734l6.422-6.422c.953-.953 2.516-.953 3.488 0 .476.495.724 1.105.724 1.734s-.248 1.258-.724 1.734l-3.202 3.202-3.201 3.201a2.468 2.468 0 01-1.773.744z"/>
	<path fill="#6324FF" d="M18.044 20.984a2.455 2.455 0 01-1.734-.724l-6.422-6.422a2.455 2.455 0 01-.724-1.734c0-.63.248-1.258.724-1.735a2.485 2.485 0 013.488 0l6.422 6.422c.476.496.724 1.106.724 1.735 0 .628-.248 1.257-.724 1.734-.515.476-1.144.724-1.753.724z"/>
	<path fill="#FF6E3D" d="M36.397 39.355a2.455 2.455 0 01-1.735-.725l-3.201-3.201-3.202-3.202a2.455 2.455 0 01-.724-1.734c0-.629.248-1.258.724-1.734a2.485 2.485 0 013.488 0l3.201 3.202 3.202 3.201c.476.477.724 1.105.724 1.734 0 .63-.248 1.258-.724 1.734-.477.496-1.106.725-1.753.725z"/>
</symbol>
<symbol id="icon-star" viewBox="0 0 48 49">
	<path fill="#44BAFF" d="M32.697 31.912c-.652 0-1.303-.26-1.782-.8-.938-1.038-.919-2.657.077-3.656l5.19-5.215-7.125-1.118c-1.36-.22-2.279-1.519-2.068-2.938.21-1.418 1.456-2.377 2.816-2.157l12.085 1.918c.938.14 1.704.839 1.992 1.778.287.94.038 1.958-.632 2.637l-8.81 8.832c-.518.48-1.15.719-1.743.719z"/>
	<path fill="#FF641A" d="M34.67 44.5c-.402 0-.805-.1-1.169-.3L22.72 38.186c-1.207-.659-1.667-2.237-1.016-3.496.633-1.259 2.146-1.738 3.352-1.06l6.34 3.537-1.169-7.412c-.23-1.419.69-2.738 2.05-2.977 1.36-.24 2.624.719 2.853 2.138l1.992 12.567c.154.96-.23 1.958-.996 2.518-.44.34-.938.499-1.455.499zM29.403 21.163c-.919 0-1.8-.54-2.221-1.459l-3.141-6.753-3.218 6.714c-.613 1.278-2.107 1.798-3.333 1.138-1.225-.639-1.723-2.197-1.091-3.476l5.477-11.409A2.463 2.463 0 0124.098 4.5h.02c.938.02 1.8.58 2.221 1.458l5.344 11.469c.593 1.279.076 2.837-1.15 3.456-.383.2-.747.28-1.13.28z"/>
	<path fill="#4C29D3" d="M15.172 31.793c-.632 0-1.264-.24-1.742-.74l-8.696-8.95c-.67-.7-.9-1.719-.613-2.658.288-.939 1.073-1.618 2.011-1.738l12.105-1.758c1.36-.2 2.605.799 2.796 2.197.192 1.419-.766 2.718-2.107 2.918l-7.124 1.038 5.133 5.275c.976 1 .995 2.638.019 3.657-.498.519-1.13.759-1.782.759z"/>
	<path fill="#44BAFF" d="M13.027 44.36c-.517 0-1.034-.16-1.474-.5-.767-.58-1.13-1.579-.958-2.538l2.145-12.547c.249-1.399 1.532-2.338 2.873-2.098 1.34.26 2.24 1.598 2.01 2.997l-1.263 7.393 6.397-3.457c1.206-.66 2.7-.16 3.332 1.099.633 1.259.154 2.817-1.053 3.476l-10.86 5.855c-.364.22-.766.32-1.149.32z"/>
</symbol>
<symbol id="icon-team" viewBox="0 0 48 49">
	<path fill="#4C29D3" d="M17.262 21.27v-.064a2.078 2.078 0 013.63-1.332c.083-.087.173-.168.268-.242.014-.102.035-.202.065-.3a2.314 2.314 0 01-1.37-1.026 2.084 2.084 0 01.666-2.776.536.536 0 01.226-.145l2.18-1.267-1.487-.86-1.692-.977a.537.537 0 11.537-.929l1.692.977a1.014 1.014 0 001.014-1.755l-4.027-2.325a5.246 5.246 0 00-4.961-.167l-2.234 1.106a.536.536 0 01-.505 0L9.046 7.905l-2.04 3.555-2.057 3.565 2.218 1.278a.537.537 0 01.177.172L8.51 18.23a5.261 5.261 0 001.756 1.648l6.98 4.038.017-2.647zM7.15 5l-5.665 9.812 1.758 1.015 5.665-9.812L7.15 5z"/>
	<path fill="#FF641A" d="M38.935 7.91l-2.218 1.284a.505.505 0 01-.236.07l-2.1.128a5.284 5.284 0 00-2.309.698L21.166 16.39a1.015 1.015 0 00-.376 1.38 1.073 1.073 0 001.209.489l.182-.118 4.65-2.685a.537.537 0 01.537.929l-4.79 2.781h-.026a2.064 2.064 0 011.45.709 2.08 2.08 0 011.551-.693c.25 0 .498.048.73.14L28.529 18a.537.537 0 01.537.923l-.446.264h.027a2.09 2.09 0 012.084 2.088v2.685l1.466-.848 1.691-.977a.538.538 0 11.537.928l-1.68.962a1.014 1.014 0 001.014 1.756l4.027-2.325a5.246 5.246 0 002.626-4.216l.156-2.48a.537.537 0 01.269-.436l2.217-1.278-2.056-3.565-2.062-3.57zM40.85 5.018l-1.758 1.015 5.665 9.812 1.758-1.014-5.665-9.813z"/>
	<path fill="#68BAFF" d="M28.657 20.255a1.074 1.074 0 00-1.026.8v5.805a.537.537 0 01-1.074 0v-5.762a1.006 1.006 0 00-.445-.676l-.07-.038a.951.951 0 00-.484-.134 1.016 1.016 0 00-1.02 1.02v5.681a.537.537 0 01-1.074 0V21.27a1.015 1.015 0 00-1.015-1.015.95.95 0 00-.483.134.327.327 0 01-.075.038 1 1 0 00-.456.843v5.37a.537.537 0 01-1.075 0v-5.37a1.013 1.013 0 00-1.417-1.004 1.015 1.015 0 00-.607 1.004v8.162a.537.537 0 11-1.074 0v-1.955a1.015 1.015 0 10-2.03 0v4.65a5.263 5.263 0 002.326 4.382l2.072 1.38a.537.537 0 01.242.446v2.561h8.248v-2.534a.614.614 0 01.053-.242l.94-1.906a5.25 5.25 0 00.537-2.347V21.27a1.015 1.015 0 00-.993-1.015zM19.345 41.97h-1.01V44h11.331v-2.03h-10.32z"/>
</symbol>
<symbol id="icon-thesis" viewBox="0 0 58 14">
	<path fill="#373333" d="M3.235 3.615H0V.839h9.366v2.773H6.094v10.185h-2.86V3.615zM10.992 13.8V.112h2.699v5.493c.43-.64 1.323-1.13 2.484-1.13 2.2 0 3.468 1.66 3.468 4.052v5.275h-2.698V9c0-1.26-.464-2.026-1.447-2.026-1.018 0-1.805.73-1.805 2.39V13.8h-2.7zM21.019 9.217c0-2.738 2.02-4.746 4.736-4.746 2.592 0 4.863 1.808 4.774 5.402h-6.881c.089.93.786 1.752 2.251 1.752.787 0 1.502-.365 1.715-.857h2.825C29.87 12.667 28.01 14 25.755 14c-2.77 0-4.736-2.008-4.736-4.783zm2.698-1.095h3.825c-.285-1.095-1.161-1.46-1.859-1.46-1.072 0-1.733.638-1.966 1.46zM31.653 10.824h2.843c.054.73.643 1.095 1.412 1.095.698 0 1-.238 1-.583 0-.42-.322-.565-1.017-.766l-1.805-.474c-1.574-.42-2.252-1.495-2.252-2.866 0-1.587 1.376-2.756 3.737-2.756 1.966 0 3.557 1.022 3.701 2.958h-2.718c-.124-.674-.554-.839-1.038-.839-.554 0-.911.218-.911.583 0 .474.482.621.911.713l1.626.438c1.805.492 2.52 1.404 2.52 2.867 0 1.698-1.609 2.811-3.843 2.811-2.43-.005-4.076-1.392-4.166-3.181zM40.625 1.716c0-.948.77-1.716 1.68-1.716.949 0 1.699.766 1.699 1.716a1.7 1.7 0 01-1.698 1.716c-.911 0-1.681-.768-1.681-1.716zm.34 2.956h2.698v9.125h-2.698V4.672zM44.97 10.824h2.842c.055.73.643 1.095 1.413 1.095.697 0 1-.238 1-.583 0-.42-.323-.565-1.018-.766l-1.804-.474c-1.574-.42-2.252-1.495-2.252-2.866 0-1.587 1.375-2.756 3.736-2.756 1.966 0 3.557 1.022 3.701 2.958h-2.715c-.124-.674-.554-.839-1.038-.839-.554 0-.911.218-.911.583 0 .474.481.621.91.713l1.627.438c1.805.492 2.52 1.404 2.52 2.867 0 1.698-1.609 2.811-3.843 2.811-2.435-.005-4.079-1.392-4.168-3.181z"/>
	<path fill="#FF641A" d="M54.175 11.992c0-1.077.859-1.954 1.914-1.954S58 10.915 58 11.992c0 1.078-.859 1.952-1.911 1.952-1.055 0-1.914-.874-1.914-1.952z"/>
</symbol>
<symbol id="icon-vk" viewBox="0 0 32 32">
	<path fill="#68BAFF" d="M16 0C7.164 0 0 7.163 0 16s7.164 16 16 16 16-7.163 16-16S24.836 0 16 0zm8.116 17.73c.746.729 1.535 1.414 2.204 2.218.297.356.576.723.79 1.137.303.59.029 1.236-.5 1.27h-3.277c-.847.07-1.52-.271-2.088-.85-.454-.461-.874-.954-1.311-1.43a3.067 3.067 0 00-.59-.526c-.447-.29-.835-.202-1.091.265-.261.475-.32 1.002-.346 1.53-.035.773-.268.975-1.044 1.011-1.657.078-3.23-.173-4.69-1.009-1.29-.737-2.288-1.777-3.157-2.954-1.693-2.296-2.99-4.815-4.155-7.407-.262-.584-.07-.896.573-.908 1.07-.02 2.14-.018 3.21-.001.435.007.723.256.89.667.579 1.422 1.287 2.776 2.175 4.03.237.335.479.668.823.904.38.26.669.175.848-.25.115-.269.164-.557.189-.845.085-.99.095-1.978-.052-2.963-.092-.617-.438-1.015-1.053-1.131-.313-.06-.267-.175-.115-.354.264-.31.512-.5 1.006-.5h3.704c.584.114.715.375.794.963l.003 4.116c-.007.228.114.902.523 1.051.327.108.543-.154.74-.362.887-.942 1.52-2.055 2.087-3.206.25-.508.466-1.033.675-1.56.156-.389.398-.58.837-.574l3.567.005c.105 0 .212 0 .316.018.6.103.765.362.58.948-.293.921-.862 1.689-1.418 2.458-.596.824-1.23 1.619-1.82 2.446-.543.756-.5 1.137.173 1.793z"/>
</symbol>
</svg>