<svg width="69" height="34" viewBox="0 0 69 34" fill="none" xmlns="http://www.w3.org/2000/svg">
<path d="M0 20.3697C0 17.0378 2.58655 14.7283 6.086 14.7283C7.11301 14.7283 8.10198 14.9554 8.90077 15.3341V18.098C8.10198 17.6058 7.34123 17.3029 6.12404 17.3029C4.29824 17.3029 2.89085 18.5902 2.89085 20.3697C2.89085 22.1871 4.29824 23.4365 6.20011 23.4365C7.26516 23.4365 8.2161 23.2093 9.09096 22.5657V25.3675C8.25413 25.8218 7.18908 26.049 6.086 26.049C2.62459 26.049 0 23.7394 0 20.3697Z" fill="#17118B"/>
<path d="M15.9755 19.3854C16.7363 19.3854 17.2308 19.0068 17.2308 18.3631C17.2308 17.7195 16.7363 17.303 15.9755 17.303H13.8074V19.3854H15.9755ZM10.9926 14.9556H16.1277C18.5621 14.9556 20.0456 16.3565 20.0456 18.3253C20.0456 19.7262 19.2468 20.862 17.9154 21.3921L21.2247 25.8598H17.9915L14.9105 21.695H13.7694V25.8598H10.9546V14.9556H10.9926Z" fill="#17118B"/>
<path d="M36.4014 14.9556H38.8358L43.5905 20.9377V14.9556H46.3292V25.8219H44.0089L39.1781 19.8019V25.8219H36.4014V14.9556Z" fill="#17118B"/>
<path d="M48.2695 20.3697C48.2695 17.0378 50.8561 14.7283 54.3555 14.7283C55.3825 14.7283 56.3715 14.9554 57.1703 15.3341V18.098C56.3715 17.6058 55.6108 17.3029 54.3936 17.3029C52.5678 17.3029 51.1604 18.5902 51.1604 20.3697C51.1604 22.1871 52.5678 23.4365 54.4696 23.4365C55.5347 23.4365 56.4856 23.2093 57.3605 22.5657V25.3675C56.5237 25.8218 55.4586 26.049 54.3555 26.049C50.8941 26.049 48.2695 23.7394 48.2695 20.3697Z" fill="#17118B"/>
<path d="M59.2627 14.9556H62.0394V18.8175H66.1855V14.9556H69.0003V25.8219H66.1855V21.3164H62.0394V25.8219H59.2627V14.9556Z" fill="#17118B"/>
<path d="M27.1584 23.4745C26.0934 23.4745 25.1805 22.9066 25.1805 21.43V14.9556H22.3657V21.2785C22.3657 24.421 24.4958 26.0491 27.1584 26.0491V23.4745Z" fill="#17118B"/>
<path d="M29.707 23.4745C30.7721 23.4745 31.685 22.9066 31.685 21.43V14.9556H34.4998V21.2785C34.4998 24.421 32.3697 26.0491 29.707 26.0491V23.4745Z" fill="#17118B"/>
<path d="M15.0249 8.44321C17.155 8.44321 18.3722 7.34521 18.3722 5.45212C18.3722 3.55902 17.155 2.46102 15.0249 2.46102H13.6936V8.44321H15.0249ZM10.8408 0H15.2151C18.7907 0 21.2631 2.23385 21.2631 5.45212C21.2631 8.67038 18.7907 10.9042 15.2151 10.9042H10.8408V0Z" fill="#17118B"/>
<path d="M3.49934 8.44321V6.6637H8.97674V4.20267H3.49934V2.46102H8.97674V0H0.68457V10.8664H8.97674V8.44321H3.49934Z" fill="#17118B"/>
<path d="M27.1587 29.9109H0.68457V33.9243H27.1587V29.9109Z" fill="#00A6D7"/>
</svg>
