<svg width="24" height="24" viewBox="0 0 24 24" fill="none" xmlns="http://www.w3.org/2000/svg">
<g clip-path="url(#clip0close)">
<path fill-rule="evenodd" clip-rule="evenodd" d="M5.07107 5.07102C4.68054 5.46155 4.68054 6.09471 5.07107 6.48524L10.7279 12.1421L5.07107 17.7989C4.68054 18.1895 4.68054 18.8226 5.07107 19.2132C5.46159 19.6037 6.09476 19.6037 6.48528 19.2132L12.1421 13.5563L17.799 19.2132C18.1895 19.6037 18.8227 19.6037 19.2132 19.2132C19.6037 18.8226 19.6037 18.1895 19.2132 17.7989L13.5563 12.1421L19.2132 6.48524C19.6037 6.09471 19.6037 5.46155 19.2132 5.07102C18.8227 4.6805 18.1895 4.6805 17.799 5.07102L12.1421 10.7279L6.48528 5.07102C6.09476 4.6805 5.46159 4.6805 5.07107 5.07102Z" fill="#858585"/>
</g>
<defs>
<clipPath id="clip0close">
<rect width="24" height="24" fill="white"/>
</clipPath>
</defs>
</svg>
