<svg width="85" height="17" viewBox="0 0 85 17" fill="none" xmlns="http://www.w3.org/2000/svg">
<path d="M0.806641 10.5139L1.98595 10.0483L2.23422 10.638L2.82388 10.4208L3.04112 11.0104L6.02043 9.83109L6.23767 10.4208L18.7135 5.54834L18.9618 6.13799L19.5515 5.88972L19.7687 6.51041L20.3584 6.26213L20.6066 6.85179L21.1963 6.63455L21.4135 7.2242L22.0342 6.97593L22.4997 8.15523L21.8791 8.40352L22.1273 8.99317L23.3066 8.52765L24.0204 10.2966L22.8101 10.7621L23.0584 11.3828L20.6687 12.3139L21.1342 13.4932L15.2066 15.8208L14.7411 14.6414L11.1722 16.038L10.7066 14.8276L8.34802 15.7587L7.8825 14.5794L6.70319 15.0449L6.23767 13.8656L5.02733 14.3311L4.56181 13.1518L3.3825 13.6173L2.69974 11.8173L2.07905 12.0656L1.86181 11.4759L1.27216 11.6932L0.806641 10.5139Z" fill="#D92819"/>
<path d="M12.8789 9.89326L13.1272 10.4829L13.7168 10.2346L13.9341 10.8243L15.1444 10.3588L15.3927 10.9484L17.7513 10.0484L17.5341 9.42774L18.6824 8.96223L18.4651 8.37257L19.0548 8.15533L18.8065 7.56567L12.8789 9.89326Z" fill="white"/>
<path d="M22.0341 6.97589L24.9824 5.82761L24.7651 5.23796L25.3548 4.98969L25.1065 4.40002L25.6961 4.15175L25.4789 3.5621L26.0686 3.34485L25.8513 2.7552L26.441 2.50693L25.7272 0.737959L27.5272 0.0241699L28.2099 1.82417L27.6203 2.04141L27.8375 2.63106L27.2479 2.87934L27.4962 3.46899L26.9065 3.71727L27.1237 4.30692L26.5341 4.52417L26.7824 5.11382L26.1617 5.36209L26.4099 5.95175L25.8203 6.16899L26.0375 6.75865L25.4479 7.00693L25.6961 7.59658L24.4858 8.0621L24.7341 8.65175L24.1444 8.90002L24.3617 9.48969L23.772 9.70692L23.3375 8.52762L22.1272 8.99313L21.8789 8.40348L22.4996 8.1552L22.0341 6.97589Z" fill="#8AC200"/>
<path d="M32.6475 7.13103V12.469H34.4475V14.2379H37.9854V12.469H39.7544V10.7H37.9854V12.469H34.4475V7.13103H37.9854V8.93103H39.7544V7.13103H37.9854V5.36206H34.4475V7.13103H32.6475Z" fill="#D92819"/>
<path d="M41.5234 1.82422H43.2924V7.13112H46.8614V8.93111H48.6303V14.238H46.8614V8.93111H43.2924V14.238H41.5234V1.82422Z" fill="#D92819"/>
<path d="M38.8543 7.1311H37.9854V8.0311V8.9311H38.8543H39.7543V8.0311V7.1311H38.8543Z" fill="#D92819"/>
<path d="M61.9439 12.469H61.0439V13.338V14.238H61.9439H62.8129V13.338V12.469H61.9439Z" fill="#32A712"/>
<path d="M50.3994 1.82422V2.72422V3.62422H52.1684V1.82422H50.3994ZM50.3994 14.238H52.1684V5.36215H50.3994V14.238Z" fill="#D92819"/>
<path d="M55.7055 1.82422H53.9365V14.238H55.7055V1.82422Z" fill="#D92819"/>
<path d="M58.3746 1.82422H57.4746V2.72422V3.62422H58.3746H59.2746V2.72422V1.82422H58.3746ZM57.5056 14.238H59.2746V5.36215H57.5056V14.238Z" fill="#D92819"/>
<path d="M66.351 1.82422H64.582V14.238H66.351V1.82422Z" fill="black"/>
<path d="M69.9203 5.36206V7.13103H73.4583V5.36206H69.9203ZM73.4583 7.13103V10.669H69.9203V7.19309H68.1514V14.2069H69.9203V12.4379H73.4583V14.2069H75.2272V7.09999H73.4583V7.13103Z" fill="black"/>
<path d="M78.7953 7.13112H82.3333V5.36215H78.7953V1.82422H77.0264V14.238H82.3333V12.469H78.7953V7.13112ZM82.3333 7.13112V12.438H84.1022V7.13112H82.3333Z" fill="black"/>
</svg>
