<svg width="265" height="61" viewBox="0 0 265 61" fill="none" xmlns="http://www.w3.org/2000/svg">
<path d="M72.0488 1.26394H79.9905C82.1838 1.21422 84.3593 1.66807 86.3489 2.59044C88.0972 3.41736 89.5572 4.74784 90.5408 6.41037C91.55 8.17116 92.0584 10.1734 92.0112 12.2013C92.0112 15.8658 90.9358 18.6387 88.785 20.52C86.6342 22.4013 83.6494 23.3399 79.8306 23.3357H72.0488V1.26394ZM80.3041 18.6273C82.2249 18.6273 83.6964 18.0485 84.7186 16.8909C85.7407 15.7334 86.2528 14.1691 86.2548 12.1981C86.2548 10.3899 85.7427 8.90172 84.7186 7.73374C83.6944 6.56576 82.2866 5.98176 80.4953 5.98176H77.6485V18.6398L80.3041 18.6273Z" fill="black"/>
<path d="M95.0812 5.33797C94.5331 4.78556 94.2256 4.03959 94.2256 3.26219C94.2256 2.4848 94.5331 1.73882 95.0812 1.18641C95.6518 0.64779 96.4074 0.347656 97.1929 0.347656C97.9783 0.347656 98.7339 0.64779 99.3045 1.18641C99.5796 1.45632 99.7981 1.77819 99.9472 2.13323C100.096 2.48827 100.173 2.8694 100.173 3.25437C100.173 3.63935 100.096 4.02046 99.9472 4.37551C99.7981 4.73055 99.5796 5.05242 99.3045 5.32233C98.7324 5.85616 97.9792 6.15443 97.1959 6.15733C96.4127 6.16023 95.6573 5.86755 95.0812 5.33797ZM94.4166 8.17867H99.9849V23.3301H94.4166V8.17867Z" fill="black"/>
<path d="M108.224 30.306C107.319 30.1519 106.433 29.898 105.584 29.5489V25.6977C107.388 26.4404 109.326 26.8056 111.278 26.7708C112.816 26.7708 113.929 26.4579 114.617 25.8322C115.304 25.2065 115.647 24.2805 115.645 23.0541V22.1374C114.978 22.6918 114.209 23.1105 113.382 23.3701C112.462 23.665 111.501 23.8118 110.535 23.8049C109.058 23.835 107.599 23.4871 106.296 22.7944C105.09 22.1388 104.097 21.1533 103.433 19.9537C102.724 18.669 102.362 17.222 102.383 15.7552C102.351 14.2819 102.7 12.8252 103.396 11.5255C104.048 10.3295 105.038 9.35056 106.242 8.70981C107.538 8.02984 108.986 7.68863 110.45 7.71806C112.622 7.71806 114.414 8.38027 115.827 9.70468V8.19047H121.207V22.3001C121.207 24.9322 120.4 26.9741 118.787 28.4258C117.173 29.8774 114.665 30.6074 111.262 30.6157C110.242 30.6058 109.225 30.5021 108.224 30.306ZM114.222 18.8494C114.877 18.4294 115.376 17.8077 115.645 17.0786V14.4288C115.359 13.7043 114.848 13.0902 114.187 12.6768C113.508 12.2436 112.717 12.0184 111.911 12.0292C111.409 12.0063 110.908 12.0824 110.435 12.2532C109.963 12.4239 109.529 12.6858 109.158 13.024C108.804 13.3758 108.528 13.798 108.348 14.2632C108.168 14.7283 108.089 15.226 108.114 15.724C108.089 16.2308 108.168 16.7374 108.348 17.2122C108.528 17.687 108.804 18.1197 109.158 18.4833C109.525 18.8299 109.957 19.0994 110.43 19.2757C110.903 19.452 111.407 19.5315 111.911 19.5095C112.73 19.5231 113.534 19.2933 114.222 18.8494Z" fill="black"/>
<path d="M124.913 5.33797C124.367 4.78477 124.06 4.03909 124.06 3.26219C124.06 2.4853 124.367 1.73961 124.913 1.18641C125.484 0.64779 126.239 0.347656 127.025 0.347656C127.81 0.347656 128.566 0.64779 129.136 1.18641C129.412 1.45589 129.631 1.77761 129.781 2.13271C129.931 2.48782 130.008 2.86916 130.008 3.25437C130.008 3.63959 129.931 4.02093 129.781 4.37603C129.631 4.73114 129.412 5.05285 129.136 5.32233C128.564 5.85616 127.811 6.15443 127.028 6.15733C126.245 6.16023 125.489 5.86755 124.913 5.33797ZM124.248 8.17867H129.817V23.3301H124.248V8.17867Z" fill="black"/>
<path d="M135.178 22.2408C134.219 21.1979 133.739 19.7724 133.739 17.9641V12.0418H131.588V8.17807H133.736V3.63232H139.304V8.17807H142.785V12.0418H139.304V17.2195C139.304 18.0392 139.458 18.6305 139.765 18.9871C140.072 19.3438 140.612 19.5221 141.392 19.5221C142.125 19.5129 142.844 19.318 143.481 18.9558V23.0918C142.92 23.3466 142.33 23.5315 141.725 23.6424C140.968 23.7696 140.201 23.8282 139.433 23.8176C137.558 23.8092 136.14 23.2836 135.178 22.2408Z" fill="black"/>
<path d="M145.716 22.4316C144.543 21.5139 143.957 20.2354 143.957 18.596C143.957 16.8899 144.521 15.5801 145.65 14.6666C146.779 13.7531 148.398 13.2952 150.507 13.2932C151.336 13.2932 152.164 13.3824 152.974 13.5591C153.707 13.7086 154.419 13.9471 155.094 14.2693V13.9564C155.094 12.34 153.765 11.5308 151.109 11.5287C149.352 11.5071 147.612 11.8736 146.014 12.6018V8.7787C146.864 8.41017 147.757 8.14951 148.673 8.00282C149.801 7.80247 150.944 7.70301 152.09 7.70562C154.914 7.70562 157.049 8.2677 158.495 9.39189C159.942 10.5161 160.664 12.0897 160.662 14.1128V23.3295H155.442V22.053C154.824 22.6298 154.091 23.07 153.291 23.3451C152.336 23.6764 151.33 23.8374 150.319 23.8207C148.419 23.8102 146.884 23.3472 145.716 22.4316ZM153.802 20.0007C154.318 19.7804 154.765 19.4261 155.097 18.9746V17.6481C154.181 17.0346 153.099 16.7148 151.996 16.7314C151.39 16.693 150.789 16.8607 150.29 17.2069C150.087 17.3745 149.927 17.5878 149.822 17.8293C149.717 18.0707 149.672 18.3335 149.688 18.596C149.675 18.8475 149.722 19.0984 149.824 19.3288C149.925 19.5591 150.08 19.7625 150.275 19.9225C150.767 20.2691 151.364 20.4359 151.965 20.3949C152.599 20.3994 153.226 20.2648 153.802 20.0007Z" fill="black"/>
<path d="M163.352 0H168.92V23.3294H163.352V0Z" fill="black"/>
<path d="M184.895 21.1362C183.208 19.3592 182.365 17.0076 182.365 14.0813V1.25439H187.977V14.1345C187.977 15.607 188.373 16.7229 189.165 17.4821C189.957 18.2413 191.048 18.6198 192.438 18.6177C193.831 18.6177 194.916 18.2392 195.696 17.4821C196.476 16.725 196.867 15.6091 196.869 14.1345V1.26378H202.468V14.0907C202.468 17.0378 201.632 19.3946 199.96 21.1612C198.288 22.9278 195.78 23.8121 192.435 23.8142C189.095 23.8079 186.582 22.9153 184.895 21.1362Z" fill="black"/>
<path d="M206.757 23.4421C205.654 23.2738 204.585 22.9272 203.594 22.416V18.3489C204.572 18.9015 205.62 19.3223 206.71 19.6003C207.797 19.9077 208.92 20.0717 210.049 20.0884C210.591 20.1093 211.133 20.0566 211.661 19.9319C211.806 19.904 211.936 19.8259 212.029 19.7114C212.122 19.597 212.171 19.4535 212.169 19.3062C212.171 19.1824 212.141 19.0601 212.083 18.9506C212.025 18.8412 211.94 18.7483 211.836 18.6805C211.461 18.4571 211.055 18.2875 210.632 18.1768C210.052 17.9985 209.378 17.8014 208.623 17.5918C207.574 17.3052 206.558 16.9143 205.588 16.4249C204.909 16.0808 204.339 15.5556 203.942 14.9075C203.561 14.2014 203.375 13.4064 203.405 12.6049C203.405 10.9635 204.053 9.73712 205.349 8.92579C206.645 8.11446 208.422 7.70984 210.679 7.71192C211.843 7.71848 213.003 7.83475 214.144 8.05918C215.103 8.20196 216.029 8.51114 216.881 8.97272V12.9804C216.108 12.4984 215.26 12.1464 214.373 11.9386C213.419 11.6768 212.436 11.539 211.448 11.5287C210.881 11.5078 210.315 11.5765 209.77 11.7321C209.604 11.7647 209.454 11.8528 209.344 11.9818C209.235 12.1109 209.173 12.2733 209.168 12.4423C209.168 12.7551 209.369 12.9991 209.77 13.1681C210.472 13.4253 211.191 13.6344 211.921 13.7938C212.595 13.9627 212.88 14.0347 212.774 14.0159C213.868 14.2718 214.923 14.6749 215.909 15.2141C216.57 15.5765 217.114 16.1191 217.477 16.7784C217.806 17.4946 217.963 18.2778 217.934 19.0653C217.948 19.7548 217.782 20.436 217.452 21.042C217.122 21.648 216.64 22.1582 216.053 22.5224C214.799 23.3775 212.98 23.804 210.595 23.8019C209.307 23.7972 208.023 23.6768 206.757 23.4421Z" fill="black"/>
<path d="M221.991 22.2408C221.032 21.1979 220.552 19.7724 220.552 17.9641V12.0418H218.389V8.17807H220.543V3.63232H226.111V8.17807H229.591V12.0418H226.111V17.2195C226.111 18.0392 226.261 18.6305 226.569 18.9871C226.876 19.3438 227.418 19.5221 228.196 19.5221C228.93 19.5133 229.649 19.3184 230.287 18.9558V23.0918C229.726 23.3465 229.135 23.5315 228.528 23.6424C227.771 23.7696 227.004 23.8282 226.236 23.8176C224.366 23.8092 222.951 23.2836 221.991 22.2408Z" fill="black"/>
<path d="M232.526 22.4316C231.353 21.5139 230.768 20.2354 230.77 18.596C230.77 16.8899 231.334 15.5801 232.463 14.6666C233.592 13.7531 235.21 13.2952 237.317 13.2932C238.147 13.2934 238.975 13.3826 239.787 13.5591C240.52 13.7096 241.231 13.948 241.907 14.2693V13.9564C241.907 12.34 240.577 11.5308 237.918 11.5287C236.163 11.5069 234.424 11.8733 232.827 12.6018V8.7787C233.676 8.40971 234.568 8.14902 235.482 8.00282C236.61 7.80247 237.754 7.70301 238.9 7.70562C241.724 7.70562 243.859 8.2677 245.305 9.39189C246.752 10.5161 247.475 12.0897 247.475 14.1128V23.3295H242.255V22.053C241.635 22.6292 240.901 23.0693 240.101 23.3451C239.146 23.6767 238.139 23.8377 237.128 23.8207C235.228 23.8102 233.694 23.3472 232.526 22.4316ZM240.609 20.0007C241.126 19.7809 241.574 19.4265 241.907 18.9746V17.6481C240.99 17.035 239.909 16.7152 238.806 16.7314C238.199 16.6931 237.597 16.8607 237.097 17.2069C236.894 17.3745 236.733 17.5878 236.629 17.8293C236.524 18.0707 236.478 18.3335 236.495 18.596C236.482 18.8475 236.528 19.0984 236.63 19.3288C236.732 19.5591 236.887 19.7625 237.081 19.9225C237.575 20.2695 238.172 20.4364 238.774 20.3949C239.407 20.3991 240.033 20.2645 240.609 20.0007Z" fill="black"/>
<path d="M249.529 20.3008L256.74 12.0289H249.717V8.17773H264.08V11.2093L256.931 19.478H264.334V23.3292H249.529V20.3008Z" fill="black"/>
<g opacity="0.5">
<path opacity="0.5" d="M80.2727 32.6904H85.7658L94.5916 54.759H88.8791L87.1077 50.2102H78.9559L77.1845 54.7559H71.4155L80.2727 32.6904ZM85.7156 45.9178L83.0255 38.5001L80.3041 45.9178H85.7156Z" fill="black"/>
</g>
<g opacity="0.5">
<path opacity="0.5" d="M96.8208 31.4199H102.383V54.7493H96.8208V31.4199Z" fill="black"/>
</g>
<g opacity="0.5">
<path opacity="0.5" d="M105.236 39.595H110.391V41.2374C111.01 40.5748 111.756 40.0429 112.585 39.6732C113.411 39.3058 114.306 39.118 115.21 39.1226C116.148 39.0837 117.084 39.2559 117.947 39.6262C118.634 39.9644 119.21 40.4907 119.609 41.1436C120.267 40.4953 121.053 39.9895 121.916 39.6575C122.792 39.3072 123.726 39.1257 124.669 39.1226C126.673 39.1226 128.098 39.6325 128.942 40.6524C129.787 41.6723 130.205 43.1406 130.196 45.0574V54.7558H124.866V45.8458C124.866 45.0115 124.709 44.4014 124.393 44.0156C124.077 43.6297 123.55 43.4399 122.81 43.4462C122.373 43.4323 121.94 43.5159 121.54 43.6907C121.14 43.8655 120.784 44.1272 120.499 44.4567C120.521 44.8165 120.533 45.3608 120.533 46.0992V54.7495H115.238V45.6236C115.238 44.8478 115.103 44.2878 114.827 43.953C114.551 43.6182 114.068 43.4462 113.372 43.4462C112.298 43.4462 111.37 44.0458 110.588 45.2451V54.7495H105.258L105.236 39.595Z" fill="black"/>
</g>
<g opacity="0.5">
<path opacity="0.5" d="M133.535 53.8477C132.362 52.932 131.777 51.6535 131.779 50.0121C131.779 48.306 132.343 46.9962 133.469 46.0826C134.596 45.1691 136.215 44.7113 138.326 44.7092C139.157 44.709 139.985 44.7992 140.796 44.9783C141.53 45.1259 142.242 45.3645 142.916 45.6885V45.3756C142.916 43.755 141.586 42.9447 138.928 42.9447C137.172 42.923 135.433 43.2894 133.836 44.0178V40.1979C134.685 39.8301 135.577 39.5705 136.492 39.4252C137.619 39.218 138.763 39.1133 139.909 39.1123C142.733 39.1123 144.868 39.6754 146.315 40.8017C147.761 41.928 148.48 43.4995 148.472 45.5164V54.7361H143.264V53.4409C142.644 54.0181 141.911 54.4593 141.11 54.7361C140.151 55.0702 139.141 55.2322 138.125 55.2148C136.244 55.2148 134.714 54.7591 133.535 53.8477ZM141.618 51.4168C142.134 51.1955 142.582 50.8414 142.916 50.3906V49.0641C141.999 48.452 140.918 48.1333 139.815 48.1506C139.208 48.1114 138.606 48.2778 138.106 48.623C137.903 48.7906 137.743 49.0039 137.638 49.2453C137.533 49.4868 137.488 49.7495 137.504 50.0121C137.491 50.2635 137.537 50.5146 137.639 50.745C137.741 50.9754 137.896 51.1787 138.091 51.3386C138.584 51.6856 139.182 51.8524 139.784 51.811C140.417 51.8151 141.043 51.6806 141.618 51.4168Z" fill="black"/>
</g>
<g opacity="0.5">
<path opacity="0.5" d="M152.704 53.6515C151.745 52.6087 151.265 51.1831 151.265 49.3748V43.4306H149.114V39.5951H151.265V35.0493H156.833V39.5951H160.314V43.4463H156.833V48.624C156.833 49.4437 156.987 50.035 157.294 50.3916C157.602 50.7483 158.141 50.9297 158.921 50.9297C159.655 50.9193 160.373 50.7233 161.01 50.3603V54.4962C160.45 54.7524 159.86 54.9374 159.254 55.0469C158.497 55.1741 157.73 55.2327 156.962 55.2221C155.085 55.2179 153.666 54.6944 152.704 53.6515Z" fill="black"/>
</g>
<g opacity="0.5">
<path opacity="0.5" d="M163.888 60.8463C163.324 60.7961 162.77 60.6633 162.245 60.4521V56.3256C162.909 56.5883 163.619 56.717 164.333 56.7041C164.912 56.7383 165.485 56.5774 165.96 56.2474C166.404 55.8673 166.73 55.3693 166.901 54.8114L167.28 53.8009L160.696 39.5942H166.265L170.221 49.4428L173.952 39.5942H179.511L173.241 55.4433C172.505 57.3351 171.564 58.7346 170.419 59.6418C169.273 60.5491 167.803 61.0017 166.007 60.9996C165.298 60.9931 164.591 60.9419 163.888 60.8463Z" fill="black"/>
</g>
<path d="M20.5174 41.4094C19.903 40.9446 19.3359 40.4207 18.8243 39.8452C16.4875 37.1831 15.223 33.7509 15.2752 30.2124V28.4448C15.2752 26.4236 14.4705 24.4851 13.0382 23.0559C11.6058 21.6267 9.66319 20.8237 7.63758 20.8237C5.61197 20.8237 3.66932 21.6267 2.23699 23.0559C0.804671 24.4851 0 26.4236 0 28.4448V30.2124C0 37.6677 2.6556 44.7131 7.47768 50.0504L7.49649 50.066C8.66685 51.3622 9.96047 52.5419 11.3592 53.5888C12.9807 54.8006 15.0182 55.3201 17.0235 55.0329C19.0288 54.7457 20.8376 53.6754 22.0521 52.0574C23.2665 50.4394 23.7871 48.4063 23.4993 46.4053C23.2115 44.4043 22.1389 42.5994 20.5174 41.3875V41.4094Z" fill="#FF641A"/>
<path d="M26.462 58.6847C21.0064 58.6792 15.702 56.8951 11.3562 53.604C10.5533 53.0038 9.87678 52.2516 9.36521 51.3905C8.85365 50.5293 8.51707 49.5761 8.37471 48.5851C8.08718 46.5839 8.60816 44.5506 9.82303 42.9326C11.0379 41.3146 12.8471 40.2445 14.8527 39.9576C15.8458 39.8155 16.8572 39.87 17.8292 40.118C18.8011 40.366 19.7146 40.8025 20.5175 41.4028C22.2272 42.7123 24.3193 43.4275 26.4746 43.4394C29.312 43.4394 32.024 42.1661 34.1122 39.8541C35.4684 38.3527 37.3668 37.4504 39.3897 37.3457C41.4127 37.241 43.3945 37.9424 44.8991 39.2957C46.4038 40.649 47.3081 42.5433 47.413 44.5619C47.518 46.5805 46.815 48.558 45.4588 50.0594C40.4235 55.625 33.6795 58.6847 26.462 58.6847Z" fill="#68BAFF"/>
<path d="M39.7711 52.584C38.2949 52.5824 36.8508 52.1541 35.6133 51.351C34.3759 50.5479 33.3981 49.4042 32.7981 48.0584C32.1982 46.7125 32.0018 45.222 32.2327 43.7672C32.4637 42.3123 33.112 40.9553 34.0993 39.8603C36.4361 37.1982 37.7007 33.7661 37.6485 30.2276V28.46C37.6485 26.4387 38.4532 24.5003 39.8855 23.071C41.3178 21.6418 43.2605 20.8389 45.2861 20.8389C47.3117 20.8389 49.2543 21.6418 50.6866 23.071C52.119 24.5003 52.9236 26.4387 52.9236 28.46V30.2276C52.9786 37.536 50.3141 44.6048 45.446 50.0655C44.73 50.859 43.8547 51.4933 42.877 51.9272C41.8993 52.3611 40.8411 52.5849 39.7711 52.584Z" fill="#6324FF"/>
<path d="M45.3487 15.2715C49.4162 15.2715 52.7135 11.9813 52.7135 7.92263C52.7135 3.86394 49.4162 0.57373 45.3487 0.57373C41.2812 0.57373 37.9839 3.86394 37.9839 7.92263C37.9839 11.9813 41.2812 15.2715 45.3487 15.2715Z" fill="#FF641A"/>
<path d="M7.70953 15.2715C11.777 15.2715 15.0743 11.9813 15.0743 7.92263C15.0743 3.86394 11.777 0.57373 7.70953 0.57373C3.64206 0.57373 0.344727 3.86394 0.344727 7.92263C0.344727 11.9813 3.64206 15.2715 7.70953 15.2715Z" fill="#6324FF"/>
</svg>
