<svg width="48" height="61" viewBox="0 0 48 61" fill="none" xmlns="http://www.w3.org/2000/svg">
<path d="M22.1612 12.8238C22.6005 12.3846 23.2127 12.1184 23.8782 12.1184C25.2092 12.1184 26.3006 13.2098 26.3139 14.5541V50.2247C26.3139 51.5557 25.2225 52.6471 23.8782 52.6604C22.5472 52.6604 21.4558 51.569 21.4425 50.2247L21.4425 14.5541C21.4425 13.8886 21.722 13.2631 22.1612 12.8238Z" fill="#FF6E3D"/>
<path d="M21.8416 48.7071L41.9396 28.6092C42.8979 27.6509 44.4419 27.6509 45.3869 28.5959C46.3319 29.5409 46.3452 31.0981 45.3869 32.0565L25.2756 52.1677C24.3173 53.126 22.7733 53.126 21.815 52.1677C20.87 51.1961 20.8966 49.6521 21.8416 48.7071Z" fill="#44BAFF"/>
<path d="M1.73019 28.5962C2.68851 27.6379 4.23246 27.6379 5.19077 28.5962L25.2888 48.6942C26.2471 49.6525 26.2471 51.1964 25.2888 52.1547C24.3304 53.113 22.7865 53.113 21.8282 52.1547L1.71688 32.0435C0.785186 31.0852 0.785187 29.5412 1.73019 28.5962Z" fill="#6324FF"/>
</svg>
