<svg width="58" height="14" viewBox="0 0 58 14" fill="none" xmlns="http://www.w3.org/2000/svg">
<path d="M3.23463 3.61453H0V0.838867H9.36629V3.612H6.09442V13.797H3.23463V3.61453Z" fill="#373333"/>
<path d="M10.9922 13.7998V0.111572H13.6906V5.6046C14.1201 4.96582 15.0138 4.47406 16.1755 4.47406C18.375 4.47406 19.6435 6.13439 19.6435 8.52729V13.8023H16.9451V8.99877C16.9451 7.73895 16.4809 6.97342 15.4978 6.97342C14.48 6.97342 13.6931 7.70346 13.6931 9.36379V13.7998H10.9922Z" fill="#373333"/>
<path d="M21.0186 9.21668C21.0186 6.47904 23.0393 4.47144 25.7551 4.47144C28.3468 4.47144 30.6182 6.27879 30.5288 9.87321H23.6475C23.7368 10.8035 24.4344 11.6248 25.8991 11.6248C26.686 11.6248 27.4009 11.2598 27.6144 10.768H30.4395C29.8685 12.6666 28.0091 14 25.7551 14C22.9847 14 21.0186 11.9923 21.0186 9.21668ZM23.717 8.12163H27.5424C27.257 7.02657 26.3806 6.66155 25.6831 6.66155C24.6107 6.66155 23.9503 7.30033 23.717 8.12163Z" fill="#373333"/>
<path d="M31.6533 10.8239H34.4957C34.5503 11.554 35.1387 11.919 35.9082 11.919C36.6058 11.919 36.9087 11.6807 36.9087 11.336C36.9087 10.9152 36.586 10.7707 35.8909 10.5704L34.0861 10.0964C32.5122 9.67564 31.8345 8.60086 31.8345 7.22951C31.8345 5.64269 33.2098 4.47412 35.5706 4.47412C37.5367 4.47412 39.128 5.49567 39.272 7.4323H36.5537C36.4296 6.75802 36.0001 6.59326 35.516 6.59326C34.9624 6.59326 34.605 6.81126 34.605 7.17628C34.605 7.65029 35.0866 7.79732 35.516 7.88857L37.142 8.3271C38.9468 8.81886 39.6617 9.73141 39.6617 11.194C39.6617 12.8924 38.0531 14.0052 35.8189 14.0052C33.3886 14.0001 31.7427 12.6135 31.6533 10.8239Z" fill="#373333"/>
<path d="M40.625 1.7161C40.625 0.768061 41.3946 0 42.3056 0C43.2539 0 44.0036 0.765526 44.0036 1.7161C44.0036 2.66413 43.2539 3.43219 42.3056 3.43219C41.3946 3.43219 40.625 2.66413 40.625 1.7161ZM40.9651 4.67174H43.6635V13.7972H40.9651V4.67174Z" fill="#373333"/>
<path d="M44.9697 10.8239H47.8121C47.8668 11.554 48.4551 11.919 49.2247 11.919C49.9222 11.919 50.2251 11.6807 50.2251 11.336C50.2251 10.9152 49.9024 10.7707 49.2073 10.5704L47.4025 10.0964C45.8287 9.67564 45.1509 8.60086 45.1509 7.22951C45.1509 5.64269 46.5262 4.47412 48.887 4.47412C50.8531 4.47412 52.4444 5.49567 52.5884 7.4323H49.8726C49.7485 6.75802 49.319 6.59326 48.8349 6.59326C48.2813 6.59326 47.9238 6.81126 47.9238 7.17628C47.9238 7.65029 48.4054 7.79732 48.8349 7.88857L50.4609 8.3271C52.2657 8.81886 52.9806 9.73141 52.9806 11.194C52.9806 12.8924 51.372 14.0052 49.1378 14.0052C46.7025 14.0001 45.0591 12.6135 44.9697 10.8239Z" fill="#373333"/>
<path d="M54.1748 11.9925C54.1748 10.9151 55.0337 10.0381 56.0888 10.0381C57.1438 10.0381 58.0002 10.9151 58.0002 11.9925C58.0002 13.0698 57.1413 13.9443 56.0888 13.9443C55.0337 13.9443 54.1748 13.0698 54.1748 11.9925Z" fill="#FF641A"/>
</svg>
