<svg width="20" height="20" viewBox="0 0 20 20" fill="none" xmlns="http://www.w3.org/2000/svg">
<g clip-path="url(#clip0IconCalendar)">
<path d="M0.585067 15.2736H15.8983C16.0356 15.2736 16.1683 15.2256 16.2736 15.138C16.4207 15.0148 19.7758 12.1286 19.9804 5.89819H3.53434C3.33054 11.5537 0.240637 14.2119 0.208527 14.2385C0.020276 14.3975 -0.0489849 14.6573 0.0357064 14.8885C0.119812 15.1191 0.339001 15.2736 0.585067 15.2736Z" fill="#BCA2FF"/>
<path d="M19.4148 2.38238H16.485V1.79641C16.485 1.46827 16.2271 1.21045 15.899 1.21045C15.5709 1.21045 15.313 1.46827 15.313 1.79641V2.38238H12.3441V1.79641C12.3441 1.46827 12.0863 1.21045 11.7582 1.21045C11.43 1.21045 11.1722 1.46827 11.1722 1.79641V2.38238H8.2424V1.79641C8.2424 1.46827 7.98457 1.21045 7.65643 1.21045C7.32829 1.21045 7.07047 1.46827 7.07047 1.79641V2.38238H4.14065C3.81251 2.38238 3.55469 2.6402 3.55469 2.96834V4.72623H20.0007V2.96834C20.0007 2.6402 19.7429 2.38238 19.4148 2.38238Z" fill="#BCA2FF"/>
<path d="M17.0269 16.0365C16.7087 16.3014 16.3093 16.4456 15.899 16.4456H3.55469V18.2035C3.55469 18.5274 3.81677 18.7895 4.14065 18.7895H19.4148C19.7387 18.7895 20.0007 18.5274 20.0007 18.2035V11.635C18.871 14.4067 17.2945 15.8124 17.0269 16.0365Z" fill="#BCA2FF"/>
</g>
<defs>
<clipPath id="clip0IconCalendar">
<rect width="20" height="20" fill="white"/>
</clipPath>
</defs>
</svg>
