<svg width="85" height="100" viewBox="0 0 85 100" fill="none" xmlns="http://www.w3.org/2000/svg">
<path d="M42.1709 47.334C55.2418 47.334 65.8379 36.7379 65.8379 23.667C65.8379 10.5961 55.2418 0 42.1709 0C29.1 0 18.5039 10.5961 18.5039 23.667C18.5039 36.7379 29.1 47.334 42.1709 47.334Z" fill="#9870FF"/>
<path d="M63.895 41.555C58.71 47.779 50.905 51.742 42.171 51.742C33.438 51.742 25.631 47.779 20.448 41.554C8.197 46.651 0 63.75 0 74.35C0 90.438 18.88 100 42.171 100C65.461 100 84.342 90.438 84.342 74.35C84.342 63.75 76.146 46.651 63.895 41.555Z" fill="#9870FF"/>
</svg>
