<svg width="17" height="20" viewBox="0 0 17 20" fill="none" xmlns="http://www.w3.org/2000/svg">
<path d="M8.43408 9.4668C11.0483 9.4668 13.1675 7.34759 13.1675 4.7334C13.1675 2.11922 11.0483 0 8.43408 0C5.8199 0 3.70068 2.11922 3.70068 4.7334C3.70068 7.34759 5.8199 9.4668 8.43408 9.4668Z" fill="#F5F2FF"/>
<path d="M12.779 8.31099C11.742 9.55579 10.181 10.3484 8.4342 10.3484C6.6876 10.3484 5.1262 9.55579 4.0896 8.31079C1.6394 9.33019 0 12.75 0 14.87C0 18.0876 3.776 20 8.4342 20C13.0922 20 16.8684 18.0876 16.8684 14.87C16.8684 12.75 15.2292 9.33019 12.779 8.31099Z" fill="#F5F2FF"/>
</svg>
