<svg width="32" height="32" viewBox="0 0 32 32" fill="none" xmlns="http://www.w3.org/2000/svg">
<path fill-rule="evenodd" clip-rule="evenodd" d="M16 0C7.16533 0 0 7.16267 0 16C0 24.836 7.16533 32 16 32C24.836 32 32 24.836 32 16C32 7.16267 24.836 0 16 0ZM20.2987 23.828C20.5493 24.0053 20.872 24.0493 21.16 23.9413C21.4467 23.832 21.6587 23.5853 21.7227 23.2867C22.3987 20.1107 24.0387 12.0707 24.6533 9.18267C24.7 8.964 24.6227 8.73733 24.452 8.592C24.28 8.44667 24.0427 8.40533 23.832 8.48267C20.5707 9.69067 10.5267 13.4587 6.42133 14.9773C6.16133 15.0747 5.992 15.324 6 15.6C6.00933 15.8747 6.19467 16.1133 6.46133 16.1933C8.30267 16.744 10.7187 17.5107 10.7187 17.5107C10.7187 17.5107 11.848 20.9213 12.436 22.6547C12.5107 22.8733 12.6813 23.044 12.9053 23.1027C13.1307 23.1613 13.3693 23.1 13.5373 22.9413C14.4827 22.0493 15.944 20.6693 15.944 20.6693C15.944 20.6693 18.7227 22.7053 20.2987 23.828ZM11.7347 17.0787L13.0413 21.3867L13.332 18.6587C13.332 18.6587 18.376 14.108 21.2533 11.5147C21.3373 11.4387 21.348 11.3107 21.2787 11.2213C21.2093 11.132 21.0813 11.1107 20.9867 11.172C17.6533 13.3 11.7347 17.0787 11.7347 17.0787Z" fill="#4BB2FC"/>
</svg>
