<svg width="25" height="24" viewBox="0 0 25 24" fill="none" xmlns="http://www.w3.org/2000/svg">
<path d="M5.05174 20.6588C4.50396 20.6588 3.97141 20.45 3.591 20.0324C1.27816 17.5115 0 14.1703 0 10.6501V9.68055C0 8.60659 0.882531 7.74146 1.97809 7.74146C3.07364 7.74146 3.95618 8.60659 3.95618 9.68055V10.6501C3.95618 13.2306 4.86914 15.647 6.54291 17.4519C7.27328 18.2424 7.1972 19.4655 6.39074 20.1815C5.97991 20.4948 5.52344 20.6588 5.05174 20.6588Z" fill="#FF641A"/>
<path d="M6.60367 22.061C6.19283 22.061 5.78201 21.9416 5.41683 21.6732C4.76253 21.1958 4.13866 20.629 3.57567 20.0324C2.8453 19.2418 2.92138 18.0187 3.72783 17.3027C4.53428 16.5868 5.782 16.6464 6.51237 17.4519C6.90799 17.8845 7.33404 18.2573 7.79053 18.6004C8.65784 19.2418 8.84043 20.45 8.18614 21.3002C7.79052 21.7925 7.19709 22.061 6.60367 22.061Z" fill="#FF641A"/>
<path d="M12.4927 24C9.95161 24 7.50182 23.1945 5.43243 21.6581C4.56512 21.0167 4.38253 19.8085 5.03682 18.9583C5.69111 18.1081 6.92361 17.9291 7.79092 18.5705C9.1908 19.5997 10.8189 20.1367 12.4927 20.1367C14.7447 20.1367 16.8597 19.1671 18.4726 17.422C19.203 16.6314 20.4507 16.5717 21.2571 17.2728C22.0636 17.9888 22.1245 19.2119 21.3941 20.0024C19.0356 22.5979 15.8707 24 12.4927 24Z" fill="#68BAFF"/>
<path d="M19.9323 20.6589C19.4606 20.6589 18.9889 20.4948 18.6085 20.1666C17.802 19.4506 17.7411 18.2275 18.4563 17.437C20.1301 15.6321 21.043 13.2157 21.043 10.6352V9.66566C21.043 8.5917 21.9256 7.72656 23.0211 7.72656C24.1167 7.72656 24.9992 8.5917 24.9992 9.66566V10.6352C24.9992 14.1703 23.7211 17.5115 21.4082 20.0175C21.0126 20.4351 20.4648 20.6589 19.9323 20.6589Z" fill="#6324FF"/>
<path d="M16.9206 5.60846C18.503 5.60846 19.7812 4.35551 19.7812 2.80423C19.7812 1.25295 18.503 0 16.9206 0C15.3381 0 14.0599 1.25295 14.0599 2.80423C14.0599 4.37043 15.3381 5.60846 16.9206 5.60846Z" fill="#FF641A"/>
<path d="M8.07962 5.60846C9.64687 5.60846 10.9402 4.35551 10.9402 2.80423C10.9402 1.25295 9.66209 0 8.07962 0C6.49715 0 5.21899 1.25295 5.21899 2.80423C5.21899 4.37043 6.49715 5.60846 8.07962 5.60846Z" fill="#6324FF"/>
</svg>
