<svg width="30" height="50" viewBox="0 0 30 50" fill="none" xmlns="http://www.w3.org/2000/svg">
<path d="M29.3595 13.3673C29.3595 20.4513 23.4815 24.7873 18.096 26.2598C18.096 26.2598 18.096 27.5533 18.096 29.3038C18.096 31.6283 16.058 33.6798 13.421 33.6798C10.527 33.6798 8.75205 31.4833 8.75205 29.1933L8.74605 23.4048C8.74605 21.2783 9.95255 19.8738 12.4015 19.1108C16.7845 17.7448 19.56 16.1848 19.56 13.2608C19.56 9.44035 15.6225 8.92485 13.5815 9.41735C10.4855 10.1648 8.72555 11.7943 7.17555 12.9403C5.13755 14.4473 2.48306 13.9733 1.01506 12.1168C-0.517942 10.1783 -0.345942 7.19385 1.74556 5.55735C4.52905 3.37985 8.89355 -0.578145 17.054 0.112855C24.2175 0.719354 29.3595 6.70335 29.3595 13.3673Z" fill="white"/>
<path d="M14.6799 49.9669C17.5205 49.9669 19.8234 47.6641 19.8234 44.8234C19.8234 41.9828 17.5205 39.6799 14.6799 39.6799C11.8392 39.6799 9.53638 41.9828 9.53638 44.8234C9.53638 47.6641 11.8392 49.9669 14.6799 49.9669Z" fill="white"/>
</svg>
