<svg width="48" height="49" viewBox="0 0 48 49" fill="none" xmlns="http://www.w3.org/2000/svg">
<path d="M24.0096 18.5257C22.6375 18.5257 21.5322 17.4204 21.5322 16.0483V6.97737C21.5322 5.60529 22.6375 4.5 24.0096 4.5C25.3817 4.5 26.487 5.60529 26.487 6.97737V16.0483C26.487 17.4204 25.3817 18.5257 24.0096 18.5257Z" fill="#FF6E3D"/>
<path d="M24.0096 44.4998C22.6375 44.4998 21.5322 43.3945 21.5322 42.0225V32.9515C21.5322 31.5794 22.6375 30.4741 24.0096 30.4741C25.3817 30.4741 26.487 31.5794 26.487 32.9515V42.0225C26.487 43.3945 25.3817 44.4998 24.0096 44.4998Z" fill="#6324FF"/>
<path d="M41.522 26.9679H32.451C31.0789 26.9679 29.9736 25.8626 29.9736 24.4906C29.9736 23.1185 31.0789 22.0132 32.451 22.0132H41.522C42.894 22.0132 43.9993 23.1185 43.9993 24.4906C43.9993 25.8626 42.894 26.9679 41.522 26.9679Z" fill="#6324FF"/>
<path d="M15.5483 26.9679H6.47737C5.10529 26.9679 4 25.8626 4 24.4906C4 23.1185 5.10529 22.0132 6.47737 22.0132H15.5483C16.9204 22.0132 18.0257 23.1185 18.0257 24.4906C18.0257 25.8626 16.9204 26.9679 15.5483 26.9679Z" fill="#FF6E3D"/>
<path d="M29.9935 20.984C29.3646 20.984 28.7357 20.7362 28.2593 20.2598C27.7829 19.7834 27.5352 19.1545 27.5352 18.5257C27.5352 17.8968 27.7829 17.2679 28.2593 16.7915L34.6814 10.3694C35.6342 9.41658 37.1969 9.41658 38.1688 10.3694C38.6643 10.8649 38.8929 11.4747 38.8929 12.1036C38.8929 12.7324 38.6452 13.3613 38.1688 13.8377L31.7467 20.2598C31.2512 20.7362 30.6223 20.984 29.9935 20.984Z" fill="#ffffff"/>
<path d="M11.6224 39.3546C10.9935 39.3546 10.3646 39.1068 9.88823 38.6304C9.41181 38.154 9.16406 37.5251 9.16406 36.8963C9.16406 36.2674 9.41181 35.6385 9.88823 35.1621L16.3103 28.74C17.2631 27.7872 18.8258 27.7872 19.7977 28.74C20.2741 29.2355 20.5218 29.8453 20.5218 30.4742C20.5218 31.103 20.2741 31.7319 19.7977 32.2083L16.5962 35.4098L13.3947 38.6114C12.8801 39.1259 12.2512 39.3546 11.6224 39.3546Z" fill="#ffffff"/>
<path d="M18.0445 20.984C17.4156 20.984 16.7867 20.7362 16.3103 20.2598L9.88823 13.8377C9.41181 13.3613 9.16406 12.7324 9.16406 12.1036C9.16406 11.4747 9.41181 10.8458 9.88823 10.3694C10.8601 9.41658 12.4037 9.41658 13.3756 10.3694L19.7977 16.7915C20.2741 17.287 20.5218 17.8968 20.5218 18.5257C20.5218 19.1545 20.2741 19.7834 19.7977 20.2598C19.2832 20.7362 18.6543 20.984 18.0445 20.984Z" fill="#6324FF"/>
<path d="M36.3965 39.3546C35.7676 39.3546 35.1388 39.1068 34.6624 38.6304L31.4608 35.4289L28.2593 32.2274C27.7829 31.751 27.5352 31.1221 27.5352 30.4932C27.5352 29.8643 27.7829 29.2355 28.2593 28.7591C29.2312 27.8062 30.7748 27.8062 31.7467 28.7591L34.9482 31.9606L38.1497 35.1621C38.6261 35.6385 38.8739 36.2674 38.8739 36.8963C38.8739 37.5251 38.6261 38.154 38.1497 38.6304C37.6733 39.1259 37.0444 39.3546 36.3965 39.3546Z" fill="#FF6E3D"/>
</svg>
