<svg width="1170" height="306" viewBox="0 0 1170 306" fill="none" xmlns="http://www.w3.org/2000/svg">
<mask id="mask0_595_1666" style="mask-type:alpha" maskUnits="userSpaceOnUse" x="0" y="0" width="1170" height="306">
<path d="M0 40C0 17.9086 17.9086 0 40 0H1130C1152.09 0 1170 17.9086 1170 40V266C1170 288.091 1152.09 306 1130 306H40C17.9086 306 0 288.091 0 266V40Z" fill="#4C29D3"/>
</mask>
<g mask="url(#mask0_595_1666)">
<path d="M150.566 216.885C171.603 216.885 188.656 199.831 188.656 178.795C188.656 157.758 171.603 140.705 150.566 140.705C129.529 140.705 112.476 157.758 112.476 178.795C112.476 199.831 129.529 216.885 150.566 216.885Z" fill="#00BBFF"/>
<path d="M156.533 226.806C177.723 226.806 194.9 209.628 194.9 188.438C194.9 167.249 177.723 150.071 156.533 150.071C135.343 150.071 118.165 167.249 118.165 188.438C118.165 209.628 135.343 226.806 156.533 226.806Z" fill="#01BAFF"/>
<path d="M164.442 235.479C185.785 235.479 203.087 218.177 203.087 196.834C203.087 175.49 185.785 158.188 164.442 158.188C143.099 158.188 125.797 175.49 125.797 196.834C125.797 218.177 143.099 235.479 164.442 235.479Z" fill="#01B9FF"/>
<path d="M173.878 242.902C195.374 242.902 212.801 225.476 212.801 203.98C212.801 182.483 195.374 165.057 173.878 165.057C152.382 165.057 134.955 182.483 134.955 203.98C134.955 225.476 152.382 242.902 173.878 242.902Z" fill="#02B9FF"/>
<path d="M184.354 249.216C206.004 249.216 223.555 231.665 223.555 210.016C223.555 188.366 206.004 170.815 184.354 170.815C162.705 170.815 145.154 188.366 145.154 210.016C145.154 231.665 162.705 249.216 184.354 249.216Z" fill="#02B8FF"/>
<path d="M195.594 254.35C217.397 254.35 235.072 236.675 235.072 214.872C235.072 193.069 217.397 175.395 195.594 175.395C173.791 175.395 156.116 193.069 156.116 214.872C156.116 236.675 173.791 254.35 195.594 254.35Z" fill="#03B7FF"/>
<path d="M207.111 258.582C229.106 258.582 246.936 240.752 246.936 218.758C246.936 196.763 229.106 178.933 207.111 178.933C185.117 178.933 167.287 196.763 167.287 218.758C167.287 240.752 185.117 258.582 207.111 258.582Z" fill="#03B6FF"/>
<path d="M218.49 261.705C240.638 261.705 258.592 243.75 258.592 221.603C258.592 199.455 240.638 181.5 218.49 181.5C196.342 181.5 178.388 199.455 178.388 221.603C178.388 243.75 196.342 261.705 218.49 261.705Z" fill="#04B6FF"/>
<path d="M229.383 263.925C251.684 263.925 269.762 245.846 269.762 223.545C269.762 201.244 251.684 183.166 229.383 183.166C207.082 183.166 189.003 201.244 189.003 223.545C189.003 245.846 207.082 263.925 229.383 263.925Z" fill="#05B5FF"/>
<path d="M239.304 265.243C261.758 265.243 279.961 247.04 279.961 224.586C279.961 202.131 261.758 183.929 239.304 183.929C216.85 183.929 198.647 202.131 198.647 224.586C198.647 247.04 216.85 265.243 239.304 265.243Z" fill="#05B4FF"/>
<path d="M250.127 265.798C272.735 265.798 291.062 247.471 291.062 224.863C291.062 202.256 272.735 183.929 250.127 183.929C227.52 183.929 209.193 202.256 209.193 224.863C209.193 247.471 227.52 265.798 250.127 265.798Z" fill="#06B3FF"/>
<path d="M268.513 265.035C291.274 265.035 309.726 246.583 309.726 223.823C309.726 201.062 291.274 182.61 268.513 182.61C245.752 182.61 227.301 201.062 227.301 223.823C227.301 246.583 245.752 265.035 268.513 265.035Z" fill="#06B2FF"/>
<path d="M285.72 263.022C308.672 263.022 327.279 244.416 327.279 221.463C327.279 198.511 308.672 179.904 285.72 179.904C262.767 179.904 244.161 198.511 244.161 221.463C244.161 244.416 262.767 263.022 285.72 263.022Z" fill="#07B2FF"/>
<path d="M301.677 259.623C324.783 259.623 343.514 240.892 343.514 217.786C343.514 194.681 324.783 175.95 301.677 175.95C278.572 175.95 259.841 194.681 259.841 217.786C259.841 240.892 278.572 259.623 301.677 259.623Z" fill="#07B1FF"/>
<path d="M316.455 255.044C339.714 255.044 358.57 236.189 358.57 212.93C358.57 189.671 339.714 170.815 316.455 170.815C293.196 170.815 274.341 189.671 274.341 212.93C274.341 236.189 293.196 255.044 316.455 255.044Z" fill="#08B0FF"/>
<path d="M330.123 249.493C353.536 249.493 372.515 230.514 372.515 207.102C372.515 183.689 353.536 164.71 330.123 164.71C306.711 164.71 287.732 183.689 287.732 207.102C287.732 230.514 306.711 249.493 330.123 249.493Z" fill="#09AFFF"/>
<path d="M342.612 242.972C366.178 242.972 385.281 223.868 385.281 200.302C385.281 176.737 366.178 157.633 342.612 157.633C319.047 157.633 299.943 176.737 299.943 200.302C299.943 223.868 319.047 242.972 342.612 242.972Z" fill="#09AFFF"/>
<path d="M353.991 235.617C377.709 235.617 396.937 216.389 396.937 192.67C396.937 168.951 377.709 149.724 353.991 149.724C330.272 149.724 311.044 168.951 311.044 192.67C311.044 216.389 330.272 235.617 353.991 235.617Z" fill="#0AAEFF"/>
<path d="M364.328 227.569C388.239 227.569 407.622 208.186 407.622 184.276C407.622 160.365 388.239 140.982 364.328 140.982C340.418 140.982 321.035 160.365 321.035 184.276C321.035 208.186 340.418 227.569 364.328 227.569Z" fill="#0AADFF"/>
<path d="M373.556 218.827C397.619 218.827 417.127 199.32 417.127 175.256C417.127 151.193 397.619 131.685 373.556 131.685C349.492 131.685 329.985 151.193 329.985 175.256C329.985 199.32 349.492 218.827 373.556 218.827Z" fill="#0BACFF"/>
<path d="M381.673 209.6C405.89 209.6 425.522 189.968 425.522 165.751C425.522 141.534 405.89 121.902 381.673 121.902C357.456 121.902 337.825 141.534 337.825 165.751C337.825 189.968 357.456 209.6 381.673 209.6Z" fill="#0BABFF"/>
<path d="M388.82 199.955C413.19 199.955 432.946 180.2 432.946 155.829C432.946 131.459 413.19 111.703 388.82 111.703C364.449 111.703 344.693 131.459 344.693 155.829C344.693 180.2 364.449 199.955 388.82 199.955Z" fill="#0CABFF"/>
<path d="M394.995 190.034C419.518 190.034 439.398 170.154 439.398 145.63C439.398 121.107 419.518 101.227 394.995 101.227C370.471 101.227 350.591 121.107 350.591 145.63C350.591 170.154 370.471 190.034 394.995 190.034Z" fill="#0CAAFF"/>
<path d="M400.129 179.904C424.805 179.904 444.81 159.9 444.81 135.223C444.81 110.547 424.805 90.542 400.129 90.542C375.452 90.542 355.448 110.547 355.448 135.223C355.448 159.9 375.452 179.904 400.129 179.904Z" fill="#0DA9FF"/>
<path d="M404.292 169.775C429.16 169.775 449.32 149.615 449.32 124.747C449.32 99.8785 429.16 79.7188 404.292 79.7188C379.423 79.7188 359.263 99.8785 359.263 124.747C359.263 149.615 379.423 169.775 404.292 169.775Z" fill="#0EA8FF"/>
<path d="M407.483 159.576C432.505 159.576 452.789 139.292 452.789 114.27C452.789 89.2487 432.505 68.9648 407.483 68.9648C382.461 68.9648 362.177 89.2487 362.177 114.27C362.177 139.292 382.461 159.576 407.483 159.576Z" fill="#0EA8FF"/>
<path d="M409.773 149.516C434.947 149.516 455.356 129.108 455.356 103.933C455.356 78.7579 434.947 58.3496 409.773 58.3496C384.598 58.3496 364.189 78.7579 364.189 103.933C364.189 129.108 384.598 149.516 409.773 149.516Z" fill="#0FA7FF"/>
<path d="M411.16 139.733C436.488 139.733 457.021 119.201 457.021 93.8725C457.021 68.5443 436.488 48.0117 411.16 48.0117C385.832 48.0117 365.3 68.5443 365.3 93.8725C365.3 119.201 385.832 139.733 411.16 139.733Z" fill="#0FA6FF"/>
<path d="M411.646 130.228C437.127 130.228 457.784 109.571 457.784 84.0894C457.784 58.608 437.127 37.9512 411.646 37.9512C386.164 37.9512 365.508 58.608 365.508 84.0894C365.508 109.571 386.164 130.228 411.646 130.228Z" fill="#10A5FF"/>
<path d="M411.299 121.208C436.934 121.208 457.715 100.427 457.715 74.7926C457.715 49.1579 436.934 28.377 411.299 28.377C385.664 28.377 364.883 49.1579 364.883 74.7926C364.883 100.427 385.664 121.208 411.299 121.208Z" fill="#10A4FF"/>
<path d="M410.05 112.883C435.876 112.883 456.813 91.9463 456.813 66.12C456.813 40.2937 435.876 19.3574 410.05 19.3574C384.224 19.3574 363.287 40.2937 363.287 66.12C363.287 91.9463 384.224 112.883 410.05 112.883Z" fill="#11A4FF"/>
<path d="M408.038 105.043C434.018 105.043 455.078 83.9822 455.078 58.0026C455.078 32.023 434.018 10.9624 408.038 10.9624C382.059 10.9624 360.998 32.023 360.998 58.0026C360.998 83.9822 382.059 105.043 408.038 105.043Z" fill="#12A3FF"/>
<path d="M405.193 98.1047C431.326 98.1047 452.511 76.9197 452.511 50.7869C452.511 24.6541 431.326 3.46924 405.193 3.46924C379.061 3.46924 357.876 24.6541 357.876 50.7869C357.876 76.9197 379.061 98.1047 405.193 98.1047Z" fill="#12A2FF"/>
<path d="M401.586 91.999C427.872 91.999 449.181 70.6898 449.181 44.4037C449.181 18.1176 427.872 -3.19141 401.586 -3.19141C375.299 -3.19141 353.99 18.1176 353.99 44.4037C353.99 70.6898 375.299 91.999 401.586 91.999Z" fill="#13A1FF"/>
<path d="M397.145 86.8646C423.585 86.8646 445.018 65.4313 445.018 38.9919C445.018 12.5525 423.585 -8.88086 397.145 -8.88086C370.706 -8.88086 349.272 12.5525 349.272 38.9919C349.272 65.4313 370.706 86.8646 397.145 86.8646Z" fill="#13A1FF"/>
<path d="M392.08 82.8411C418.673 82.8411 440.231 61.2834 440.231 34.6907C440.231 8.09806 418.673 -13.4595 392.08 -13.4595C365.488 -13.4595 343.93 8.09806 343.93 34.6907C343.93 61.2834 365.488 82.8411 392.08 82.8411Z" fill="#14A0FF"/>
<path d="M386.183 80.0656C412.967 80.0656 434.68 58.3526 434.68 31.5684C434.68 4.78414 412.967 -16.9287 386.183 -16.9287C359.399 -16.9287 337.686 4.78414 337.686 31.5684C337.686 58.3526 359.399 80.0656 386.183 80.0656Z" fill="#149FFF"/>
<path d="M379.661 78.6085C406.599 78.6085 428.436 56.7713 428.436 29.8338C428.436 2.89629 406.599 -18.9409 379.661 -18.9409C352.724 -18.9409 330.887 2.89629 330.887 29.8338C330.887 56.7713 352.724 78.6085 379.661 78.6085Z" fill="#159EFF"/>
<path d="M372.099 78.4697C399.19 78.4697 421.151 56.5084 421.151 29.4176C421.151 2.32679 399.19 -19.6348 372.099 -19.6348C345.008 -19.6348 323.047 2.32679 323.047 29.4176C323.047 56.5084 345.008 78.4697 372.099 78.4697Z" fill="#169EFF"/>
<path d="M364.883 79.5798C392.127 79.5798 414.213 57.4943 414.213 30.2502C414.213 3.00615 392.127 -19.0796 364.883 -19.0796C337.639 -19.0796 315.553 3.00615 315.553 30.2502C315.553 57.4943 337.639 79.5798 364.883 79.5798Z" fill="#169DFF"/>
<path d="M358.57 81.7999C385.967 81.7999 408.177 59.59 408.177 32.1927C408.177 4.79537 385.967 -17.4146 358.57 -17.4146C331.172 -17.4146 308.962 4.79537 308.962 32.1927C308.962 59.59 331.172 81.7999 358.57 81.7999Z" fill="#179CFF"/>
<path d="M353.227 85.0611C380.778 85.0611 403.112 62.7268 403.112 35.1762C403.112 7.62561 380.778 -14.7085 353.227 -14.7085C325.677 -14.7085 303.342 7.62561 303.342 35.1762C303.342 62.7268 325.677 85.0611 353.227 85.0611Z" fill="#179BFF"/>
<path d="M348.787 89.5015C376.529 89.5015 399.019 67.0121 399.019 39.2699C399.019 11.5277 376.529 -10.9619 348.787 -10.9619C321.045 -10.9619 298.555 11.5277 298.555 39.2699C298.555 67.0121 321.045 89.5015 348.787 89.5015Z" fill="#189AFF"/>
<path d="M345.318 94.7048C373.213 94.7048 395.827 72.091 395.827 44.1956C395.827 16.3001 373.213 -6.31348 345.318 -6.31348C317.422 -6.31348 294.809 16.3001 294.809 44.1956C294.809 72.091 317.422 94.7048 345.318 94.7048Z" fill="#189AFF"/>
<path d="M342.681 100.811C370.73 100.811 393.468 78.0727 393.468 50.024C393.468 21.9753 370.73 -0.762695 342.681 -0.762695C314.633 -0.762695 291.895 21.9753 291.895 50.024C291.895 78.0727 314.633 100.811 342.681 100.811Z" fill="#1999FF"/>
<path d="M340.947 107.679C369.149 107.679 392.011 84.8171 392.011 56.6151C392.011 28.4131 369.149 5.55078 340.947 5.55078C312.745 5.55078 289.883 28.4131 289.883 56.6151C289.883 84.8171 312.745 107.679 340.947 107.679Z" fill="#1A98FF"/>
<path d="M340.114 115.172C368.47 115.172 391.456 92.1858 391.456 63.8305C391.456 35.4753 368.47 12.4888 340.114 12.4888C311.759 12.4888 288.772 35.4753 288.772 63.8305C288.772 92.1858 311.759 115.172 340.114 115.172Z" fill="#1A97FF"/>
<path d="M340.184 123.359C368.692 123.359 391.803 100.249 391.803 71.74C391.803 43.2315 368.692 20.1206 340.184 20.1206C311.675 20.1206 288.564 43.2315 288.564 71.74C288.564 100.249 311.675 123.359 340.184 123.359Z" fill="#1B97FF"/>
<path d="M341.016 132.171C369.716 132.171 392.982 108.905 392.982 80.2046C392.982 51.5044 369.716 28.2383 341.016 28.2383C312.316 28.2383 289.05 51.5044 289.05 80.2046C289.05 108.905 312.316 132.171 341.016 132.171Z" fill="#1B96FF"/>
<path d="M342.751 141.329C371.604 141.329 394.994 117.938 394.994 89.0851C394.994 60.2317 371.604 36.8413 342.751 36.8413C313.897 36.8413 290.507 60.2317 290.507 89.0851C290.507 117.938 313.897 141.329 342.751 141.329Z" fill="#1C95FF"/>
<path d="M345.318 150.903C374.325 150.903 397.839 127.389 397.839 98.3821C397.839 69.3754 374.325 45.8608 345.318 45.8608C316.311 45.8608 292.797 69.3754 292.797 98.3821C292.797 127.389 316.311 150.903 345.318 150.903Z" fill="#1C94FF"/>
<path d="M348.717 160.825C377.877 160.825 401.516 137.186 401.516 108.026C401.516 78.8663 377.877 55.2275 348.717 55.2275C319.558 55.2275 295.919 78.8663 295.919 108.026C295.919 137.186 319.558 160.825 348.717 160.825Z" fill="#1D93FF"/>
<path d="M352.95 170.954C382.263 170.954 406.026 147.191 406.026 117.878C406.026 88.5648 382.263 64.8018 352.95 64.8018C323.636 64.8018 299.873 88.5648 299.873 117.878C299.873 147.191 323.636 170.954 352.95 170.954Z" fill="#1D93FF"/>
<path d="M357.945 181.292C387.412 181.292 411.299 157.405 411.299 127.938C411.299 98.4719 387.412 74.5845 357.945 74.5845C328.479 74.5845 304.591 98.4719 304.591 127.938C304.591 157.405 328.479 181.292 357.945 181.292Z" fill="#1E92FF"/>
<path d="M363.704 191.699C393.323 191.699 417.335 167.688 417.335 138.068C417.335 108.448 393.323 84.4365 363.704 84.4365C334.084 84.4365 310.072 108.448 310.072 138.068C310.072 167.688 334.084 191.699 363.704 191.699Z" fill="#1F91FF"/>
<path d="M370.226 202.176C400.037 202.176 424.204 178.009 424.204 148.198C424.204 118.386 400.037 94.2192 370.226 94.2192C340.414 94.2192 316.247 118.386 316.247 148.198C316.247 178.009 340.414 202.176 370.226 202.176Z" fill="#1F90FF"/>
<path d="M377.58 212.513C407.545 212.513 431.836 188.222 431.836 158.258C431.836 128.293 407.545 104.002 377.58 104.002C347.615 104.002 323.324 128.293 323.324 158.258C323.324 188.222 347.615 212.513 377.58 212.513Z" fill="#2090FF"/>
<path d="M385.628 222.713C415.746 222.713 440.161 198.297 440.161 168.179C440.161 138.061 415.746 113.646 385.628 113.646C355.51 113.646 331.095 138.061 331.095 168.179C331.095 198.297 355.51 222.713 385.628 222.713Z" fill="#208FFF"/>
<path d="M394.439 232.703C424.711 232.703 449.25 208.164 449.25 177.892C449.25 147.621 424.711 123.082 394.439 123.082C364.168 123.082 339.629 147.621 339.629 177.892C339.629 208.164 364.168 232.703 394.439 232.703Z" fill="#218EFF"/>
<path d="M404.014 242.416C434.438 242.416 459.102 217.752 459.102 187.328C459.102 156.904 434.438 132.24 404.014 132.24C373.589 132.24 348.926 156.904 348.926 187.328C348.926 217.752 373.589 242.416 404.014 242.416Z" fill="#218DFF"/>
<path d="M414.213 251.783C444.791 251.783 469.579 226.995 469.579 196.417C469.579 165.839 444.791 141.051 414.213 141.051C383.635 141.051 358.847 165.839 358.847 196.417C358.847 226.995 383.635 251.783 414.213 251.783Z" fill="#228CFF"/>
<path d="M425.175 260.803C455.945 260.803 480.888 235.859 480.888 205.09C480.888 174.32 455.945 149.377 425.175 149.377C394.406 149.377 369.462 174.32 369.462 205.09C369.462 235.859 394.406 260.803 425.175 260.803Z" fill="#238CFF"/>
<path d="M436.831 269.128C467.754 269.128 492.821 244.06 492.821 213.138C492.821 182.215 467.754 157.147 436.831 157.147C405.908 157.147 380.841 182.215 380.841 213.138C380.841 244.06 405.908 269.128 436.831 269.128Z" fill="#238BFF"/>
<path d="M449.181 276.968C480.257 276.968 505.449 251.776 505.449 220.7C505.449 189.625 480.257 164.433 449.181 164.433C418.105 164.433 392.913 189.625 392.913 220.7C392.913 251.776 418.105 276.968 449.181 276.968Z" fill="#248AFF"/>
<path d="M462.155 284.115C493.384 284.115 518.7 258.798 518.7 227.569C518.7 196.34 493.384 171.024 462.155 171.024C430.926 171.024 405.61 196.34 405.61 227.569C405.61 258.798 430.926 284.115 462.155 284.115Z" fill="#2489FF"/>
<path d="M475.823 290.498C507.205 290.498 532.646 265.057 532.646 233.675C532.646 202.292 507.205 176.852 475.823 176.852C444.441 176.852 419 202.292 419 233.675C419 265.057 444.441 290.498 475.823 290.498Z" fill="#2589FF"/>
<path d="M490.116 296.048C521.651 296.048 547.216 270.483 547.216 238.948C547.216 207.412 521.651 181.847 490.116 181.847C458.58 181.847 433.015 207.412 433.015 238.948C433.015 270.483 458.58 296.048 490.116 296.048Z" fill="#2588FF"/>
<path d="M505.102 300.766C536.829 300.766 562.549 275.046 562.549 243.318C562.549 211.591 536.829 185.871 505.102 185.871C473.374 185.871 447.654 211.591 447.654 243.318C447.654 275.046 473.374 300.766 505.102 300.766Z" fill="#2687FF"/>
<path d="M520.643 304.512C552.524 304.512 578.368 278.668 578.368 246.787C578.368 214.907 552.524 189.062 520.643 189.062C488.762 189.062 462.918 214.907 462.918 246.787C462.918 278.668 488.762 304.512 520.643 304.512Z" fill="#2786FF"/>
<path d="M536.809 307.149C568.843 307.149 594.811 281.18 594.811 249.146C594.811 217.113 568.843 191.144 536.809 191.144C504.775 191.144 478.806 217.113 478.806 249.146C478.806 281.18 504.775 307.149 536.809 307.149Z" fill="#2785FF"/>
<path d="M553.599 308.675C585.786 308.675 611.879 282.583 611.879 250.396C611.879 218.208 585.786 192.116 553.599 192.116C521.412 192.116 495.319 218.208 495.319 250.396C495.319 282.583 521.412 308.675 553.599 308.675Z" fill="#2885FF"/>
<path d="M569.348 309.091C601.689 309.091 627.906 282.874 627.906 250.534C627.906 218.194 601.689 191.977 569.348 191.977C537.008 191.977 510.791 218.194 510.791 250.534C510.791 282.874 537.008 309.091 569.348 309.091Z" fill="#2884FF"/>
<path d="M583.016 308.744C615.51 308.744 641.851 282.403 641.851 249.909C641.851 217.416 615.51 191.075 583.016 191.075C550.523 191.075 524.182 217.416 524.182 249.909C524.182 282.403 550.523 308.744 583.016 308.744Z" fill="#2983FF"/>
<path d="M596.268 307.842C628.953 307.842 655.45 281.346 655.45 248.661C655.45 215.976 628.953 189.479 596.268 189.479C563.583 189.479 537.086 215.976 537.086 248.661C537.086 281.346 563.583 307.842 596.268 307.842Z" fill="#2982FF"/>
<path d="M609.242 306.316C642.081 306.316 668.702 279.695 668.702 246.857C668.702 214.018 642.081 187.397 609.242 187.397C576.404 187.397 549.783 214.018 549.783 246.857C549.783 279.695 576.404 306.316 609.242 306.316Z" fill="#2A82FF"/>
<path d="M621.8 304.235C654.792 304.235 681.537 277.49 681.537 244.498C681.537 211.506 654.792 184.761 621.8 184.761C588.808 184.761 562.063 211.506 562.063 244.498C562.063 277.49 588.808 304.235 621.8 304.235Z" fill="#2B81FF"/>
<path d="M634.011 301.529C667.156 301.529 694.026 274.66 694.026 241.515C694.026 208.37 667.156 181.5 634.011 181.5C600.866 181.5 573.997 208.37 573.997 241.515C573.997 274.66 600.866 301.529 634.011 301.529Z" fill="#2B80FF"/>
<path d="M645.806 298.338C679.104 298.338 706.098 271.344 706.098 238.046C706.098 204.748 679.104 177.754 645.806 177.754C612.508 177.754 585.514 204.748 585.514 238.046C585.514 271.344 612.508 298.338 645.806 298.338Z" fill="#2C7FFF"/>
<path d="M657.254 294.66C690.705 294.66 717.823 267.543 717.823 234.091C717.823 200.639 690.705 173.521 657.254 173.521C623.802 173.521 596.684 200.639 596.684 234.091C596.684 267.543 623.802 294.66 657.254 294.66Z" fill="#2C7EFF"/>
<path d="M668.285 290.498C701.928 290.498 729.202 263.225 729.202 229.581C729.202 195.938 701.928 168.665 668.285 168.665C634.642 168.665 607.369 195.938 607.369 229.581C607.369 263.225 634.642 290.498 668.285 290.498Z" fill="#2D7EFF"/>
<path d="M678.97 285.849C712.766 285.849 740.164 258.452 740.164 224.655C740.164 190.859 712.766 163.461 678.97 163.461C645.174 163.461 617.776 190.859 617.776 224.655C617.776 258.452 645.174 285.849 678.97 285.849Z" fill="#2D7DFF"/>
<path d="M689.238 280.715C723.188 280.715 750.71 253.193 750.71 219.243C750.71 185.294 723.188 157.772 689.238 157.772C655.289 157.772 627.767 185.294 627.767 219.243C627.767 253.193 655.289 280.715 689.238 280.715Z" fill="#2E7CFF"/>
<path d="M699.09 275.095C733.193 275.095 760.839 247.449 760.839 213.346C760.839 179.243 733.193 151.597 699.09 151.597C664.987 151.597 637.341 179.243 637.341 213.346C637.341 247.449 664.987 275.095 699.09 275.095Z" fill="#2F7BFF"/>
<path d="M708.596 269.128C742.852 269.128 770.622 241.358 770.622 207.102C770.622 172.845 742.852 145.075 708.596 145.075C674.339 145.075 646.569 172.845 646.569 207.102C646.569 241.358 674.339 269.128 708.596 269.128Z" fill="#2F7BFF"/>
<path d="M717.754 262.814C752.163 262.814 780.058 234.92 780.058 200.511C780.058 166.101 752.163 138.207 717.754 138.207C683.344 138.207 655.45 166.101 655.45 200.511C655.45 234.92 683.344 262.814 717.754 262.814Z" fill="#307AFF"/>
<path d="M726.426 256.084C761.027 256.084 789.077 228.035 789.077 193.434C789.077 158.832 761.027 130.783 726.426 130.783C691.825 130.783 663.776 158.832 663.776 193.434C663.776 228.035 691.825 256.084 726.426 256.084Z" fill="#3079FF"/>
<path d="M734.752 249.008C769.506 249.008 797.68 220.834 797.68 186.079C797.68 151.325 769.506 123.151 734.752 123.151C699.998 123.151 671.824 151.325 671.824 186.079C671.824 220.834 699.998 249.008 734.752 249.008Z" fill="#3178FF"/>
<path d="M742.662 241.653C777.569 241.653 805.867 213.355 805.867 178.447C805.867 143.54 777.569 115.242 742.662 115.242C707.754 115.242 679.456 143.54 679.456 178.447C679.456 213.355 707.754 241.653 742.662 241.653Z" fill="#3177FF"/>
<path d="M750.155 233.883C785.216 233.883 813.638 205.46 813.638 170.399C813.638 135.339 785.216 106.916 750.155 106.916C715.094 106.916 686.671 135.339 686.671 170.399C686.671 205.46 715.094 233.883 750.155 233.883Z" fill="#3277FF"/>
<path d="M757.301 225.904C792.515 225.904 821.062 197.357 821.062 162.143C821.062 126.929 792.515 98.3823 757.301 98.3823C722.087 98.3823 693.54 126.929 693.54 162.143C693.54 197.357 722.087 225.904 757.301 225.904Z" fill="#3276FF"/>
<path d="M763.961 217.648C799.329 217.648 828 188.977 828 153.609C828 118.242 799.329 89.5708 763.961 89.5708C728.594 89.5708 699.923 118.242 699.923 153.609C699.923 188.977 728.594 217.648 763.961 217.648Z" fill="#3375FF"/>
<path d="M770.275 209.183C805.834 209.183 834.66 180.357 834.66 144.798C834.66 109.239 805.834 80.4126 770.275 80.4126C734.716 80.4126 705.89 109.239 705.89 144.798C705.89 180.357 734.716 209.183 770.275 209.183Z" fill="#3474FF"/>
<path d="M776.172 200.441C811.885 200.441 840.835 171.49 840.835 135.778C840.835 100.066 811.885 71.1152 776.172 71.1152C740.46 71.1152 711.51 100.066 711.51 135.778C711.51 171.49 740.46 200.441 776.172 200.441Z" fill="#3474FF"/>
<path d="M781.584 191.491C817.45 191.491 846.524 162.416 846.524 126.551C846.524 90.6852 817.45 61.6104 781.584 61.6104C745.718 61.6104 716.644 90.6852 716.644 126.551C716.644 162.416 745.718 191.491 781.584 191.491Z" fill="#3573FF"/>
<path d="M786.649 182.333C822.668 182.333 851.867 153.134 851.867 117.115C851.867 81.096 822.668 51.897 786.649 51.897C750.63 51.897 721.431 81.096 721.431 117.115C721.431 153.134 750.63 182.333 786.649 182.333Z" fill="#3572FF"/>
<path d="M791.297 173.036C827.469 173.036 856.793 143.712 856.793 107.54C856.793 71.3682 827.469 42.0449 791.297 42.0449C755.125 42.0449 725.802 71.3682 725.802 107.54C725.802 143.712 755.125 173.036 791.297 173.036Z" fill="#3671FF"/>
<path d="M795.46 163.6C831.786 163.6 861.233 134.153 861.233 97.8272C861.233 61.5018 831.786 32.0542 795.46 32.0542C759.135 32.0542 729.687 61.5018 729.687 97.8272C729.687 134.153 759.135 163.6 795.46 163.6Z" fill="#3670FF"/>
<path d="M799.276 154.095C835.793 154.095 865.396 124.492 865.396 87.9749C865.396 51.4579 835.793 21.855 799.276 21.855C762.759 21.855 733.156 51.4579 733.156 87.9749C733.156 124.492 762.759 154.095 799.276 154.095Z" fill="#3770FF"/>
<path d="M802.607 144.382C839.277 144.382 869.004 114.655 869.004 77.9845C869.004 41.3142 839.277 11.5869 802.607 11.5869C765.936 11.5869 736.209 41.3142 736.209 77.9845C736.209 114.655 765.936 144.382 802.607 144.382Z" fill="#386FFF"/>
<path d="M805.52 134.668C842.344 134.668 872.195 104.817 872.195 67.9932C872.195 31.1696 842.344 1.31836 805.52 1.31836C768.697 1.31836 738.846 31.1696 738.846 67.9932C738.846 104.817 768.697 134.668 805.52 134.668Z" fill="#386EFF"/>
<path d="M808.018 124.816C844.995 124.816 874.971 94.8404 874.971 57.8636C874.971 20.8868 844.995 -9.08887 808.018 -9.08887C771.041 -9.08887 741.066 20.8868 741.066 57.8636C741.066 94.8404 771.041 124.816 808.018 124.816Z" fill="#396DFF"/>
<path d="M810.1 114.964C847.23 114.964 877.33 84.8644 877.33 47.7343C877.33 10.6042 847.23 -19.4956 810.1 -19.4956C772.969 -19.4956 742.87 10.6042 742.87 47.7343C742.87 84.8644 772.969 114.964 810.1 114.964Z" fill="#396DFF"/>
<path d="M811.765 105.043C849.048 105.043 879.272 74.8187 879.272 37.5354C879.272 0.252003 849.048 -29.9722 811.765 -29.9722C774.481 -29.9722 744.257 0.252003 744.257 37.5354C744.257 74.8187 774.481 105.043 811.765 105.043Z" fill="#3A6CFF"/>
<path d="M812.944 95.2601C850.419 95.2601 880.799 64.8806 880.799 27.4057C880.799 -10.0692 850.419 -40.4487 812.944 -40.4487C775.469 -40.4487 745.09 -10.0692 745.09 27.4057C745.09 64.8806 775.469 95.2601 812.944 95.2601Z" fill="#3A6BFF"/>
<path d="M813.707 84.6446C851.336 84.6446 881.839 54.141 881.839 16.5127C881.839 -21.1155 851.336 -51.6191 813.707 -51.6191C776.079 -51.6191 745.575 -21.1155 745.575 16.5127C745.575 54.141 776.079 84.6446 813.707 84.6446Z" fill="#3B6AFF"/>
<path d="M814.054 71.6704C851.836 71.6704 882.464 41.0424 882.464 3.2609C882.464 -34.5206 851.836 -65.1484 814.054 -65.1484C776.273 -65.1484 745.645 -34.5206 745.645 3.2609C745.645 41.0424 776.273 71.6704 814.054 71.6704Z" fill="#3C6AFF"/>
<path d="M813.707 58.8349C851.642 58.8349 882.394 28.0827 882.394 -9.8521C882.394 -47.7869 851.642 -78.5391 813.707 -78.5391C775.773 -78.5391 745.021 -47.7869 745.021 -9.8521C745.021 28.0827 775.773 58.8349 813.707 58.8349Z" fill="#3C69FF"/>
<path d="M812.667 46.2078C850.755 46.2078 881.631 15.3313 881.631 -22.7568C881.631 -60.8448 850.755 -91.7212 812.667 -91.7212C774.579 -91.7212 743.702 -60.8448 743.702 -22.7568C743.702 15.3313 774.579 46.2078 812.667 46.2078Z" fill="#3D68FF"/>
<path d="M811.071 33.7886C849.312 33.7886 880.313 2.78804 880.313 -35.4533C880.313 -73.6946 849.312 -104.695 811.071 -104.695C772.83 -104.695 741.829 -73.6946 741.829 -35.4533C741.829 2.78804 772.83 33.7886 811.071 33.7886Z" fill="#3D67FF"/>
<path d="M808.781 21.7165C847.214 21.7165 878.37 -9.43958 878.37 -47.8725C878.37 -86.3054 847.214 -117.461 808.781 -117.461C770.349 -117.461 739.193 -86.3054 739.193 -47.8725C739.193 -9.43958 770.349 21.7165 808.781 21.7165Z" fill="#3E66FF"/>
<path d="M805.937 9.92177C844.523 9.92177 875.803 -21.3585 875.803 -59.9446C875.803 -98.5308 844.523 -129.811 805.937 -129.811C767.351 -129.811 736.07 -98.5308 736.07 -59.9446C736.07 -21.3585 767.351 9.92177 805.937 9.92177Z" fill="#3E66FF"/>
<path d="M593.84 1.31844C637.675 1.31844 673.211 -34.2175 673.211 -78.0533C673.211 -121.889 637.675 -157.425 593.84 -157.425C550.004 -157.425 514.468 -121.889 514.468 -78.0533C514.468 -34.2175 550.004 1.31844 593.84 1.31844Z" fill="#514CFF"/>
<path d="M592.105 10.9624C636.094 10.9624 671.754 -24.6978 671.754 -68.6868C671.754 -112.676 636.094 -148.336 592.105 -148.336C548.116 -148.336 512.456 -112.676 512.456 -68.6868C512.456 -24.6978 548.116 10.9624 592.105 10.9624Z" fill="#524BFF"/>
<path d="M590.856 20.8837C634.999 20.8837 670.783 -14.9007 670.783 -59.0429C670.783 -103.185 634.999 -138.97 590.856 -138.97C546.714 -138.97 510.93 -103.185 510.93 -59.0429C510.93 -14.9007 546.714 20.8837 590.856 20.8837Z" fill="#524AFF"/>
<path d="M590.024 31.0827C634.358 31.0827 670.297 -4.85698 670.297 -49.1908C670.297 -93.5247 634.358 -129.464 590.024 -129.464C545.69 -129.464 509.75 -93.5247 509.75 -49.1908C509.75 -4.85698 545.69 31.0827 590.024 31.0827Z" fill="#534AFF"/>
<path d="M589.677 41.4898C634.164 41.4898 670.228 5.42581 670.228 -39.0613C670.228 -83.5485 634.164 -119.612 589.677 -119.612C545.19 -119.612 509.126 -83.5485 509.126 -39.0613C509.126 5.42581 545.19 41.4898 589.677 41.4898Z" fill="#5349FF"/>
<path d="M589.746 52.1049C634.387 52.1049 670.575 15.9168 670.575 -28.7236C670.575 -73.364 634.387 -109.552 589.746 -109.552C545.106 -109.552 508.918 -73.364 508.918 -28.7236C508.918 15.9168 545.106 52.1049 589.746 52.1049Z" fill="#5448FF"/>
<path d="M590.301 62.8593C635.095 62.8593 671.407 26.5467 671.407 -18.247C671.407 -63.0406 635.095 -99.353 590.301 -99.353C545.508 -99.353 509.195 -63.0406 509.195 -18.247C509.195 26.5467 545.508 62.8593 590.301 62.8593Z" fill="#5547FF"/>
<path d="M591.273 73.7517C636.22 73.7517 672.656 37.315 672.656 -7.63194C672.656 -52.5789 636.22 -89.0156 591.273 -89.0156C546.326 -89.0156 509.889 -52.5789 509.889 -7.63194C509.889 37.315 546.326 73.7517 591.273 73.7517Z" fill="#5547FF"/>
<path d="M592.799 84.7832C637.899 84.7832 674.46 48.2223 674.46 3.12208C674.46 -41.9781 637.899 -78.5391 592.799 -78.5391C547.699 -78.5391 511.138 -41.9781 511.138 3.12208C511.138 48.2223 547.699 84.7832 592.799 84.7832Z" fill="#5646FF"/>
<path d="M594.672 96.0231C639.964 96.0231 676.68 59.3067 676.68 14.0149C676.68 -31.2769 639.964 -67.9932 594.672 -67.9932C549.38 -67.9932 512.664 -31.2769 512.664 14.0149C512.664 59.3067 549.38 96.0231 594.672 96.0231Z" fill="#5645FF"/>
<path d="M597.031 107.193C642.476 107.193 679.317 70.3528 679.317 24.9077C679.317 -20.5373 642.476 -57.3779 597.031 -57.3779C551.586 -57.3779 514.746 -20.5373 514.746 24.9077C514.746 70.3528 551.586 107.193 597.031 107.193Z" fill="#5744FF"/>
<path d="M599.876 118.433C645.474 118.433 682.439 81.4681 682.439 35.8698C682.439 -9.72859 645.474 -46.6934 599.876 -46.6934C554.278 -46.6934 517.313 -9.72859 517.313 35.8698C517.313 81.4681 554.278 118.433 599.876 118.433Z" fill="#5743FF"/>
<path d="M603.206 129.742C648.958 129.742 686.047 92.6534 686.047 46.9018C686.047 1.15015 648.958 -35.939 603.206 -35.939C557.455 -35.939 520.365 1.15015 520.365 46.9018C520.365 92.6534 557.455 129.742 603.206 129.742Z" fill="#5843FF"/>
<path d="M606.953 140.982C652.858 140.982 690.071 103.769 690.071 57.8638C690.071 11.9589 652.858 -25.2544 606.953 -25.2544C561.048 -25.2544 523.835 11.9589 523.835 57.8638C523.835 103.769 561.048 140.982 606.953 140.982Z" fill="#5842FF"/>
<path d="M611.116 152.152C657.174 152.152 694.511 114.815 694.511 68.7565C694.511 22.6983 657.174 -14.6392 611.116 -14.6392C565.057 -14.6392 527.72 22.6983 527.72 68.7565C527.72 114.815 565.057 152.152 611.116 152.152Z" fill="#5941FF"/>
<path d="M615.833 163.392C662.083 163.392 699.576 125.899 699.576 79.6493C699.576 33.3995 662.083 -4.09326 615.833 -4.09326C569.584 -4.09326 532.091 33.3995 532.091 79.6493C532.091 125.899 569.584 163.392 615.833 163.392Z" fill="#5A40FF"/>
<path d="M620.968 174.424C667.371 174.424 704.988 136.807 704.988 90.4035C704.988 44.0005 667.371 6.3833 620.968 6.3833C574.565 6.3833 536.948 44.0005 536.948 90.4035C536.948 136.807 574.565 174.424 620.968 174.424Z" fill="#5A40FF"/>
<path d="M626.518 185.385C673.074 185.385 710.816 147.644 710.816 101.088C710.816 54.5314 673.074 16.79 626.518 16.79C579.962 16.79 542.22 54.5314 542.22 101.088C542.22 147.644 579.962 185.385 626.518 185.385Z" fill="#5B3FFF"/>
<path d="M632.624 196.139C679.333 196.139 717.199 158.274 717.199 111.564C717.199 64.8548 679.333 26.9893 632.624 26.9893C585.914 26.9893 548.048 64.8548 548.048 111.564C548.048 158.274 585.914 196.139 632.624 196.139Z" fill="#5B3EFF"/>
<path d="M639.145 206.755C686.008 206.755 723.998 168.765 723.998 121.902C723.998 75.0395 686.008 37.0498 639.145 37.0498C592.283 37.0498 554.293 75.0395 554.293 121.902C554.293 168.765 592.283 206.755 639.145 206.755Z" fill="#5C3DFF"/>
<path d="M646.153 217.162C693.169 217.162 731.283 179.048 731.283 132.032C731.283 85.0154 693.169 46.9014 646.153 46.9014C599.137 46.9014 561.023 85.0154 561.023 132.032C561.023 179.048 599.137 217.162 646.153 217.162Z" fill="#5C3CFF"/>
<path d="M653.577 227.43C700.784 227.43 739.054 189.161 739.054 141.953C739.054 94.7454 700.784 56.4761 653.577 56.4761C606.369 56.4761 568.099 94.7454 568.099 141.953C568.099 189.161 606.369 227.43 653.577 227.43Z" fill="#5D3CFF"/>
<path d="M661.486 237.352C708.847 237.352 747.241 198.958 747.241 151.597C747.241 104.236 708.847 65.8428 661.486 65.8428C614.125 65.8428 575.731 104.236 575.731 151.597C575.731 198.958 614.125 237.352 661.486 237.352Z" fill="#5E3BFF"/>
<path d="M669.881 246.995C717.395 246.995 755.913 208.478 755.913 160.963C755.913 113.449 717.395 74.9312 669.881 74.9312C622.367 74.9312 583.849 113.449 583.849 160.963C583.849 208.478 622.367 246.995 669.881 246.995Z" fill="#5E3AFF"/>
<path d="M678.693 256.362C726.36 256.362 765.002 217.72 765.002 170.052C765.002 122.385 726.36 83.7427 678.693 83.7427C631.025 83.7427 592.383 122.385 592.383 170.052C592.383 217.72 631.025 256.362 678.693 256.362Z" fill="#5F39FF"/>
<path d="M688.059 265.382C735.88 265.382 774.646 226.615 774.646 178.795C774.646 130.974 735.88 92.2075 688.059 92.2075C640.238 92.2075 601.472 130.974 601.472 178.795C601.472 226.615 640.238 265.382 688.059 265.382Z" fill="#5F39FF"/>
<path d="M697.842 273.985C745.816 273.985 784.706 235.094 784.706 187.12C784.706 139.146 745.816 100.255 697.842 100.255C649.867 100.255 610.977 139.146 610.977 187.12C610.977 235.094 649.867 273.985 697.842 273.985Z" fill="#6038FF"/>
<path d="M708.041 282.311C756.206 282.311 795.252 243.264 795.252 195.099C795.252 146.933 756.206 107.887 708.041 107.887C659.875 107.887 620.829 146.933 620.829 195.099C620.829 243.264 659.875 282.311 708.041 282.311Z" fill="#6037FF"/>
<path d="M718.794 290.151C767.113 290.151 806.284 250.981 806.284 202.662C806.284 154.343 767.113 115.172 718.794 115.172C670.476 115.172 631.305 154.343 631.305 202.662C631.305 250.981 670.476 290.151 718.794 290.151Z" fill="#6136FF"/>
<path d="M729.965 297.574C778.437 297.574 817.731 258.28 817.731 209.808C817.731 161.335 778.437 122.041 729.965 122.041C681.493 122.041 642.198 161.335 642.198 209.808C642.198 258.28 681.493 297.574 729.965 297.574Z" fill="#6236FF"/>
<path d="M741.621 304.512C790.246 304.512 829.665 265.093 829.665 216.468C829.665 167.842 790.246 128.424 741.621 128.424C692.995 128.424 653.577 167.842 653.577 216.468C653.577 265.093 692.995 304.512 741.621 304.512Z" fill="#6235FF"/>
<path d="M753.762 310.965C802.541 310.965 842.084 271.422 842.084 222.643C842.084 173.864 802.541 134.321 753.762 134.321C704.984 134.321 665.441 173.864 665.441 222.643C665.441 271.422 704.984 310.965 753.762 310.965Z" fill="#6334FF"/>
<path d="M766.39 316.862C815.322 316.862 854.989 277.195 854.989 228.263C854.989 179.331 815.322 139.664 766.39 139.664C717.458 139.664 677.79 179.331 677.79 228.263C677.79 277.195 717.458 316.862 766.39 316.862Z" fill="#6333FF"/>
<path d="M779.433 322.274C828.557 322.274 868.379 282.452 868.379 233.328C868.379 184.204 828.557 144.382 779.433 144.382C730.31 144.382 690.487 184.204 690.487 233.328C690.487 282.452 730.31 322.274 779.433 322.274Z" fill="#6432FF"/>
<path d="M792.963 327.061C842.239 327.061 882.186 287.114 882.186 237.838C882.186 188.561 842.239 148.614 792.963 148.614C743.686 148.614 703.739 188.561 703.739 237.838C703.739 287.114 743.686 327.061 792.963 327.061Z" fill="#6432FF"/>
<path d="M806.977 331.224C856.408 331.224 896.479 291.153 896.479 241.723C896.479 192.293 856.408 152.222 806.977 152.222C757.547 152.222 717.476 192.293 717.476 241.723C717.476 291.153 757.547 331.224 806.977 331.224Z" fill="#6531FF"/>
<path d="M821.478 334.832C871.061 334.832 911.257 294.636 911.257 245.053C911.257 195.47 871.061 155.274 821.478 155.274C771.895 155.274 731.699 195.47 731.699 245.053C731.699 294.636 771.895 334.832 821.478 334.832Z" fill="#6630FF"/>
<path d="M836.464 337.676C886.201 337.676 926.521 297.357 926.521 247.62C926.521 197.884 886.201 157.564 836.464 157.564C786.728 157.564 746.408 197.884 746.408 247.62C746.408 297.357 786.728 337.676 836.464 337.676Z" fill="#662FFF"/>
<path d="M851.936 339.897C901.826 339.897 942.27 299.453 942.27 249.563C942.27 199.673 901.826 159.229 851.936 159.229C802.046 159.229 761.603 199.673 761.603 249.563C761.603 299.453 802.046 339.897 851.936 339.897Z" fill="#672FFF"/>
<path d="M867.824 341.492C917.906 341.492 958.505 300.893 958.505 250.812C958.505 200.73 917.906 160.131 867.824 160.131C817.743 160.131 777.144 200.73 777.144 250.812C777.144 300.893 817.743 341.492 867.824 341.492Z" fill="#672EFF"/>
<path d="M884.198 342.256C934.433 342.256 975.156 301.532 975.156 251.297C975.156 201.063 934.433 160.339 884.198 160.339C833.963 160.339 793.24 201.063 793.24 251.297C793.24 301.532 833.963 342.256 884.198 342.256Z" fill="#682DFF"/>
<path d="M899.254 342.325C949.642 342.325 990.49 301.477 990.49 251.089C990.49 200.701 949.642 159.854 899.254 159.854C848.866 159.854 808.018 200.701 808.018 251.089C808.018 301.477 848.866 342.325 899.254 342.325Z" fill="#682CFF"/>
<path d="M909.383 341.909C959.925 341.909 1000.9 300.937 1000.9 250.396C1000.9 199.854 959.925 158.882 909.383 158.882C858.842 158.882 817.87 199.854 817.87 250.396C817.87 300.937 858.842 341.909 909.383 341.909Z" fill="#692BFF"/>
<path d="M919.513 340.938C970.208 340.938 1011.3 299.841 1011.3 249.147C1011.3 198.452 970.208 157.356 919.513 157.356C868.819 157.356 827.722 198.452 827.722 249.147C827.722 299.841 868.819 340.938 919.513 340.938Z" fill="#692BFF"/>
<path d="M929.573 339.48C980.421 339.48 1021.64 298.26 1021.64 247.412C1021.64 196.564 980.421 155.344 929.573 155.344C878.725 155.344 837.505 196.564 837.505 247.412C837.505 298.26 878.725 339.48 929.573 339.48Z" fill="#6A2AFF"/>
<path d="M939.634 337.538C990.673 337.538 1032.05 296.162 1032.05 245.123C1032.05 194.083 990.673 152.708 939.634 152.708C888.594 152.708 847.218 194.083 847.218 245.123C847.218 296.162 888.594 337.538 939.634 337.538Z" fill="#6B29FF"/>
<path d="M949.624 335.04C1000.82 335.04 1042.32 293.54 1042.32 242.347C1042.32 191.154 1000.82 149.654 949.624 149.654C898.432 149.654 856.932 191.154 856.932 242.347C856.932 293.54 898.432 335.04 949.624 335.04Z" fill="#6B28FF"/>
<path d="M959.685 331.987C1011.03 331.987 1052.65 290.363 1052.65 239.017C1052.65 187.671 1011.03 146.047 959.685 146.047C908.339 146.047 866.714 187.671 866.714 239.017C866.714 290.363 908.339 331.987 959.685 331.987Z" fill="#6C28FF"/>
<path d="M969.675 328.518C1021.17 328.518 1062.92 286.77 1062.92 235.27C1062.92 183.771 1021.17 142.022 969.675 142.022C918.176 142.022 876.428 183.771 876.428 235.27C876.428 286.77 918.176 328.518 969.675 328.518Z" fill="#6C27FF"/>
<path d="M979.736 324.494C1031.39 324.494 1073.26 282.621 1073.26 230.969C1073.26 179.316 1031.39 137.443 979.736 137.443C928.083 137.443 886.21 179.316 886.21 230.969C886.21 282.621 928.083 324.494 979.736 324.494Z" fill="#6D26FF"/>
<path d="M989.796 319.984C1041.6 319.984 1083.6 277.988 1083.6 226.182C1083.6 174.376 1041.6 132.379 989.796 132.379C937.99 132.379 895.993 174.376 895.993 226.182C895.993 277.988 937.99 319.984 989.796 319.984Z" fill="#6D25FF"/>
<path d="M999.856 315.127C1051.85 315.127 1094.01 272.975 1094.01 220.978C1094.01 168.98 1051.85 126.828 999.856 126.828C947.859 126.828 905.706 168.98 905.706 220.978C905.706 272.975 947.859 315.127 999.856 315.127Z" fill="#6E24FF"/>
<path d="M1009.99 309.716C1062.14 309.716 1104.41 267.439 1104.41 215.289C1104.41 163.138 1062.14 120.861 1009.99 120.861C957.835 120.861 915.558 163.138 915.558 215.289C915.558 267.439 957.835 309.716 1009.99 309.716Z" fill="#6F24FF"/>
<path d="M1020.12 303.819C1072.42 303.819 1114.82 261.418 1114.82 209.114C1114.82 156.81 1072.42 114.409 1020.12 114.409C967.811 114.409 925.411 156.81 925.411 209.114C925.411 261.418 967.811 303.819 1020.12 303.819Z" fill="#6F23FF"/>
<path d="M1030.31 297.505C1082.77 297.505 1125.3 254.98 1125.3 202.523C1125.3 150.066 1082.77 107.541 1030.31 107.541C977.857 107.541 935.332 150.066 935.332 202.523C935.332 254.98 977.857 297.505 1030.31 297.505Z" fill="#7022FF"/>
<path d="M1040.51 290.775C1093.12 290.775 1135.77 248.126 1135.77 195.515C1135.77 142.905 1093.12 100.255 1040.51 100.255C987.903 100.255 945.253 142.905 945.253 195.515C945.253 248.126 987.903 290.775 1040.51 290.775Z" fill="#7021FF"/>
<path d="M1050.85 283.629C1103.61 283.629 1146.39 240.855 1146.39 188.091C1146.39 135.328 1103.61 92.5542 1050.85 92.5542C998.087 92.5542 955.314 135.328 955.314 188.091C955.314 240.855 998.087 283.629 1050.85 283.629Z" fill="#7121FF"/>
<path d="M1061.19 276.066C1114.14 276.066 1157.07 233.137 1157.07 180.182C1157.07 127.227 1114.14 84.2979 1061.19 84.2979C1008.23 84.2979 965.304 127.227 965.304 180.182C965.304 233.137 1008.23 276.066 1061.19 276.066Z" fill="#7120FF"/>
<path d="M1071.6 268.087C1124.7 268.087 1167.76 225.034 1167.76 171.925C1167.76 118.817 1124.7 75.7637 1071.6 75.7637C1018.49 75.7637 975.434 118.817 975.434 171.925C975.434 225.034 1018.49 268.087 1071.6 268.087Z" fill="#721FFF"/>
<path d="M1280.78 99.2843C1343.2 99.2843 1393.8 48.6828 1393.8 -13.7371C1393.8 -76.157 1343.2 -126.758 1280.78 -126.758C1218.36 -126.758 1167.76 -76.157 1167.76 -13.7371C1167.76 48.6828 1218.36 99.2843 1280.78 99.2843Z" fill="#721FFF"/>
<path d="M94.09 108.72C115.127 108.72 132.18 91.6666 132.18 70.63C132.18 49.5935 115.127 32.54 94.09 32.54C73.0535 32.54 56 49.5935 56 70.63C56 91.6666 73.0535 108.72 94.09 108.72Z" fill="#00BBFF"/>
</g>
</svg>
