<svg width="48" height="49" viewBox="0 0 48 49" fill="none" xmlns="http://www.w3.org/2000/svg">
<path d="M32.6966 31.9119C32.0454 31.9119 31.3942 31.6521 30.9154 31.1127C29.9769 30.0737 29.996 28.4553 30.992 27.4563L36.1824 22.2415L29.0575 21.1226C27.6977 20.9028 26.7783 19.6041 26.989 18.1855C27.1997 16.7669 28.4446 15.8079 29.8045 16.0277L41.8899 17.9458C42.8284 18.0856 43.5945 18.7849 43.8818 19.724C44.1691 20.6631 43.9201 21.6821 43.2497 22.3614L34.4395 31.1926C33.9223 31.6721 33.2903 31.9119 32.6966 31.9119Z" fill="#44BAFF"/>
<path d="M34.6698 44.5C34.2676 44.5 33.8654 44.4001 33.5015 44.2003L22.7185 38.1863C21.5119 37.527 21.0522 35.9486 21.7034 34.6898C22.3355 33.4311 23.8485 32.9515 25.0551 33.6309L31.3947 37.1673L30.2264 29.7547C29.9965 28.3362 30.9159 27.0175 32.2757 26.7777C33.6356 26.5379 34.8996 27.497 35.1295 28.9156L37.1213 41.4831C37.2746 42.4421 36.8915 43.4411 36.1254 44.0005C35.6849 44.3402 35.1869 44.5 34.6698 44.5Z" fill="#FF641A"/>
<path d="M29.4034 21.1631C28.4841 21.1631 27.603 20.6236 27.1817 19.7045L24.0406 12.9513L20.823 19.6646C20.2101 20.9433 18.7162 21.4628 17.4904 20.8034C16.2646 20.1641 15.7666 18.6056 16.3987 17.3269L21.8764 5.91834C22.2977 5.03922 23.1596 4.49976 24.0981 4.49976C24.1172 4.49976 24.1172 4.49976 24.1172 4.49976C25.0557 4.51974 25.9176 5.07917 26.339 5.95829L31.6826 17.4268C32.2763 18.7055 31.7592 20.264 30.5334 20.8833C30.1504 21.0831 29.7865 21.1631 29.4034 21.1631Z" fill="#FF641A"/>
<path d="M15.1725 31.7928C14.5405 31.7928 13.9084 31.553 13.4296 31.0535L4.73429 22.1024C4.06394 21.4031 3.83411 20.3841 4.1214 19.4451C4.40869 18.506 5.19395 17.8267 6.13243 17.7068L18.2369 15.9486C19.5968 15.7488 20.8417 16.7478 21.0332 18.1464C21.2248 19.565 20.2671 20.8637 18.9264 21.0635L11.8016 22.1024L16.9346 27.3772C17.9114 28.3762 17.9305 30.0145 16.9537 31.0335C16.4557 31.553 15.8237 31.7928 15.1725 31.7928Z" fill="#4C29D3"/>
<path d="M13.0273 44.3593C12.5101 44.3593 11.993 44.1995 11.5525 43.8598C10.7864 43.2804 10.4225 42.2814 10.5949 41.3223L12.74 28.7749C12.989 27.3763 14.2722 26.4373 15.6129 26.677C16.9536 26.9368 17.8538 28.2754 17.6239 29.674L16.3599 37.0666L22.7569 33.6101C23.9635 32.9507 25.4574 33.4502 26.0895 34.709C26.7215 35.9677 26.2427 37.5262 25.0361 38.1855L14.1764 44.0396C13.8125 44.2594 13.4103 44.3593 13.0273 44.3593Z" fill="#44BAFF"/>
</svg>
