<svg width="48" height="49" viewBox="0 0 48 49" fill="none" xmlns="http://www.w3.org/2000/svg">
<path d="M6.80986 25.4723C6.38823 25.0506 6.13247 24.4631 6.13201 23.8248C6.1311 22.548 7.1773 21.5018 8.46681 21.49L42.6839 21.5143C43.9606 21.5152 45.0083 22.5629 45.022 23.8524C45.0229 25.1292 43.9767 26.1754 42.6872 26.1872L8.47013 26.1629C7.83176 26.1624 7.23149 25.8939 6.80986 25.4723Z" fill="#FF6E3D"/>
<path d="M41.2313 25.8035L21.9385 6.51082C21.0186 5.5909 21.0176 4.10987 21.9234 3.20401C22.8293 2.29816 24.3231 2.28645 25.243 3.20637L44.5485 22.5119C45.4684 23.4318 45.4694 24.9128 44.5508 25.8314C43.6195 26.7373 42.1384 26.7107 41.2313 25.8035Z" fill="#44BAFF"/>
<path d="M21.9534 45.0811C21.0335 44.1612 21.0325 42.6802 21.9511 41.7616L41.2164 22.4962C42.135 21.5776 43.616 21.5787 44.536 22.4986C45.4559 23.4185 45.4569 24.8996 44.5383 25.8182L25.2603 45.0962C24.3416 45.9893 22.8606 45.9883 21.9534 45.0811Z" fill="#6324FF"/>
</svg>
