<svg width="24" height="24" viewBox="0 0 24 24" fill="none" xmlns="http://www.w3.org/2000/svg">
<path fill-rule="evenodd" clip-rule="evenodd" d="M11.7499 0.75C11.1976 0.75 10.7499 1.19772 10.7499 1.75V10.7505H1.75C1.19772 10.7505 0.75 11.1982 0.75 11.7505V12.2505C0.75 12.8028 1.19772 13.2505 1.75 13.2505H10.7499L10.7499 22.25C10.7499 22.8023 11.1976 23.25 11.7499 23.25H12.2499C12.8021 23.25 13.2499 22.8023 13.2499 22.25L13.2499 13.2505L22.25 13.2505C22.8023 13.2505 23.25 12.8028 23.25 12.2505V11.7505C23.25 11.1982 22.8023 10.7505 22.25 10.7505L13.2499 10.7505V1.75C13.2499 1.19772 12.8021 0.75 12.2499 0.75L11.7499 0.75Z" fill="#6F35FF"/>
</svg>
