<svg width="20" height="20" viewBox="0 0 20 20" fill="none" xmlns="http://www.w3.org/2000/svg">
<path d="M10 0C8.02219 0 6.08879 0.58649 4.4443 1.6853C2.79981 2.78412 1.51809 4.3459 0.761209 6.17316C0.00433286 8.00043 -0.1937 10.0111 0.192152 11.9509C0.578004 13.8907 1.53041 15.6725 2.92894 17.0711C4.32746 18.4696 6.10929 19.422 8.0491 19.8078C9.98891 20.1937 11.9996 19.9957 13.8268 19.2388C15.6541 18.4819 17.2159 17.2002 18.3147 15.5557C19.4135 13.9112 20 11.9778 20 10C20 7.34783 18.9464 4.8043 17.0711 2.92893C15.1957 1.05357 12.6522 0 10 0V0ZM16.4583 10.8333H10C9.77899 10.8333 9.56703 10.7455 9.41075 10.5893C9.25447 10.433 9.16667 10.221 9.16667 10V3.54167C9.16667 3.32065 9.25447 3.10869 9.41075 2.95241C9.56703 2.79613 9.77899 2.70833 10 2.70833C10.221 2.70833 10.433 2.79613 10.5893 2.95241C10.7455 3.10869 10.8333 3.32065 10.8333 3.54167V9.16667H16.4583C16.6793 9.16667 16.8913 9.25446 17.0476 9.41074C17.2039 9.56702 17.2917 9.77899 17.2917 10C17.2917 10.221 17.2039 10.433 17.0476 10.5893C16.8913 10.7455 16.6793 10.8333 16.4583 10.8333Z" fill="#BCA1FF"/>
</svg>
