<svg width="48" height="49" viewBox="0 0 48 49" fill="none" xmlns="http://www.w3.org/2000/svg">
<path d="M24.0829 25.6249L23.2713 25.3404L10.8193 20.9741L11.7776 31.8333C11.7776 33.9937 17.2497 35.7444 23.9998 35.7444C30.7499 35.7444 36.222 33.9937 36.222 31.8333L37.1778 20.9995L24.894 25.3384L24.0829 25.6249Z" fill="#4C29D3"/>
<path d="M44.0322 36.7222C43.9716 36.049 43.6621 35.4492 43.1977 35.0111C43.7179 34.5208 44.0444 33.827 44.0444 33.0556C44.0444 32.0113 43.4475 31.1083 42.5778 30.6625V16.5003L43.3581 16.2247C44.2443 15.9116 44.2483 14.6598 43.3641 14.341L24.4181 7.51074C24.1996 7.43199 23.9606 7.43171 23.742 7.50996L4.6577 14.3401C3.77062 14.6576 3.77467 15.9136 4.66378 16.2253L23.7481 22.9169C23.963 22.9923 24.1972 22.992 24.412 22.9162L40.1333 17.3632V30.6625C39.2636 31.1078 38.6667 32.0113 38.6667 33.0556C38.6667 33.827 38.9932 34.5208 39.5134 35.0111C39.049 35.4492 38.7395 36.049 38.6789 36.7222H38.6667L38.1778 41.6111H44.5333L44.0444 36.7222H44.0322Z" fill="#68BAFF"/>
<path d="M43.1976 35.0113C43.6621 35.4493 43.9716 36.0492 44.0322 36.7224H44.0444L44.5333 41.6113H38.1777L38.6666 36.7224H38.6788C38.7395 36.0492 39.0489 35.4493 39.5134 35.0113C38.9932 34.5209 38.6666 33.8272 38.6666 33.0557C38.6666 32.0115 39.2636 31.108 40.1333 30.6626V17.3634L42.5777 16.5005V30.6626C43.4475 31.1085 44.0444 32.0115 44.0444 33.0557C44.0444 33.8272 43.7178 34.5209 43.1976 35.0113Z" fill="#FF641A"/>
</svg>
