<svg width="48" height="49" viewBox="0 0 48 49" fill="none" xmlns="http://www.w3.org/2000/svg">
<path d="M24.1119 41.2633C23.266 41.2633 22.4385 40.8036 22.0155 39.9944C21.4087 38.8359 21.8316 37.4015 22.9902 36.7762C23.0269 36.7579 26.521 34.8637 30.2725 31.9582C34.9986 28.2803 37.9777 24.6391 38.8788 21.4393C39.5408 19.0854 39.3385 16.6948 38.3087 14.8926C37.6467 13.7524 38.0513 12.2997 39.1914 11.656C40.3316 10.994 41.7844 11.3986 42.428 12.5387C44.0831 15.4443 44.4508 19.1774 43.4394 22.745C42.2257 26.993 38.7685 31.3881 33.1228 35.7648C29.0771 38.9278 25.3808 40.8955 25.2153 40.9875C24.8659 41.1714 24.4797 41.2633 24.1119 41.2633Z" fill="#6324FF"/>
<path d="M24.0951 25.0621C24.0767 25.0621 24.0583 25.0621 24.0399 25.0621C22.9733 25.0253 22.0355 24.2897 21.778 23.2415C21.7596 23.2047 21.0424 20.244 19.5529 17.3752C17.4381 13.2743 15.4704 12.4284 14.2199 12.4284C12.6384 12.4284 8.96046 12.9617 8.77656 17.8534C8.72139 19.159 7.63641 20.1888 6.31235 20.1521C5.00669 20.0969 3.97687 18.9935 4.01365 17.6878C4.1056 14.9662 5.06186 12.4836 6.69853 10.7182C8.5375 8.7321 11.1488 7.6655 14.2015 7.6655C16.3715 7.6655 18.4127 8.5482 20.2517 10.2952C21.5573 11.5273 22.7343 13.2008 23.8009 15.2604C23.9296 15.4995 24.0583 15.7569 24.1687 15.996C24.2974 15.7201 24.4445 15.4259 24.5916 15.1501C27.2765 10.0745 30.366 7.5 33.7864 7.5C37.446 7.5 40.5722 9.32057 42.4112 12.5204C43.0732 13.6605 42.6686 15.1133 41.5285 15.7569C40.3883 16.419 38.9355 16.0144 38.2919 14.8742C37.6115 13.6789 36.2874 12.2629 33.8232 12.2629C33.1428 12.2629 31.2854 12.7594 28.8764 17.32C27.3133 20.2624 26.4122 23.2967 26.3938 23.3335C26.0812 24.3817 25.1433 25.0621 24.0951 25.0621Z" fill="#FF6E3D"/>
<path d="M24.0931 41.2634C23.707 41.2634 23.3024 41.1715 22.9346 40.9692C22.7875 40.8772 19.2199 38.8728 15.211 35.7097C9.69407 31.333 6.18165 27.0115 4.78404 22.8738C4.21396 21.1636 3.93812 19.4166 4.01168 17.7247C4.06685 16.419 5.17022 15.3892 6.47589 15.426C7.78155 15.4812 8.81137 16.5846 8.77459 17.8902C8.73781 19.012 8.92171 20.2073 9.30789 21.3658C10.3745 24.5656 13.4456 28.2252 18.1349 31.9583C21.8312 34.9006 25.2333 36.8131 25.2701 36.8315C26.4102 37.4752 26.8148 38.9279 26.1712 40.0681C25.7298 40.8221 24.9207 41.2634 24.0931 41.2634Z" fill="#68BAFF"/>
</svg>
