<svg width="48" height="49" viewBox="0 0 48 49" fill="none" xmlns="http://www.w3.org/2000/svg">
<path d="M17.262 21.2701C17.262 21.2701 17.262 21.2271 17.262 21.2056C17.2719 20.7887 17.4072 20.3844 17.65 20.0453C17.8929 19.7062 18.2322 19.4481 18.6237 19.3044C19.0153 19.1608 19.441 19.1383 19.8455 19.2399C20.25 19.3414 20.6146 19.5624 20.8919 19.874C20.975 19.7866 21.0647 19.7058 21.1604 19.6323C21.1736 19.5305 21.1951 19.4299 21.2248 19.3316C20.6541 19.1772 20.1642 18.8102 19.8555 18.306C19.5922 17.8455 19.5145 17.3018 19.6382 16.786C19.762 16.2701 20.0778 15.8209 20.5214 15.5299C20.5831 15.4632 20.6607 15.4134 20.7469 15.3849L22.927 14.1176L21.4396 13.2585L19.7481 12.2812C19.6253 12.2103 19.5355 12.0938 19.4983 11.957C19.4611 11.8202 19.4795 11.6742 19.5495 11.5509C19.5845 11.4894 19.6314 11.4354 19.6875 11.3921C19.7435 11.3487 19.8076 11.3169 19.8759 11.2985C19.9443 11.28 20.0157 11.2752 20.0859 11.2845C20.1561 11.2937 20.2238 11.3167 20.2851 11.3522L21.9766 12.3295C22.2086 12.4514 22.4787 12.4787 22.7304 12.4059C22.9822 12.3331 23.196 12.1657 23.3271 11.9389C23.4582 11.712 23.4965 11.4432 23.434 11.1887C23.3714 10.9342 23.2128 10.7138 22.9914 10.5736L18.9642 8.24853C18.2152 7.81331 17.3701 7.57033 16.5043 7.54128C15.6385 7.51223 14.779 7.69803 14.0025 8.08207L11.7687 9.18823C11.6911 9.2296 11.6044 9.25124 11.5164 9.25124C11.4284 9.25124 11.3417 9.2296 11.264 9.18823L9.04631 7.90487L7.00582 11.4596L4.94922 15.0251L7.16691 16.3031C7.23852 16.3458 7.29919 16.4047 7.34411 16.4749L8.50934 18.2308C8.95932 18.9087 9.56036 19.473 10.2652 19.8793L17.2459 23.9173L17.262 21.2701Z" fill="#4C29D3"/>
<path d="M7.1504 4.99987L1.48535 14.812L3.24317 15.8269L8.90821 6.01474L7.1504 4.99987Z" fill="#4C29D3"/>
<path d="M38.9346 7.91016L36.7169 9.19352C36.6451 9.23594 36.564 9.25993 36.4806 9.26332L34.3811 9.3922C33.5679 9.44374 32.7777 9.68265 32.0721 10.0903L21.1662 16.3889C20.9341 16.5227 20.7643 16.7429 20.6939 17.0015C20.6235 17.26 20.6581 17.5359 20.7904 17.7689C20.9103 17.9716 21.0935 18.1292 21.3119 18.2175C21.5302 18.3058 21.7714 18.3199 21.9985 18.2576L22.1811 18.1395L26.8313 15.4546C26.954 15.3904 27.0968 15.3761 27.2298 15.4147C27.3628 15.4533 27.4758 15.5418 27.5451 15.6617C27.6144 15.7816 27.6347 15.9236 27.6017 16.0582C27.5688 16.1927 27.4851 16.3093 27.3682 16.3836L22.5785 19.1651C22.5785 19.1651 22.5785 19.1651 22.5516 19.1651C22.8285 19.1797 23.0996 19.25 23.3488 19.3717C23.5979 19.4935 23.8199 19.6643 24.0014 19.8739C24.1967 19.6556 24.4359 19.481 24.7033 19.3616C24.9708 19.2423 25.2604 19.1808 25.5533 19.1812C25.8033 19.1813 26.0511 19.2287 26.2836 19.3208L28.5281 17.9998C28.6492 17.9451 28.7864 17.9372 28.913 17.9778C29.0396 18.0183 29.1467 18.1043 29.2135 18.2193C29.2803 18.3342 29.3021 18.4698 29.2747 18.5999C29.2473 18.73 29.1726 18.8452 29.0651 18.9234L28.6194 19.1865H28.6462C29.1993 19.188 29.7292 19.4087 30.1198 19.8002C30.5104 20.1918 30.7297 20.7223 30.7297 21.2754V23.9602L32.1956 23.1118L33.8871 22.1345C33.9482 22.0957 34.0165 22.0696 34.088 22.0578C34.1595 22.0461 34.2326 22.0489 34.3029 22.0661C34.3732 22.0834 34.4394 22.1146 34.4973 22.1581C34.5552 22.2015 34.6038 22.2563 34.64 22.319C34.6763 22.3816 34.6995 22.451 34.7082 22.5229C34.7169 22.5948 34.711 22.6677 34.6909 22.7373C34.6707 22.8068 34.6366 22.8716 34.5908 22.9276C34.5449 22.9837 34.4882 23.0299 34.424 23.0635L32.7433 24.0247C32.5106 24.1594 32.3409 24.381 32.2715 24.6407C32.202 24.9004 32.2385 25.1771 32.3728 25.41C32.4389 25.5261 32.5276 25.6277 32.6337 25.7089C32.7398 25.79 32.861 25.8491 32.9903 25.8826C33.1186 25.9185 33.2527 25.928 33.3847 25.9104C33.5167 25.8929 33.6438 25.8487 33.7582 25.7806L37.7855 23.4555C38.5373 23.0244 39.1705 22.4138 39.6287 21.6782C40.0869 20.9427 40.3558 20.1051 40.4113 19.2402L40.567 16.7594C40.5721 16.6703 40.5993 16.5839 40.6462 16.508C40.693 16.432 40.7581 16.369 40.8355 16.3245L43.0532 15.0465L40.9966 11.481L38.9346 7.91016Z" fill="#FF641A"/>
<path d="M40.8496 5.01833L39.0918 6.0332L44.7568 15.8453L46.5147 14.8305L40.8496 5.01833Z" fill="#FF641A"/>
<path d="M28.6567 20.2552C28.4218 20.258 28.1943 20.3378 28.009 20.4823C27.8237 20.6268 27.691 20.8281 27.6311 21.0553C27.6311 21.1251 27.6311 21.2002 27.6311 21.27V26.8599C27.6311 27.0023 27.5745 27.1389 27.4738 27.2396C27.3731 27.3403 27.2365 27.3969 27.0941 27.3969C26.9517 27.3969 26.8151 27.3403 26.7144 27.2396C26.6137 27.1389 26.5572 27.0023 26.5572 26.8599V21.0982C26.5339 20.9607 26.4823 20.8295 26.4056 20.713C26.3289 20.5965 26.2287 20.4973 26.1115 20.4216L26.0417 20.384C25.8955 20.2968 25.7286 20.2505 25.5584 20.2498C25.4242 20.2491 25.2912 20.275 25.1671 20.326C25.043 20.377 24.9303 20.4522 24.8354 20.547C24.7405 20.6419 24.6654 20.7547 24.6144 20.8788C24.5633 21.0029 24.5374 21.1359 24.5382 21.27V26.9512C24.5382 27.0936 24.4816 27.2302 24.3809 27.3309C24.2802 27.4316 24.1436 27.4882 24.0012 27.4882C23.8588 27.4882 23.7222 27.4316 23.6215 27.3309C23.5208 27.2302 23.4642 27.0936 23.4642 26.9512V21.27C23.4642 21.0009 23.3573 20.7427 23.167 20.5524C22.9766 20.3621 22.7185 20.2552 22.4493 20.2552C22.2791 20.2558 22.1122 20.3022 21.9661 20.3894C21.9427 20.4051 21.9175 20.4178 21.8909 20.427C21.7502 20.518 21.6347 20.6429 21.5549 20.7902C21.4752 20.9375 21.4337 21.1025 21.4345 21.27V26.6398C21.4345 26.7822 21.3779 26.9187 21.2772 27.0194C21.1765 27.1202 21.0399 27.1767 20.8975 27.1767C20.7551 27.1767 20.6185 27.1202 20.5178 27.0194C20.4171 26.9187 20.3605 26.7822 20.3605 26.6398V21.27C20.3707 21.1309 20.352 20.9912 20.3057 20.8596C20.2595 20.728 20.1866 20.6074 20.0916 20.5052C19.9966 20.4031 19.8816 20.3216 19.7537 20.2659C19.6258 20.2102 19.4878 20.1814 19.3483 20.1814C19.2088 20.1814 19.0708 20.2102 18.943 20.2659C18.8151 20.3216 18.7001 20.4031 18.6051 20.5052C18.5101 20.6074 18.4372 20.728 18.3909 20.8596C18.3446 20.9912 18.326 21.1309 18.3361 21.27V29.432C18.3361 29.5744 18.2796 29.711 18.1789 29.8117C18.0782 29.9124 17.9416 29.969 17.7992 29.969C17.6568 29.969 17.5202 29.9124 17.4195 29.8117C17.3188 29.711 17.2622 29.5744 17.2622 29.432V27.4774C17.2622 27.2083 17.1553 26.9501 16.9649 26.7598C16.7746 26.5695 16.5165 26.4626 16.2473 26.4626C15.9782 26.4626 15.72 26.5695 15.5297 26.7598C15.3394 26.9501 15.2324 27.2083 15.2324 27.4774V32.1276C15.2299 32.9928 15.4408 33.8453 15.8463 34.6096C16.2519 35.3739 16.8396 36.0264 17.5575 36.5093L19.6302 37.8893C19.7041 37.9379 19.7648 38.0041 19.807 38.0818C19.8491 38.1596 19.8714 38.2465 19.8719 38.335V40.8963H28.1197V38.3618C28.121 38.2785 28.1393 38.1962 28.1734 38.1202L29.1131 36.2139C29.4714 35.4839 29.6552 34.6806 29.6501 33.8674V21.27C29.6502 21.0046 29.5462 20.7496 29.3605 20.5599C29.1748 20.3702 28.9221 20.2608 28.6567 20.2552Z" fill="#68BAFF"/>
<path d="M19.3454 41.9702H18.3359V44H29.666V41.9702H28.6565H19.3454Z" fill="#68BAFF"/>
</svg>
