<svg width="20" height="20" viewBox="0 0 20 20" fill="none" xmlns="http://www.w3.org/2000/svg">
<path fill-rule="evenodd" clip-rule="evenodd" d="M10 0C15.5227 0 20 4.47726 20 10C20 15.5227 15.5227 20 10 20C4.47726 20 0 15.5227 0 10C0 4.47726 4.47726 0 10 0ZM7.88103 9.92696L7.65181 9.22095C7.63941 9.1819 7.6463 9.1424 7.67157 9.10979C8.31328 8.28296 9.25999 7.5526 10.3693 7.71383C11.0896 7.8181 11.5554 8.52779 11.3652 9.22967C10.8741 11.0436 10.3542 12.8498 9.86311 14.6633C9.79651 14.9104 10.023 15.1346 10.2692 15.0652C10.6886 14.9467 11.0992 14.4359 11.3656 14.1066C11.4263 14.0317 11.5452 14.0537 11.5751 14.1456L11.8039 14.8512C11.8167 14.8902 11.8098 14.9302 11.7846 14.9628C11.1424 15.7896 10.1957 16.5195 9.08636 16.3583C8.36656 16.254 7.90032 15.5448 8.09049 14.8424C8.58199 13.0285 9.10152 11.2228 9.59256 9.40882C9.65916 9.16169 9.43317 8.93753 9.18695 9.00735C8.76757 9.1254 8.35691 9.63574 8.09003 9.96555C8.0294 10.0404 7.91043 10.0184 7.88103 9.92696ZM10.9508 3.6192C11.7258 3.6192 12.3542 4.24759 12.3542 5.02251C12.3542 5.79743 11.7258 6.42582 10.9508 6.42582C10.1759 6.42582 9.54754 5.79743 9.54754 5.02251C9.54754 4.24759 10.1759 3.6192 10.9508 3.6192Z" fill="#B6B6FF"/>
</svg>
