<svg width="48" height="49" viewBox="0 0 48 49" fill="none" xmlns="http://www.w3.org/2000/svg">
<path d="M36.3575 28.8971C36.4375 28.7358 36.4845 28.5603 36.4957 28.3807C36.507 28.2012 36.4824 28.0212 36.4232 27.8512C36.364 27.6812 36.2715 27.5246 36.1511 27.3905C36.0306 27.2564 35.8846 27.1474 35.7214 27.07C35.5583 26.9925 35.3814 26.9481 35.2009 26.9393C35.0203 26.9305 34.8399 26.9574 34.6699 27.0186C34.5 27.0798 34.3439 27.174 34.2108 27.2957C34.0777 27.4174 33.9703 27.5642 33.8947 27.7276C33.0189 29.6053 31.6223 31.1947 29.8693 32.3085C28.1162 33.4222 26.0799 34.014 24.0002 34.014C21.9206 34.014 19.8842 33.4222 18.1312 32.3085C16.3782 31.1947 14.9815 29.6053 14.1058 27.7276C14.0302 27.5642 13.9227 27.4174 13.7896 27.2956C13.6566 27.1739 13.5005 27.0797 13.3305 27.0185C13.1606 26.9573 12.9801 26.9303 12.7996 26.9391C12.619 26.9479 12.4421 26.9924 12.2789 27.0698C12.1158 27.1473 11.9698 27.2563 11.8493 27.3904C11.7288 27.5245 11.6363 27.6811 11.5771 27.8511C11.518 28.0211 11.4933 28.2011 11.5046 28.3807C11.5159 28.5602 11.563 28.7358 11.643 28.8971C12.6375 31.0089 14.1604 32.8308 16.0657 34.1882C17.971 35.5456 20.1947 36.3928 22.5235 36.6486V42.5599H17.3666C16.9749 42.5599 16.5993 42.7148 16.3224 42.9905C16.0454 43.2661 15.8898 43.64 15.8898 44.0299C15.8898 44.4198 16.0454 44.7937 16.3224 45.0694C16.5993 45.345 16.9749 45.4999 17.3666 45.4999H30.6339C31.0256 45.4999 31.4012 45.345 31.6781 45.0694C31.9551 44.7937 32.1106 44.4198 32.1106 44.0299C32.1106 43.64 31.9551 43.2661 31.6781 42.9905C31.4012 42.7148 31.0256 42.5599 30.6339 42.5599H25.4769V36.6486C27.8057 36.3928 30.0295 35.5455 31.9348 34.1882C33.84 32.8308 35.363 31.0089 36.3575 28.8971Z" fill="#FF641A"/>
<path d="M22.5233 42.56V36.6487H25.4767V42.56H30.6337C31.0254 42.56 31.401 42.7149 31.6779 42.9905C31.9549 43.2662 32.1105 43.6401 32.1105 44.03C32.1105 44.4199 31.9549 44.7938 31.6779 45.0694C31.401 45.3451 31.0254 45.5 30.6337 45.5H17.3664C16.9747 45.5 16.5991 45.3451 16.3222 45.0694C16.0452 44.7938 15.8896 44.4199 15.8896 44.03C15.8896 43.6401 16.0452 43.2662 16.3222 42.9905C16.5991 42.7149 16.9747 42.56 17.3664 42.56H22.5233Z" fill="#68BAFF"/>
<path d="M28.4178 12.0327H32.1843V11.6466C32.1843 9.48595 31.3221 7.41385 29.7873 5.88607C28.2525 4.3583 26.1709 3.5 24.0004 3.5C21.8298 3.5 19.7482 4.3583 18.2134 5.88607C16.6787 7.41385 15.8164 9.48595 15.8164 11.6466V12.0327L19.5829 12.0326C19.8938 12.0326 20.1919 12.1556 20.4117 12.3744C20.6315 12.5932 20.7549 12.8899 20.7549 13.1993C20.7549 13.5087 20.6315 13.8055 20.4117 14.0243C20.1919 14.2431 19.8938 14.366 19.5829 14.366H15.8164V16.2327H19.5829C19.8937 16.2327 20.1918 16.3556 20.4116 16.5744C20.6314 16.7932 20.7549 17.0899 20.7549 17.3993C20.7549 17.7088 20.6314 18.0055 20.4116 18.2243C20.1918 18.4431 19.8937 18.566 19.5829 18.566H15.8164V20.4327H19.5829C19.8937 20.4327 20.1918 20.5556 20.4116 20.7744C20.6314 20.9932 20.7549 21.2899 20.7549 21.5993C20.7549 21.9088 20.6314 22.2055 20.4116 22.4243C20.1918 22.6431 19.8937 22.766 19.5829 22.766H15.8164V23.1521C15.8164 25.3127 16.6786 27.3848 18.2134 28.9126C19.7482 30.4404 21.8298 31.2986 24.0003 31.2986C26.1709 31.2986 28.2525 30.4404 29.7873 28.9126C31.3221 27.3848 32.1843 25.3127 32.1843 23.1521V22.766H28.4178C28.107 22.766 27.8089 22.6431 27.5891 22.4243C27.3693 22.2055 27.2458 21.9088 27.2458 21.5993C27.2458 21.2899 27.3693 20.9932 27.5891 20.7744C27.8089 20.5556 28.107 20.4327 28.4178 20.4327H32.1843V18.566H28.4178C28.107 18.566 27.8089 18.4431 27.5891 18.2243C27.3693 18.0055 27.2458 17.7088 27.2458 17.3993C27.2458 17.0899 27.3693 16.7932 27.5891 16.5744C27.8089 16.3556 28.107 16.2327 28.4178 16.2327H32.1843V14.366H28.4178C28.107 14.366 27.8089 14.2431 27.5891 14.0243C27.3693 13.8055 27.2458 13.5088 27.2458 13.1993C27.2458 12.8899 27.3693 12.5932 27.5891 12.3744C27.8089 12.1556 28.107 12.0327 28.4178 12.0327Z" fill="#4C29D3"/>
</svg>
