<svg width="30" height="24" viewBox="0 0 30 24" fill="none" xmlns="http://www.w3.org/2000/svg">
<path d="M24.9954 8.02754C23.6089 2.50405 18.0073 -0.84961 12.4838 0.536918C8.16732 1.62049 5.03307 5.35116 4.71014 9.78979C1.64526 10.2952 -0.429613 13.1895 0.0758197 16.2544C0.525126 18.9791 2.88608 20.9745 5.64753 20.9636H10.3345V19.0888H5.64753C3.57671 19.0888 1.89794 17.41 1.89794 15.3392C1.89794 13.2684 3.57671 11.5896 5.64753 11.5896C6.16527 11.5896 6.58493 11.1699 6.58493 10.6522C6.58024 5.9928 10.3537 2.21181 15.0131 2.20718C19.0465 2.20314 22.5185 5.05459 23.2987 9.01175C23.3758 9.40686 23.6964 9.70871 24.0955 9.76167C26.6582 10.1266 28.4398 12.4999 28.0749 15.0626C27.7473 17.3638 25.7825 19.0772 23.4581 19.0888H19.7085V20.9636H23.4581C27.0821 20.9526 30.011 18.0059 29.9999 14.3819C29.9908 11.3653 27.926 8.74342 24.9954 8.02754Z" fill="white"/>
<path d="M14.356 11.8615L10.6064 15.6111L11.9282 16.9328L14.0842 14.7862V23.7758H15.959V14.7862L18.1056 16.9328L19.4274 15.6111L15.6778 11.8615C15.3121 11.498 14.7217 11.498 14.356 11.8615Z" fill="white"/>
</svg>
