<svg width="48" height="49" viewBox="0 0 48 49" fill="none" xmlns="http://www.w3.org/2000/svg">
<path d="M18.8181 34.5894C18.2174 34.5894 17.6167 34.3641 17.1474 33.9136C16.1713 32.9938 16.1338 31.4546 17.0536 30.4785C18.8744 28.545 21.4273 27.4563 24.0928 27.4563C26.6832 27.4563 29.1047 28.4699 30.9255 30.2908C31.8641 31.2293 31.8641 32.7686 30.9255 33.7259C29.9869 34.6645 28.4477 34.6645 27.4904 33.7259C26.5893 32.8249 25.3692 32.318 24.0928 32.318C22.76 32.318 21.5023 32.8624 20.6013 33.8197C20.0945 34.3453 19.4563 34.5894 18.8181 34.5894Z" fill="#44BAFF"/>
<path d="M12.9616 27.0619C12.3609 27.0619 11.7602 26.8367 11.291 26.3862C10.3149 25.4664 10.2773 23.9271 11.1971 22.951C12.849 21.2053 14.7824 19.835 16.9787 18.8777C19.25 17.8828 21.6527 17.376 24.1493 17.376C28.8984 17.376 33.3847 19.2343 36.7448 22.5944C37.6833 23.5329 37.6833 25.0722 36.7448 26.0295C35.8062 26.9681 34.267 26.9681 33.3096 26.0295C30.8694 23.5893 27.6032 22.2377 24.1493 22.2377C20.5452 22.2377 17.2039 23.6643 14.7449 26.2923C14.2568 26.7991 13.6186 27.0619 12.9616 27.0619Z" fill="#FF641A"/>
<path d="M6.42938 19.7037C5.8287 19.7037 5.22802 19.4785 4.75874 19.028C3.78264 18.1082 3.7451 16.5689 4.66489 15.5928C7.16146 12.9649 10.0898 10.8813 13.3935 9.43587C16.8286 7.93417 20.4703 7.16455 24.2433 7.16455C31.4514 7.16455 38.2091 9.96146 43.2961 15.0485C44.2346 15.987 44.2346 17.5263 43.2961 18.4836C42.3575 19.4222 40.8183 19.4222 39.8609 18.4836C35.6937 14.3164 30.1562 12.0075 24.2433 12.0075C21.146 12.0075 18.1614 12.627 15.3645 13.8659C12.6614 15.0672 10.2399 16.7567 8.21265 18.9153C7.70582 19.4409 7.0676 19.7037 6.42938 19.7037Z" fill="#6324FF"/>
<path d="M24.0926 41.8351C25.4441 41.8351 26.5329 40.7464 26.5329 39.3948C26.5329 38.0433 25.4441 36.9546 24.0926 36.9546C22.7411 36.9546 21.6523 38.0433 21.6523 39.3948C21.6523 40.7464 22.7411 41.8351 24.0926 41.8351Z" fill="#6324FF"/>
</svg>
