<svg width="172" height="40" viewBox="0 0 172 40" fill="none" xmlns="http://www.w3.org/2000/svg">
<path d="M46.8818 0.822467H52.0494C53.4766 0.790112 54.8921 1.08543 56.1868 1.68561C57.3244 2.22368 58.2744 3.08941 58.9144 4.17121C59.5711 5.31694 59.9019 6.61979 59.8712 7.93931C59.8712 10.3238 59.1715 12.1281 57.772 13.3523C56.3724 14.5764 54.4303 15.1871 51.9454 15.1844H46.8818V0.822467ZM52.2535 12.1207C53.5034 12.1207 54.4609 11.744 55.1259 10.9908C55.791 10.2376 56.1242 9.21977 56.1256 7.93727C56.1256 6.76063 55.7924 5.79232 55.1259 5.03232C54.4595 4.27232 53.5435 3.89232 52.3779 3.89232H50.5255V12.1288L52.2535 12.1207Z" fill="black"/>
<path d="M61.8683 3.47348C61.5116 3.11403 61.3115 2.62863 61.3115 2.12279C61.3115 1.61694 61.5116 1.13154 61.8683 0.772092C62.2396 0.421613 62.7312 0.226318 63.2423 0.226318C63.7534 0.226318 64.2451 0.421613 64.6163 0.772092C64.7953 0.94772 64.9375 1.15715 65.0346 1.38818C65.1316 1.6192 65.1816 1.8672 65.1816 2.1177C65.1816 2.3682 65.1316 2.61619 65.0346 2.84721C64.9375 3.07824 64.7953 3.28767 64.6163 3.4633C64.2441 3.81066 63.754 4.00474 63.2443 4.00663C62.7347 4.00852 62.2431 3.81807 61.8683 3.47348ZM61.4358 5.3219H65.059V15.1808H61.4358V5.3219Z" fill="black"/>
<path d="M70.4202 19.72C69.8311 19.6197 69.255 19.4544 68.7024 19.2273V16.7214C69.8765 17.2046 71.1375 17.4423 72.4073 17.4196C73.4083 17.4196 74.1325 17.216 74.58 16.8089C75.0275 16.4018 75.2505 15.7992 75.2492 15.0012V14.4047C74.8153 14.7654 74.3149 15.0379 73.7762 15.2068C73.1777 15.3987 72.5524 15.4942 71.9238 15.4897C70.9632 15.5093 70.0136 15.283 69.1656 14.8322C68.381 14.4056 67.7348 13.7643 67.3029 12.9838C66.8413 12.1478 66.6057 11.2063 66.6195 10.2519C66.5986 9.2932 66.8255 8.34532 67.2784 7.4996C67.7032 6.72135 68.3472 6.08439 69.1309 5.66746C69.9742 5.22501 70.9161 5.00299 71.8687 5.02214C73.2818 5.02214 74.4481 5.45303 75.3675 6.31481V5.32953H78.8683V14.5106C78.8683 16.2233 78.3433 17.5519 77.2934 18.4965C76.2434 19.4411 74.6113 19.9161 72.3971 19.9215C71.7333 19.915 71.0716 19.8475 70.4202 19.72ZM74.323 12.2652C74.7491 11.9919 75.0743 11.5874 75.2492 11.113V9.38874C75.0632 8.91731 74.7307 8.51777 74.3005 8.24874C73.8587 7.96684 73.3438 7.82034 72.8194 7.82734C72.4928 7.81248 72.1665 7.86201 71.8592 7.97309C71.5518 8.08417 71.2694 8.25463 71.0282 8.4747C70.7978 8.70361 70.6182 8.97831 70.5012 9.28099C70.3841 9.58366 70.3322 9.90752 70.3488 10.2315C70.3323 10.5613 70.3841 10.891 70.501 11.1999C70.6179 11.5088 70.7973 11.7904 71.0282 12.027C71.2666 12.2525 71.548 12.4279 71.8558 12.5426C72.1635 12.6573 72.4912 12.709 72.8194 12.6947C73.3522 12.7036 73.8756 12.5541 74.323 12.2652Z" fill="black"/>
<path d="M81.2802 3.47348C80.9245 3.11352 80.7251 2.62831 80.7251 2.12279C80.7251 1.61726 80.9245 1.13206 81.2802 0.772092C81.6515 0.421613 82.1431 0.226318 82.6542 0.226318C83.1653 0.226318 83.657 0.421613 84.0283 0.772092C84.2078 0.947436 84.3504 1.15678 84.4477 1.38784C84.5451 1.61891 84.5952 1.86704 84.5952 2.1177C84.5952 2.36836 84.5451 2.61649 84.4477 2.84755C84.3504 3.07862 84.2078 3.28795 84.0283 3.4633C83.656 3.81066 83.1659 4.00474 82.6562 4.00663C82.1466 4.00852 81.655 3.81807 81.2802 3.47348ZM80.8477 5.3219H84.471V15.1808H80.8477V5.3219Z" fill="black"/>
<path d="M87.9595 14.4719C87.3352 13.7933 87.023 12.8657 87.023 11.6891V7.83551H85.6235V5.32141H87.021V2.36353H90.6443V5.32141H92.9088V7.83551H90.6443V11.2046C90.6443 11.738 90.7442 12.1227 90.9441 12.3548C91.1441 12.5869 91.495 12.7029 92.003 12.7029C92.4798 12.6969 92.9474 12.5701 93.3617 12.3344V15.0256C92.9971 15.1914 92.6133 15.3118 92.2192 15.3839C91.7266 15.4667 91.2274 15.5049 90.7279 15.4979C89.5079 15.4925 88.5851 15.1505 87.9595 14.4719Z" fill="black"/>
<path d="M94.8164 14.596C94.0534 13.9989 93.6719 13.167 93.6719 12.1003C93.6719 10.9901 94.0391 10.1378 94.7735 9.5434C95.508 8.94897 96.5614 8.65108 97.9337 8.64972C98.4735 8.64977 99.0118 8.70778 99.5392 8.82276C100.016 8.92003 100.479 9.07522 100.918 9.28486V9.08129C100.918 8.02951 100.054 7.50294 98.3254 7.50158C97.1822 7.48757 96.0501 7.72602 95.0102 8.19983V5.7122C95.5634 5.4724 96.1447 5.30279 96.7402 5.20734C97.4742 5.07697 98.2184 5.01225 98.9639 5.01395C100.801 5.01395 102.191 5.37969 103.132 6.11119C104.073 6.84269 104.543 7.86665 104.542 9.18308V15.1803H101.145V14.3497C100.743 14.725 100.266 15.0115 99.7453 15.1905C99.1238 15.406 98.4692 15.5108 97.8113 15.4999C96.575 15.4931 95.5767 15.1918 94.8164 14.596ZM100.078 13.0143C100.414 12.871 100.704 12.6404 100.92 12.3466V11.4834C100.324 11.0843 99.6205 10.8762 98.9027 10.887C98.5084 10.862 98.1172 10.9711 97.7929 11.1964C97.6607 11.3054 97.5562 11.4442 97.4881 11.6013C97.4201 11.7584 97.3903 11.9294 97.4012 12.1003C97.3928 12.2639 97.4229 12.4272 97.4892 12.5771C97.5554 12.7269 97.656 12.8593 97.7827 12.9634C98.103 13.1889 98.4913 13.2974 98.8823 13.2708C99.2949 13.2737 99.703 13.1861 100.078 13.0143Z" fill="black"/>
<path d="M106.292 0H109.915V15.1803H106.292V0Z" fill="black"/>
<path d="M120.31 13.7533C119.212 12.5971 118.664 11.0669 118.664 9.16281V0.816406H122.315V9.19742C122.315 10.1556 122.573 10.8816 123.089 11.3756C123.604 11.8696 124.314 12.1159 125.218 12.1146C126.124 12.1146 126.831 11.8683 127.338 11.3756C127.845 10.883 128.1 10.1569 128.101 9.19742V0.822513H131.745V9.16892C131.745 11.0866 131.201 12.6201 130.113 13.7696C129.025 14.9191 127.393 15.4945 125.216 15.4959C123.043 15.4918 121.408 14.911 120.31 13.7533Z" fill="black"/>
<path d="M134.535 15.2536C133.818 15.1441 133.122 14.9186 132.477 14.5859V11.9395C133.114 12.2991 133.796 12.5729 134.505 12.7538C135.212 12.9537 135.943 13.0605 136.678 13.0713C137.03 13.0849 137.383 13.0507 137.726 12.9695C137.82 12.9514 137.905 12.9005 137.966 12.8261C138.026 12.7516 138.058 12.6582 138.057 12.5624C138.058 12.4818 138.039 12.4022 138.001 12.331C137.963 12.2598 137.908 12.1993 137.84 12.1553C137.596 12.0099 137.332 11.8995 137.057 11.8275C136.68 11.7115 136.241 11.5832 135.749 11.4468C135.067 11.2603 134.406 11.006 133.775 10.6875C133.333 10.4637 132.962 10.1219 132.703 9.7002C132.455 9.2407 132.335 8.72344 132.355 8.20192C132.355 7.13385 132.776 6.33585 133.619 5.80793C134.463 5.28 135.619 5.01671 137.088 5.01807C137.845 5.02234 138.599 5.098 139.342 5.24403C139.966 5.33694 140.569 5.53812 141.123 5.83846V8.4462C140.62 8.13258 140.068 7.90357 139.491 7.76832C138.871 7.59797 138.231 7.50833 137.587 7.50163C137.219 7.48803 136.851 7.5327 136.496 7.63396C136.388 7.65518 136.29 7.71249 136.219 7.79647C136.148 7.88045 136.107 7.98611 136.104 8.09606C136.104 8.29963 136.235 8.45842 136.496 8.56835C136.953 8.73572 137.42 8.87175 137.896 8.97549C138.334 9.08542 138.52 9.13224 138.45 9.12002C139.163 9.28655 139.849 9.54884 140.491 9.8997C140.92 10.1355 141.274 10.4886 141.511 10.9176C141.725 11.3836 141.827 11.8932 141.808 12.4057C141.817 12.8543 141.709 13.2975 141.494 13.6919C141.28 14.0862 140.966 14.4181 140.584 14.6551C139.768 15.2115 138.584 15.4891 137.033 15.4877C136.195 15.4847 135.359 15.4063 134.535 15.2536Z" fill="black"/>
<path d="M144.448 14.4719C143.824 13.7933 143.512 12.8657 143.512 11.6891V7.83551H142.104V5.32141H143.506V2.36353H147.129V5.32141H149.393V7.83551H147.129V11.2046C147.129 11.738 147.227 12.1227 147.427 12.3548C147.627 12.5869 147.98 12.7029 148.485 12.7029C148.963 12.6971 149.431 12.5703 149.846 12.3344V15.0256C149.481 15.1914 149.097 15.3118 148.702 15.3839C148.209 15.4667 147.71 15.5049 147.21 15.4979C145.993 15.4925 145.072 15.1505 144.448 14.4719Z" fill="black"/>
<path d="M151.303 14.596C150.54 13.9989 150.159 13.167 150.161 12.1003C150.161 10.9901 150.528 10.1378 151.262 9.5434C151.997 8.94897 153.049 8.65108 154.42 8.64972C154.961 8.64988 155.5 8.70789 156.028 8.82276C156.505 8.92068 156.968 9.07584 157.407 9.28486V9.08129C157.407 8.02951 156.542 7.50294 154.812 7.50158C153.67 7.4874 152.538 7.72586 151.499 8.19983V5.7122C152.051 5.4721 152.632 5.30247 153.227 5.20734C153.961 5.07697 154.705 5.01225 155.451 5.01395C157.288 5.01395 158.677 5.37969 159.619 6.11119C160.56 6.84269 161.03 7.86665 161.03 9.18308V15.1803H157.634V14.3497C157.23 14.7246 156.753 15.011 156.232 15.1905C155.611 15.4062 154.956 15.511 154.298 15.4999C153.062 15.4931 152.063 15.1918 151.303 14.596ZM156.563 13.0143C156.899 12.8713 157.191 12.6406 157.407 12.3466V11.4834C156.811 11.0845 156.107 10.8764 155.389 10.887C154.994 10.862 154.603 10.9711 154.278 11.1964C154.145 11.3054 154.041 11.4442 153.973 11.6013C153.905 11.7584 153.875 11.9294 153.886 12.1003C153.877 12.2639 153.908 12.4272 153.974 12.5771C154.04 12.7269 154.141 12.8593 154.267 12.9634C154.588 13.1892 154.977 13.2978 155.369 13.2708C155.781 13.2735 156.188 13.1859 156.563 13.0143Z" fill="black"/>
<path d="M162.367 13.2097L167.059 7.82725H162.489V5.32129H171.835V7.29389L167.183 12.6743H172V15.1802H162.367V13.2097Z" fill="black"/>
<g opacity="0.5">
<path opacity="0.5" d="M52.233 21.271H55.8073L61.5502 35.6309H57.8332L56.6805 32.671H51.3762L50.2235 35.6289H46.4697L52.233 21.271ZM55.7747 29.878L54.0243 25.0513L52.2534 29.878H55.7747Z" fill="black"/>
</g>
<g opacity="0.5">
<path opacity="0.5" d="M63.0005 20.4446H66.6196V35.6249H63.0005V20.4446Z" fill="black"/>
</g>
<g opacity="0.5">
<path opacity="0.5" d="M68.4766 25.764H71.8305V26.8328C72.2335 26.4016 72.7192 26.0555 73.2586 25.8149C73.7958 25.5758 74.3779 25.4537 74.9662 25.4566C75.5769 25.4314 76.1856 25.5434 76.7472 25.7844C77.1942 26.0044 77.5692 26.3468 77.8284 26.7717C78.2571 26.3499 78.7682 26.0207 79.33 25.8047C79.8996 25.5768 80.5074 25.4586 81.1212 25.4566C82.4255 25.4566 83.3524 25.7884 83.9019 26.4521C84.4513 27.1157 84.7233 28.0712 84.7179 29.3184V35.6291H81.2497V29.8314C81.2497 29.2885 81.147 28.8915 80.9417 28.6405C80.7363 28.3894 80.3929 28.2659 79.9114 28.27C79.6275 28.261 79.3452 28.3153 79.0851 28.4291C78.825 28.5428 78.5936 28.7131 78.4078 28.9275C78.4221 29.1616 78.4303 29.5158 78.4303 29.9962V35.625H74.9845V29.6868C74.9845 29.182 74.8968 28.8176 74.7173 28.5998C74.5377 28.3819 74.2236 28.27 73.7707 28.27C73.0716 28.27 72.4677 28.6601 71.959 29.4405V35.625H68.4908L68.4766 25.764Z" fill="black"/>
</g>
<g opacity="0.5">
<path opacity="0.5" d="M86.8905 35.0386C86.1275 34.4428 85.7467 33.6109 85.7481 32.5428C85.7481 31.4327 86.1146 30.5804 86.8477 29.986C87.5808 29.3916 88.6341 29.0937 90.0078 29.0923C90.5485 29.0921 91.0875 29.1509 91.6154 29.2674C92.0926 29.3634 92.5559 29.5187 92.9945 29.7295V29.5259C92.9945 28.4714 92.1295 27.9442 90.3995 27.9442C89.257 27.93 88.1255 28.1685 87.0864 28.6424V26.1568C87.6389 25.9175 88.2195 25.7486 88.8143 25.654C89.5479 25.5192 90.2922 25.4511 91.0381 25.4504C92.8755 25.4504 94.2648 25.8169 95.206 26.5497C96.1472 27.2826 96.6151 28.3052 96.6096 29.6175V35.6168H93.221V34.774C92.8179 35.1495 92.3405 35.4366 91.8194 35.6168C91.1955 35.8341 90.538 35.9396 89.8772 35.9282C88.6532 35.9282 87.6576 35.6317 86.8905 35.0386ZM92.1499 33.4569C92.4858 33.3129 92.7773 33.0825 92.9945 32.7892V31.926C92.3982 31.5277 91.6944 31.3203 90.9769 31.3316C90.5821 31.3061 90.1903 31.4144 89.865 31.639C89.7328 31.748 89.6283 31.8868 89.5602 32.0439C89.4921 32.201 89.4624 32.372 89.4733 32.5428C89.4647 32.7065 89.4948 32.8698 89.561 33.0197C89.6273 33.1697 89.7279 33.302 89.8548 33.406C90.1757 33.6318 90.5647 33.7403 90.9565 33.7134C91.3683 33.7161 91.7757 33.6285 92.1499 33.4569Z" fill="black"/>
</g>
<g opacity="0.5">
<path opacity="0.5" d="M99.3638 34.9105C98.7395 34.2319 98.4273 33.3043 98.4273 32.1277V28.2598H97.0278V25.764H98.4273V22.8062H102.051V25.764H104.315V28.27H102.051V31.6391C102.051 32.1725 102.151 32.5572 102.35 32.7893C102.55 33.0213 102.901 33.1394 103.409 33.1394C103.886 33.1326 104.354 33.0051 104.768 32.7689V35.4601C104.404 35.6268 104.02 35.7472 103.626 35.8184C103.133 35.9012 102.634 35.9393 102.134 35.9324C100.913 35.9297 99.9894 35.5891 99.3638 34.9105Z" fill="black"/>
</g>
<g opacity="0.5">
<path opacity="0.5" d="M106.641 39.5925C106.274 39.5598 105.914 39.4734 105.572 39.336V36.6509C106.004 36.8218 106.466 36.9056 106.931 36.8972C107.307 36.9194 107.68 36.8147 107.989 36.6C108.278 36.3527 108.49 36.0286 108.601 35.6656L108.848 35.0081L104.564 25.7639H108.187L110.762 32.1723L113.19 25.7639H116.807L112.726 36.0768C112.248 37.3077 111.636 38.2184 110.89 38.8087C110.145 39.3991 109.188 39.6936 108.02 39.6922C107.559 39.688 107.098 39.6547 106.641 39.5925Z" fill="black"/>
</g>
<path d="M13.3505 26.9448C12.9507 26.6423 12.5817 26.3014 12.2488 25.9269C10.7283 24.1947 9.90549 21.9614 9.93943 19.659V18.5088C9.93943 17.1936 9.41584 15.9323 8.48384 15.0023C7.55183 14.0723 6.28777 13.5498 4.96972 13.5498C3.65166 13.5498 2.3876 14.0723 1.4556 15.0023C0.523594 15.9323 0 17.1936 0 18.5088V19.659C0 24.5101 1.72798 29.0945 4.86567 32.5674L4.87791 32.5776C5.63946 33.4209 6.48121 34.1886 7.39133 34.8698C8.44642 35.6583 9.77222 35.9963 11.0771 35.8094C12.3819 35.6226 13.5589 34.9261 14.3491 33.8733C15.1394 32.8205 15.4781 31.4976 15.2908 30.1955C15.1035 28.8935 14.4056 27.719 13.3505 26.9305V26.9448Z" fill="#FF641A"/>
<path d="M17.2185 38.1858C13.6686 38.1822 10.2171 37.0213 7.38928 34.8798C6.86685 34.4892 6.42664 33.9998 6.09377 33.4394C5.7609 32.8791 5.54189 32.2588 5.44925 31.614C5.26216 30.3118 5.60116 28.9888 6.39167 27.936C7.18217 26.8832 8.35943 26.1868 9.66447 26.0001C10.3107 25.9077 10.9688 25.9432 11.6012 26.1045C12.2337 26.2659 12.8281 26.5499 13.3505 26.9405C14.463 27.7926 15.8243 28.258 17.2267 28.2658C19.073 28.2658 20.8377 27.4372 22.1964 25.9328C23.0789 24.9559 24.3142 24.3688 25.6305 24.3006C26.9468 24.2325 28.2364 24.6889 29.2154 25.5695C30.1945 26.45 30.7829 27.6827 30.8512 28.9961C30.9195 30.3096 30.4621 31.5964 29.5796 32.5733C26.3032 36.1949 21.9149 38.1858 17.2185 38.1858Z" fill="#68BAFF"/>
<path d="M25.879 34.2162C24.9184 34.2151 23.9787 33.9364 23.1735 33.4138C22.3683 32.8912 21.7321 32.1471 21.3417 31.2713C20.9513 30.3956 20.8236 29.4258 20.9738 28.4791C21.1241 27.5324 21.5459 26.6494 22.1884 25.9369C23.7089 24.2047 24.5317 21.9715 24.4978 19.669V18.5188C24.4978 17.2036 25.0214 15.9423 25.9534 15.0123C26.8854 14.0823 28.1495 13.5598 29.4675 13.5598C30.7856 13.5598 32.0496 14.0823 32.9816 15.0123C33.9136 15.9423 34.4372 17.2036 34.4372 18.5188V19.669C34.473 24.4245 32.7392 29.0241 29.5716 32.5774C29.1057 33.0937 28.5361 33.5064 27.9 33.7888C27.2638 34.0711 26.5752 34.2167 25.879 34.2162Z" fill="#6324FF"/>
<path d="M29.508 9.93705C32.1547 9.93705 34.3003 7.79613 34.3003 5.15517C34.3003 2.51421 32.1547 0.373291 29.508 0.373291C26.8614 0.373291 24.7158 2.51421 24.7158 5.15517C24.7158 7.79613 26.8614 9.93705 29.508 9.93705Z" fill="#FF641A"/>
<path d="M5.01683 9.93705C7.66351 9.93705 9.80906 7.79613 9.80906 5.15517C9.80906 2.51421 7.66351 0.373291 5.01683 0.373291C2.37016 0.373291 0.224609 2.51421 0.224609 5.15517C0.224609 7.79613 2.37016 9.93705 5.01683 9.93705Z" fill="#6324FF"/>
</svg>
