<svg width="48" height="49" viewBox="0 0 48 49" fill="none" xmlns="http://www.w3.org/2000/svg">
<path d="M16.6028 29.7275H12.0225C10.9179 29.7275 10.0225 30.623 10.0225 31.7275V43.4998C10.0225 44.6044 10.9179 45.4998 12.0225 45.4998H16.6028C17.7074 45.4998 18.6028 44.6044 18.6028 43.4998V31.7275C18.6028 30.623 17.7074 29.7275 16.6028 29.7275Z" fill="#68BAFF"/>
<path d="M27.2831 25.0825H22.7041C21.5995 25.0825 20.7041 25.978 20.7041 27.0825V43.4998C20.7041 44.6043 21.5995 45.4998 22.7041 45.4998H27.2831C28.3876 45.4998 29.2831 44.6043 29.2831 43.4998V27.0825C29.2831 25.978 28.3876 25.0825 27.2831 25.0825Z" fill="#FF641A"/>
<path d="M37.9622 16.8286H33.3818C32.2773 16.8286 31.3818 17.724 31.3818 18.8286V43.5002C31.3818 44.6047 32.2773 45.5002 33.3818 45.5002H37.9622C39.0667 45.5002 39.9622 44.6047 39.9622 43.5001V18.8286C39.9622 17.724 39.0667 16.8286 37.9622 16.8286Z" fill="#4C29D3"/>
<path d="M24.3593 15.1915C24.5995 15.4855 25.0668 15.415 25.2097 15.0633L27.3073 9.8986C27.4526 9.5409 27.1549 9.16051 26.7728 9.21557L21.1226 10.0296C20.7377 10.0851 20.5606 10.5395 20.8067 10.8408L21.9879 12.2872L7.74783 23.2759C7.33812 23.5921 7.26996 24.1839 7.59707 24.585C7.9119 24.9709 8.47681 25.036 8.87116 24.7318L23.1519 13.7139L24.3593 15.1915Z" fill="white"/>
<path d="M39.7089 6.58568H38.8203V5.38344C38.8203 4.34525 37.952 3.5 36.8839 3.5H34.4626C33.3945 3.5 32.5235 4.34525 32.5235 5.38344V6.58568H31.6376C30.9246 6.58568 30.3467 7.14743 30.3467 7.84175V13.4067C30.3467 14.0984 30.9246 14.6602 31.6376 14.6602H39.7089C40.4219 14.6602 40.9998 14.0984 40.9998 13.4067V7.84175C40.9998 7.14612 40.4219 6.58568 39.7089 6.58568ZM37.528 6.58568H33.8158V5.38344C33.8158 5.03694 34.1088 4.75475 34.4626 4.75475H36.8839C37.239 4.75475 37.528 5.03694 37.528 5.38344V6.58568Z" fill="#4C29D3"/>
</svg>
