<svg width="48" height="49" viewBox="0 0 48 49" fill="none" xmlns="http://www.w3.org/2000/svg">
<g clip-path="url(#clip0airplane)">
<path d="M41.4493 8.5552C41.472 8.25316 41.3623 7.95629 41.1481 7.74207C40.9338 7.52784 40.6367 7.41785 40.3347 7.4406C38.6508 7.56844 37.0686 8.29491 35.8745 9.48898L29.3951 15.9684L7.35954 13.3243L4.42143 16.2624L21.4624 23.9017L17.0552 28.3088C16.6452 28.7188 16.3426 29.2236 16.1739 29.7782L8.82859 28.3091L6.47816 30.6595L14.7048 34.1853L18.2306 42.412L20.581 40.0615L19.112 32.7163C19.6665 32.5475 20.1713 32.2449 20.5813 31.8349L24.9885 27.4277L32.6277 44.4687L35.5658 41.5306L32.9214 19.4948L39.4009 13.0153C40.5949 11.8213 41.3214 10.2391 41.4493 8.5552Z" fill="#4C29D3"/>
<path d="M32.6145 44.4678L24.9753 27.4268L32.9082 19.4939L35.5526 41.5297L32.6145 44.4678Z" fill="#68BAFF"/>
<path d="M4.40245 16.2732L21.4531 23.8908L29.376 15.9478L7.33682 13.3314L4.40245 16.2732Z" fill="#FF641A"/>
</g>
<defs>
<clipPath id="clip0airplane">
<rect width="48" height="48" fill="white" transform="translate(0 0.5)"/>
</clipPath>
</defs>
</svg>
