<svg width="13" height="15" viewBox="0 0 13 15" fill="none" xmlns="http://www.w3.org/2000/svg">
<path d="M8.91304 3.72686H10.9938C11.1801 3.72686 11.3043 3.85108 11.3043 4.03741V13.4474C11.3043 13.6337 11.1801 13.7579 10.9938 13.7579H1.55279C1.36646 13.7579 1.24224 13.6337 1.24224 13.4474V4.03741C1.24224 3.85108 1.36646 3.72686 1.55279 3.72686H3.1677C3.50932 3.72686 3.78882 3.44735 3.78882 3.10574C3.78882 2.76412 3.50932 2.48462 3.1677 2.48462H1.55279C0.68323 2.48462 0 3.16785 0 4.03741V13.4474C0 14.3169 0.68323 15.0001 1.55279 15.0001H10.9627C11.8323 15.0001 12.5155 14.3169 12.5155 13.4474V4.03741C12.5155 3.16785 11.8323 2.48462 10.9627 2.48462H8.88199C8.54037 2.48462 8.26087 2.76412 8.26087 3.10574C8.29192 3.44735 8.57143 3.72686 8.91304 3.72686Z" fill="#6F35FF"/>
<path d="M8.91353 6.89434L6.27378 9.53409L3.63403 6.89434C3.38558 6.6459 3.01291 6.6459 2.76446 6.89434C2.51601 7.14279 2.51601 7.51546 2.76446 7.76391L5.83899 10.8384C6.08744 11.0869 6.46011 11.0869 6.70856 10.8384L9.78309 7.76391C10.0315 7.51546 10.0315 7.14279 9.78309 6.89434C9.53465 6.67695 9.16198 6.67695 8.91353 6.89434Z" fill="#6F35FF"/>
<path d="M6.89458 10.4348V0.621118C6.89458 0.279503 6.61508 0 6.27346 0C5.93185 0 5.65234 0.279503 5.65234 0.621118V10.4037C5.65234 10.7453 5.93185 11.0248 6.27346 11.0248C6.61508 11.0559 6.89458 10.7764 6.89458 10.4348Z" fill="#6F35FF"/>
</svg>
