<svg width="22" height="22" fill="none" xmlns="http://www.w3.org/2000/svg"><g clip-path="url(#clip0)" fill="#fff"><path d="M15.379.167H6.62A6.462 6.462 0 00.167 6.62v8.758a6.462 6.462 0 006.454 6.455h8.758a6.462 6.462 0 006.454-6.455V6.62A6.462 6.462 0 0015.38.167zm4.275 15.212a4.275 4.275 0 01-4.275 4.275H6.62a4.275 4.275 0 01-4.275-4.275V6.62A4.275 4.275 0 016.62 2.346h8.758a4.275 4.275 0 014.275 4.274v8.758z"/><path d="M11 5.396A5.61 5.61 0 005.396 11 5.61 5.61 0 0011 16.604 5.61 5.61 0 0016.604 11 5.61 5.61 0 0011 5.396zm0 9.028a3.424 3.424 0 110-6.848 3.424 3.424 0 010 6.848zm5.615-7.643a1.343 1.343 0 100-2.685 1.343 1.343 0 000 2.685z"/></g><defs><clipPath id="clip0"><path fill="#fff" transform="translate(.167 .167)" d="M0 0h21.667v21.667H0z"/></clipPath></defs></svg>